<svg xmlns="http://www.w3.org/2000/svg" xmlns:xlink="http://www.w3.org/1999/xlink" width="2000" zoomAndPan="magnify" viewBox="0 0 1500 1499.999933" height="2000" preserveAspectRatio="xMidYMid meet" version="1.0"><defs><clipPath id="243f21aa6c"><path d="M 12.710938 35 L 1487.210938 35 L 1487.210938 1465.078125 L 12.710938 1465.078125 Z M 12.710938 35 " clip-rule="nonzero"/></clipPath></defs><g clip-path="url(#243f21aa6c)"><path fill="#c4923a" d="M 1402.425781 486.402344 C 1363.882812 486.402344 1331.292969 512.265625 1321.03125 547.542969 L 1264.109375 547.542969 C 1250.996094 489.871094 1228.394531 435.367188 1196.757812 385.128906 L 1264.621094 317.265625 C 1268.433594 313.453125 1270.578125 308.28125 1270.578125 302.890625 C 1270.578125 297.5 1268.429688 292.332031 1264.621094 288.519531 L 1126.757812 150.742188 C 1118.816406 142.808594 1105.953125 142.816406 1098.019531 150.75 L 1030.167969 218.601562 C 980.011719 186.984375 925.511719 164.390625 867.746094 151.257812 L 867.746094 55.371094 C 867.746094 44.148438 858.648438 35.046875 847.421875 35.046875 L 652.570312 35.046875 C 641.34375 35.046875 632.242188 44.148438 632.242188 55.371094 L 632.242188 151.257812 C 574.53125 164.367188 519.996094 186.96875 469.746094 218.609375 L 401.886719 150.75 C 393.949219 142.8125 381.078125 142.8125 373.144531 150.75 L 235.367188 288.527344 C 231.558594 292.335938 229.410156 297.503906 229.410156 302.894531 C 229.410156 308.285156 231.554688 313.453125 235.367188 317.265625 L 303.230469 385.128906 C 271.59375 435.367188 248.992188 489.871094 235.878906 547.542969 L 178.953125 547.542969 C 168.6875 512.265625 136.058594 486.402344 97.480469 486.402344 C 50.738281 486.402344 12.710938 524.425781 12.710938 571.167969 L 12.710938 973.40625 C 12.710938 1001.167969 23.429688 1027.179688 42.882812 1046.632812 L 217.554688 1221.386719 C 228.277344 1232.984375 230.007812 1235.761719 230.007812 1247.015625 L 230.007812 1270.214844 L 206.378906 1270.214844 C 178.449219 1270.214844 155.167969 1293.320312 154.472656 1321.71875 L 152.273438 1412.75 C 151.941406 1426.449219 157.109375 1439.480469 166.835938 1449.445312 C 176.628906 1459.484375 190.238281 1465.238281 204.175781 1465.238281 L 515.132812 1465.238281 C 543.582031 1465.238281 566.417969 1442.617188 567.117188 1413.738281 L 569.320312 1322.710938 C 569.660156 1309.007812 564.488281 1295.980469 554.765625 1286.015625 C 544.96875 1275.972656 531.359375 1270.21875 517.421875 1270.21875 L 493.796875 1270.21875 L 493.796875 1126.339844 C 537.273438 1150.578125 583.648438 1168.375 632.246094 1179.414062 L 632.246094 1275.382812 C 632.246094 1286.605469 641.34375 1295.703125 652.570312 1295.703125 L 847.425781 1295.703125 C 858.648438 1295.703125 867.75 1286.605469 867.75 1275.382812 L 867.75 1179.410156 C 916.808594 1168.25 963.660156 1150.203125 1007.582031 1125.5625 L 1012.222656 1270.222656 L 982.578125 1270.222656 C 968.640625 1270.222656 955.027344 1275.980469 945.230469 1286.019531 C 935.511719 1295.984375 930.335938 1309.011719 930.675781 1322.707031 L 932.878906 1413.738281 C 933.566406 1442.140625 956.847656 1465.242188 984.78125 1465.242188 L 1295.730469 1465.242188 C 1309.714844 1465.242188 1323.359375 1459.476562 1333.167969 1449.425781 C 1342.886719 1439.472656 1348.050781 1426.445312 1347.722656 1412.757812 L 1345.519531 1321.722656 C 1344.816406 1292.84375 1321.980469 1270.222656 1293.527344 1270.222656 L 1273.671875 1270.222656 L 1269.996094 1245.585938 C 1270.152344 1235.511719 1272.175781 1232.476562 1282.378906 1221.367188 L 1456.984375 1046.675781 C 1476.523438 1027.246094 1487.28125 1001.222656 1487.28125 973.410156 L 1487.28125 571.167969 C 1487.28125 524.425781 1449.214844 486.402344 1402.429688 486.402344 Z M 182.328125 783.128906 L 235.890625 783.128906 C 238.785156 795.804688 242.179688 808.378906 246.015625 820.828125 C 223.5 817.773438 199.882812 824.617188 182.328125 841.386719 Z M 71.625 1017.894531 C 59.84375 1006.117188 53.359375 990.316406 53.359375 973.410156 L 53.359375 571.167969 C 53.359375 546.839844 73.148438 527.046875 97.476562 527.046875 C 121.804688 527.046875 141.679688 546.839844 141.679688 571.167969 L 141.679688 866.285156 C 141.679688 899.339844 144.285156 912.277344 160.648438 928.890625 L 181.121094 949.449219 C 181.121094 949.449219 181.121094 949.457031 181.128906 949.457031 L 313.0625 1082.15625 C 317.035156 1086.152344 322.253906 1088.148438 327.472656 1088.148438 C 332.65625 1088.148438 337.835938 1086.179688 341.800781 1082.234375 C 349.761719 1074.320312 349.796875 1061.453125 341.886719 1053.496094 L 210.484375 921.339844 C 210.484375 921.339844 210.476562 921.328125 210.472656 921.324219 C 210.464844 921.316406 210.453125 921.308594 210.445312 921.296875 L 210.4375 921.289062 C 196.332031 907.035156 196.097656 885.070312 209.882812 871.285156 C 224.035156 857.183594 247.066406 857.183594 261.1875 871.253906 L 268.847656 878.921875 C 269.417969 879.554688 270.003906 880.164062 270.640625 880.710938 L 436.648438 1046.796875 C 436.9375 1047.085938 437.238281 1047.363281 437.539062 1047.636719 C 446.726562 1055.78125 453.140625 1070.007812 453.140625 1082.222656 L 453.140625 1270.21875 L 270.652344 1270.21875 L 270.652344 1247.015625 C 270.652344 1220.9375 260.898438 1208.386719 247.121094 1193.496094 C 246.945312 1193.304688 246.761719 1193.117188 246.578125 1192.933594 L 71.621094 1017.894531 Z M 517.417969 1310.867188 C 520.46875 1310.867188 523.476562 1312.15625 525.671875 1314.40625 C 526.835938 1315.597656 528.777344 1318.128906 528.683594 1321.726562 L 526.480469 1412.757812 C 526.324219 1419.289062 521.230469 1424.597656 515.132812 1424.597656 L 204.175781 1424.597656 C 201.125 1424.597656 198.117188 1423.308594 195.921875 1421.0625 C 194.757812 1419.871094 192.820312 1417.332031 192.90625 1413.742188 L 195.109375 1322.710938 C 195.269531 1316.183594 200.328125 1310.867188 206.378906 1310.867188 Z M 1006.207031 1079.171875 C 956.015625 1110.292969 901.351562 1131.746094 843.546875 1142.976562 C 833.996094 1144.832031 827.097656 1153.195312 827.097656 1162.929688 L 827.097656 1255.0625 L 672.894531 1255.0625 L 672.894531 1162.929688 C 672.894531 1153.195312 665.992188 1144.828125 656.4375 1142.976562 C 598.527344 1131.742188 543.839844 1110.273438 493.695312 1079.132812 C 492.761719 1056.539062 481.742188 1032.78125 465 1017.667969 L 301.125 853.714844 C 288.324219 823.179688 278.617188 791.316406 272.304688 758.917969 C 270.449219 749.375 262.085938 742.480469 252.355469 742.480469 L 182.324219 742.480469 L 182.324219 588.191406 L 252.355469 588.191406 C 262.089844 588.191406 270.453125 581.296875 272.308594 571.746094 C 284.714844 507.871094 309.542969 447.992188 346.097656 393.777344 C 351.535156 385.714844 350.496094 374.921875 343.621094 368.042969 L 278.46875 302.898438 L 387.507812 193.863281 L 452.652344 259.007812 C 459.53125 265.886719 470.320312 266.921875 478.390625 261.488281 C 532.605469 224.925781 592.507812 200.097656 656.433594 187.695312 C 665.988281 185.84375 672.890625 177.476562 672.890625 167.746094 L 672.890625 75.691406 L 827.09375 75.691406 L 827.09375 167.742188 C 827.09375 177.472656 833.992188 185.835938 843.542969 187.695312 C 907.539062 200.125 967.417969 224.949219 1021.496094 261.476562 C 1029.558594 266.921875 1040.363281 265.886719 1047.242188 259.003906 L 1112.394531 193.855469 L 1221.507812 302.898438 L 1156.363281 368.042969 C 1149.488281 374.917969 1148.449219 385.710938 1153.886719 393.773438 C 1190.445312 447.988281 1215.269531 507.867188 1227.675781 571.742188 C 1229.527344 581.292969 1237.894531 588.1875 1247.625 588.1875 L 1317.660156 588.1875 L 1317.660156 742.476562 L 1247.625 742.476562 C 1237.902344 742.476562 1229.535156 749.371094 1227.679688 758.917969 C 1221.308594 791.621094 1211.554688 823.523438 1198.734375 853.839844 L 1034.988281 1017.660156 C 1017.6875 1033.261719 1006.675781 1056.984375 1006.207031 1079.171875 Z M 1317.664062 783.128906 L 1317.664062 841.386719 C 1300.121094 824.613281 1276.5 817.769531 1253.980469 820.832031 C 1257.808594 808.417969 1261.203125 795.839844 1264.101562 783.128906 Z M 1293.527344 1310.867188 C 1299.632812 1310.867188 1304.722656 1316.179688 1304.882812 1322.707031 L 1307.089844 1413.742188 C 1307.171875 1417.320312 1305.242188 1419.847656 1304.082031 1421.039062 C 1301.875 1423.296875 1298.832031 1424.59375 1295.734375 1424.59375 L 984.78125 1424.59375 C 978.726562 1424.59375 973.671875 1419.285156 973.515625 1412.753906 L 971.308594 1321.714844 C 971.21875 1318.128906 973.160156 1315.597656 974.324219 1314.402344 C 976.515625 1312.152344 979.527344 1310.863281 982.578125 1310.863281 L 1293.527344 1310.863281 Z M 1446.632812 973.410156 C 1446.632812 990.324219 1440.128906 1006.109375 1428.277344 1017.898438 L 1253.328125 1192.9375 C 1253.128906 1193.136719 1252.929688 1193.339844 1252.742188 1193.546875 C 1238.605469 1208.921875 1229.339844 1220.953125 1229.339844 1247.019531 C 1229.339844 1248.023438 1229.417969 1249.027344 1229.566406 1250.015625 L 1232.578125 1270.222656 L 1052.894531 1270.222656 L 1046.839844 1081.558594 C 1046.46875 1070.257812 1053.035156 1055.996094 1062.453125 1047.644531 C 1062.757812 1047.371094 1063.054688 1047.09375 1063.34375 1046.804688 L 1238.773438 871.292969 C 1252.925781 857.191406 1275.957031 857.191406 1290.082031 871.265625 C 1303.894531 885.082031 1303.660156 907.054688 1289.542969 921.304688 L 1289.511719 921.335938 C 1289.511719 921.335938 1289.492188 921.355469 1289.484375 921.363281 L 1158.105469 1053.503906 C 1150.191406 1061.464844 1150.226562 1074.332031 1158.1875 1082.242188 C 1162.15625 1086.183594 1167.335938 1088.15625 1172.515625 1088.15625 C 1177.738281 1088.15625 1182.957031 1086.15625 1186.925781 1082.160156 L 1318.863281 949.464844 C 1318.863281 949.464844 1318.875 949.449219 1318.878906 949.445312 L 1339.28125 928.871094 C 1355.683594 912.34375 1358.304688 899.390625 1358.304688 866.289062 L 1358.304688 571.171875 C 1358.304688 546.84375 1378.097656 527.050781 1402.421875 527.050781 C 1426.746094 527.050781 1446.628906 546.839844 1446.628906 571.171875 L 1446.628906 973.410156 Z M 1052.523438 906.425781 C 1052.523438 870.898438 1046.164062 835.800781 1034.140625 802.773438 L 1164.050781 802.773438 C 1175.273438 802.773438 1184.375 793.675781 1184.375 782.453125 C 1184.375 724.429688 1164.296875 667.691406 1127.847656 622.6875 C 1100.136719 588.46875 1063.859375 562.089844 1023.316406 546.105469 C 1042.21875 524.417969 1053.707031 496.109375 1053.707031 465.148438 C 1053.707031 397.164062 998.359375 341.851562 930.328125 341.851562 C 887.242188 341.851562 847.878906 364.417969 825.703125 399.988281 C 803.652344 386.390625 777.707031 378.519531 749.957031 378.519531 C 722.203125 378.519531 696.300781 386.371094 674.265625 399.949219 C 652.074219 364.402344 612.691406 341.851562 569.582031 341.851562 C 501.59375 341.851562 446.285156 397.160156 446.285156 465.148438 C 446.285156 496.113281 457.765625 524.425781 476.660156 546.109375 C 436.121094 562.101562 399.855469 588.476562 372.144531 622.6875 C 335.695312 667.691406 315.617188 724.429688 315.617188 782.453125 C 315.617188 793.675781 324.71875 802.773438 335.941406 802.773438 L 465.785156 802.773438 C 453.746094 835.800781 447.386719 870.902344 447.386719 906.425781 C 447.386719 917.652344 456.484375 926.75 467.710938 926.75 L 1032.203125 926.75 C 1043.429688 926.75 1052.527344 917.652344 1052.527344 906.425781 Z M 930.328125 382.5 C 975.945312 382.5 1013.058594 419.574219 1013.058594 465.148438 C 1013.058594 510.722656 975.945312 547.882812 930.328125 547.882812 C 917.539062 547.882812 905.097656 544.941406 893.761719 539.320312 C 894.347656 534.039062 894.675781 528.679688 894.675781 523.242188 C 894.675781 486.023438 880.546875 452.046875 857.378906 426.378906 C 871.546875 399.722656 899.511719 382.5 930.328125 382.5 Z M 749.953125 419.164062 C 807.34375 419.164062 854.027344 465.851562 854.027344 523.242188 C 854.027344 580.628906 807.339844 627.316406 749.953125 627.316406 C 700.292969 627.316406 658.667969 592.339844 648.355469 545.738281 C 648.3125 545.527344 648.257812 545.320312 648.210938 545.113281 C 646.695312 538.054688 645.875 530.742188 645.875 523.238281 C 645.875 465.851562 692.5625 419.164062 749.949219 419.164062 Z M 569.578125 382.5 C 600.414062 382.5 628.398438 399.699219 642.582031 426.316406 C 619.382812 451.992188 605.230469 485.992188 605.230469 523.242188 C 605.230469 528.691406 605.558594 534.066406 606.148438 539.359375 C 594.824219 544.957031 582.382812 547.882812 569.578125 547.882812 C 524.003906 547.882812 486.929688 510.769531 486.929688 465.148438 C 486.929688 419.53125 524.003906 382.5 569.578125 382.5 Z M 357.25 762.128906 C 365.820312 674.054688 429.410156 598.519531 515.59375 576.046875 C 531.90625 584.03125 550.226562 588.527344 569.578125 588.527344 C 585.847656 588.527344 601.726562 585.351562 616.515625 579.253906 C 623.335938 595.4375 633.042969 610.105469 644.941406 622.671875 C 594.351562 641.464844 549.050781 673.753906 514.75 716.085938 C 503.074219 730.492188 492.859375 745.941406 484.089844 762.128906 Z M 488.835938 886.101562 C 497.59375 775.519531 577.113281 680.15625 685.222656 652.621094 C 704.714844 662.414062 726.691406 667.960938 749.953125 667.960938 C 773.214844 667.960938 795.210938 662.410156 814.707031 652.609375 C 922.804688 680.117188 1002.316406 775.496094 1011.070312 886.105469 L 488.835938 886.105469 Z M 985.199219 716.089844 C 950.902344 673.738281 905.59375 641.433594 854.984375 622.648438 C 866.882812 610.082031 876.585938 595.414062 883.398438 579.226562 C 898.199219 585.34375 914.066406 588.527344 930.328125 588.527344 C 949.699219 588.527344 968.035156 584.027344 984.367188 576.035156 C 1070.566406 598.5 1134.175781 674.042969 1142.742188 762.128906 L 1015.84375 762.128906 C 1007.082031 745.941406 996.871094 730.496094 985.203125 716.089844 Z M 985.199219 716.089844 " fill-opacity="1" fill-rule="nonzero"/></g></svg>