<svg xmlns="http://www.w3.org/2000/svg" xmlns:xlink="http://www.w3.org/1999/xlink" width="2000" zoomAndPan="magnify" viewBox="0 0 1500 1499.999933" height="2000" preserveAspectRatio="xMidYMid meet" version="1.0"><path fill="#c4923a" d="M 1105.105469 506.171875 C 1253.535156 708.484375 1236.179688 995.246094 1053.554688 1177.871094 C 851.761719 1379.664062 523.8125 1379.664062 322.019531 1177.871094 C 120.480469 976.335938 120.480469 648.382812 322.273438 446.589844 C 504.902344 263.964844 791.664062 246.609375 993.976562 395.042969 L 1072.207031 316.808594 C 826.890625 125.898438 470.1875 143.25 244.5625 368.878906 C 0.0273438 613.414062 0.0273438 1011.304688 244.304688 1255.582031 C 488.839844 1500.121094 886.730469 1500.121094 1131.269531 1255.582031 C 1356.894531 1029.957031 1374.25 673.769531 1183.335938 427.9375 Z M 1105.105469 506.171875 " fill-opacity="1" fill-rule="nonzero"/><path fill="#c4923a" d="M 818.34375 570.671875 L 898.90625 490.109375 C 749.699219 392.707031 546.867188 409.03125 415.789062 540.105469 C 265.804688 690.089844 265.804688 934.109375 415.789062 1084.097656 C 565.777344 1234.082031 809.796875 1234.082031 959.78125 1084.097656 C 963.644531 1080.226562 967.425781 1076.277344 971.121094 1072.25 C 974.816406 1068.21875 978.425781 1064.109375 981.945312 1059.925781 C 985.464844 1055.742188 988.894531 1051.484375 992.234375 1047.15625 C 995.574219 1042.824219 998.820312 1038.425781 1001.972656 1033.957031 C 1005.125 1029.488281 1008.179688 1024.957031 1011.140625 1020.355469 C 1014.097656 1015.757812 1016.957031 1011.097656 1019.71875 1006.378906 C 1022.480469 1001.65625 1025.136719 996.878906 1027.695312 992.046875 C 1030.25 987.214844 1032.703125 982.328125 1035.054688 977.390625 C 1037.402344 972.453125 1039.644531 967.464844 1041.78125 962.433594 C 1043.917969 957.398438 1045.945312 952.320312 1047.867188 947.199219 C 1049.785156 942.082031 1051.597656 936.921875 1053.296875 931.726562 C 1054.996094 926.527344 1056.585938 921.296875 1058.0625 916.03125 C 1059.539062 910.765625 1060.90625 905.472656 1062.15625 900.148438 C 1063.410156 894.828125 1064.546875 889.480469 1065.570312 884.109375 C 1066.597656 878.738281 1067.503906 873.347656 1068.300781 867.9375 C 1069.09375 862.523438 1069.773438 857.101562 1070.335938 851.660156 C 1070.902344 846.222656 1071.347656 840.773438 1071.679688 835.316406 C 1072.011719 829.855469 1072.226562 824.394531 1072.324219 818.925781 C 1072.421875 813.460938 1072.40625 807.992188 1072.269531 802.527344 C 1072.136719 797.058594 1071.886719 791.597656 1071.519531 786.140625 C 1071.152344 780.6875 1070.671875 775.238281 1070.070312 769.804688 C 1069.472656 764.371094 1068.757812 758.949219 1067.929688 753.542969 C 1067.097656 748.140625 1066.152344 742.753906 1065.09375 737.390625 C 1064.035156 732.023438 1062.863281 726.683594 1061.578125 721.371094 C 1060.289062 716.054688 1058.890625 710.769531 1057.378906 705.515625 C 1055.867188 700.261719 1054.246094 695.039062 1052.511719 689.855469 C 1050.777344 684.667969 1048.933594 679.519531 1046.980469 674.414062 C 1045.023438 669.304688 1042.964844 664.242188 1040.792969 659.222656 C 1038.625 654.203125 1036.351562 649.230469 1033.96875 644.308594 C 1031.589844 639.386719 1029.105469 634.515625 1026.515625 629.699219 C 1023.929688 624.882812 1021.238281 620.121094 1018.445312 615.421875 C 1015.65625 610.71875 1012.765625 606.078125 1009.777344 601.496094 L 929.472656 681.804688 C 932.0625 686.59375 934.507812 691.457031 936.808594 696.394531 C 939.109375 701.332031 941.261719 706.332031 943.265625 711.394531 C 945.269531 716.460938 947.121094 721.582031 948.820312 726.753906 C 950.519531 731.929688 952.0625 737.148438 953.449219 742.414062 C 954.839844 747.683594 956.070312 752.984375 957.144531 758.324219 C 958.21875 763.664062 959.132812 769.03125 959.886719 774.425781 C 960.644531 779.816406 961.238281 785.230469 961.671875 790.660156 C 962.105469 796.085938 962.375 801.523438 962.488281 806.96875 C 962.597656 812.414062 962.546875 817.859375 962.332031 823.300781 C 962.117188 828.742188 961.746094 834.175781 961.207031 839.59375 C 960.671875 845.015625 959.976562 850.414062 959.117188 855.792969 C 958.261719 861.171875 957.246094 866.519531 956.070312 871.835938 C 954.898438 877.15625 953.566406 882.433594 952.078125 887.671875 C 950.589844 892.910156 948.945312 898.101562 947.148438 903.242188 C 945.351562 908.386719 943.402344 913.46875 941.304688 918.492188 C 939.207031 923.519531 936.960938 928.480469 934.566406 933.371094 C 932.171875 938.261719 929.636719 943.078125 926.957031 947.820312 C 924.277344 952.5625 921.457031 957.21875 918.5 961.792969 C 915.542969 966.367188 912.453125 970.851562 909.230469 975.242188 C 906.007812 979.628906 902.65625 983.921875 899.179688 988.113281 C 895.699219 992.304688 892.101562 996.386719 888.378906 1000.363281 C 884.660156 1004.34375 880.824219 1008.207031 876.875 1011.953125 C 872.921875 1015.703125 868.863281 1019.332031 864.699219 1022.839844 C 860.53125 1026.347656 856.265625 1029.730469 851.898438 1032.984375 C 847.53125 1036.238281 843.074219 1039.363281 838.519531 1042.351562 C 833.96875 1045.339844 829.328125 1048.191406 824.609375 1050.90625 C 819.886719 1053.621094 815.085938 1056.191406 810.210938 1058.621094 C 805.335938 1061.050781 800.394531 1063.332031 795.382812 1065.464844 C 790.375 1067.601562 785.304688 1069.585938 780.175781 1071.417969 C 775.046875 1073.253906 769.871094 1074.933594 764.640625 1076.457031 C 759.414062 1077.984375 754.144531 1079.355469 748.835938 1080.566406 C 743.523438 1081.78125 738.183594 1082.835938 732.8125 1083.730469 C 727.441406 1084.625 722.046875 1085.359375 716.628906 1085.9375 C 711.214844 1086.511719 705.785156 1086.925781 700.34375 1087.175781 C 694.90625 1087.429688 689.460938 1087.519531 684.015625 1087.449219 C 678.570312 1087.378906 673.128906 1087.144531 667.699219 1086.75 C 662.265625 1086.355469 656.851562 1085.800781 651.453125 1085.085938 C 646.054688 1084.367188 640.679688 1083.492188 635.332031 1082.457031 C 629.984375 1081.421875 624.675781 1080.226562 619.398438 1078.875 C 614.121094 1077.523438 608.890625 1076.019531 603.703125 1074.355469 C 598.519531 1072.695312 593.386719 1070.878906 588.304688 1068.914062 C 583.226562 1066.945312 578.210938 1064.828125 573.257812 1062.5625 C 568.304688 1060.300781 563.425781 1057.890625 558.613281 1055.332031 C 553.804688 1052.777344 549.074219 1050.082031 544.425781 1047.246094 C 539.777344 1044.410156 535.214844 1041.4375 530.742188 1038.332031 C 526.269531 1035.222656 521.890625 1031.984375 517.613281 1028.617188 C 513.332031 1025.25 509.15625 1021.757812 505.082031 1018.144531 C 501.007812 1014.527344 497.046875 1010.792969 493.195312 1006.941406 C 489.34375 1003.089844 485.609375 999.128906 481.996094 995.054688 C 478.378906 990.984375 474.886719 986.804688 471.519531 982.527344 C 468.152344 978.246094 464.914062 973.867188 461.808594 969.394531 C 458.703125 964.921875 455.730469 960.363281 452.894531 955.710938 C 450.058594 951.0625 447.359375 946.332031 444.804688 941.523438 C 442.25 936.714844 439.839844 931.832031 437.574219 926.878906 C 435.3125 921.925781 433.195312 916.910156 431.226562 911.832031 C 429.261719 906.753906 427.445312 901.621094 425.785156 896.433594 C 424.121094 891.246094 422.617188 886.015625 421.265625 880.738281 C 419.914062 875.460938 418.71875 870.152344 417.683594 864.804688 C 416.648438 859.457031 415.773438 854.085938 415.058594 848.683594 C 414.339844 843.285156 413.785156 837.871094 413.390625 832.4375 C 412.996094 827.007812 412.765625 821.566406 412.695312 816.121094 C 412.621094 810.675781 412.714844 805.230469 412.964844 799.792969 C 413.21875 794.351562 413.632812 788.921875 414.207031 783.507812 C 414.78125 778.089844 415.519531 772.695312 416.414062 767.324219 C 417.308594 761.953125 418.363281 756.613281 419.574219 751.300781 C 420.789062 745.992188 422.160156 740.722656 423.683594 735.496094 C 425.210938 730.265625 426.890625 725.089844 428.726562 719.960938 C 430.558594 714.832031 432.542969 709.761719 434.679688 704.753906 C 436.8125 699.742188 439.09375 694.800781 441.523438 689.925781 C 443.953125 685.050781 446.523438 680.25 449.238281 675.53125 C 451.953125 670.808594 454.804688 666.171875 457.792969 661.617188 C 460.785156 657.066406 463.90625 652.605469 467.160156 648.238281 C 470.414062 643.871094 473.796875 639.605469 477.304688 635.4375 C 480.8125 631.273438 484.441406 627.214844 488.191406 623.265625 C 491.941406 619.316406 495.804688 615.480469 499.78125 611.757812 C 503.757812 608.039062 507.84375 604.4375 512.035156 600.960938 C 516.226562 597.480469 520.515625 594.132812 524.90625 590.910156 C 529.296875 587.6875 533.777344 584.597656 538.351562 581.640625 C 542.925781 578.683594 547.585938 575.863281 552.324219 573.183594 C 557.066406 570.503906 561.882812 567.96875 566.777344 565.574219 C 571.667969 563.179688 576.628906 560.933594 581.652344 558.835938 C 586.679688 556.738281 591.761719 554.789062 596.902344 552.992188 C 602.046875 551.195312 607.234375 549.550781 612.472656 548.0625 C 617.714844 546.574219 622.992188 545.246094 628.308594 544.070312 C 633.628906 542.894531 638.976562 541.878906 644.355469 541.023438 C 649.734375 540.164062 655.132812 539.46875 660.554688 538.933594 C 665.972656 538.398438 671.40625 538.023438 676.847656 537.808594 C 682.289062 537.597656 687.734375 537.546875 693.175781 537.65625 C 698.621094 537.765625 704.058594 538.039062 709.488281 538.472656 C 714.917969 538.90625 720.328125 539.5 725.722656 540.253906 C 731.117188 541.007812 736.484375 541.925781 741.824219 542.996094 C 747.164062 544.070312 752.464844 545.304688 757.730469 546.691406 C 762.996094 548.082031 768.21875 549.625 773.394531 551.324219 C 778.566406 553.023438 783.6875 554.875 788.75 556.878906 C 793.816406 558.882812 798.816406 561.035156 803.753906 563.335938 C 808.6875 565.636719 813.554688 568.082031 818.34375 570.671875 Z M 818.34375 570.671875 " fill-opacity="1" fill-rule="nonzero"/><path fill="#c4923a" d="M 1499.886719 146.617188 L 1363.632812 136.257812 L 1353.269531 0 L 1226.335938 126.933594 L 1231.515625 195.320312 L 1203.539062 149.726562 L 1123.496094 229.769531 L 1149.753906 290.933594 L 745.78125 694.90625 C 743.476562 693.765625 741.140625 692.691406 738.773438 691.6875 C 736.40625 690.679688 734.011719 689.746094 731.589844 688.882812 C 729.167969 688.019531 726.722656 687.226562 724.253906 686.507812 C 721.785156 685.785156 719.296875 685.136719 716.789062 684.5625 C 714.28125 683.988281 711.761719 683.488281 709.226562 683.0625 C 706.691406 682.636719 704.144531 682.28125 701.585938 682.007812 C 699.03125 681.730469 696.46875 681.527344 693.898438 681.398438 C 691.332031 681.273438 688.761719 681.222656 686.1875 681.246094 C 683.617188 681.269531 681.050781 681.371094 678.484375 681.542969 C 675.917969 681.71875 673.359375 681.96875 670.808594 682.292969 C 668.257812 682.617188 665.71875 683.019531 663.191406 683.492188 C 660.664062 683.964844 658.152344 684.511719 655.65625 685.136719 C 653.160156 685.757812 650.6875 686.449219 648.230469 687.21875 C 645.777344 687.984375 643.347656 688.820312 640.941406 689.730469 C 638.535156 690.640625 636.160156 691.617188 633.8125 692.667969 C 631.460938 693.714844 629.148438 694.832031 626.863281 696.015625 C 624.582031 697.203125 622.335938 698.453125 620.128906 699.769531 C 617.917969 701.085938 615.75 702.464844 613.621094 703.910156 C 611.492188 705.351562 609.410156 706.859375 607.371094 708.421875 C 605.328125 709.988281 603.335938 711.613281 601.394531 713.296875 C 599.449219 714.980469 597.554688 716.71875 595.710938 718.511719 C 593.871094 720.304688 592.082031 722.152344 590.347656 724.050781 C 588.613281 725.949219 586.9375 727.898438 585.316406 729.894531 C 583.695312 731.894531 582.136719 733.9375 580.636719 736.027344 C 579.136719 738.113281 577.699219 740.246094 576.324219 742.417969 C 574.949219 744.59375 573.640625 746.804688 572.394531 749.054688 C 571.152344 751.304688 569.972656 753.589844 568.863281 755.90625 C 567.75 758.226562 566.707031 760.578125 565.734375 762.957031 C 564.761719 765.339844 563.859375 767.746094 563.027344 770.179688 C 562.195312 772.613281 561.4375 775.066406 560.75 777.546875 C 560.0625 780.023438 559.449219 782.519531 558.90625 785.035156 C 558.367188 787.546875 557.898438 790.074219 557.503906 792.617188 C 557.113281 795.15625 556.796875 797.707031 556.550781 800.269531 C 556.308594 802.828125 556.140625 805.394531 556.046875 807.964844 C 555.957031 810.535156 555.9375 813.105469 555.996094 815.675781 C 556.054688 818.246094 556.1875 820.8125 556.398438 823.375 C 556.605469 825.941406 556.890625 828.496094 557.25 831.039062 C 557.609375 833.585938 558.042969 836.121094 558.550781 838.640625 C 559.058594 841.164062 559.636719 843.667969 560.292969 846.152344 C 560.945312 848.640625 561.675781 851.105469 562.472656 853.550781 C 563.273438 855.996094 564.144531 858.414062 565.085938 860.808594 C 566.023438 863.199219 567.035156 865.5625 568.117188 867.898438 C 569.195312 870.230469 570.34375 872.53125 571.558594 874.796875 C 572.773438 877.066406 574.054688 879.292969 575.398438 881.484375 C 576.746094 883.675781 578.152344 885.828125 579.625 887.933594 C 581.097656 890.042969 582.628906 892.109375 584.222656 894.125 C 585.816406 896.144531 587.464844 898.117188 589.175781 900.039062 C 590.882812 901.960938 592.648438 903.828125 594.464844 905.648438 C 596.285156 907.464844 598.152344 909.230469 600.074219 910.9375 C 601.996094 912.648438 603.96875 914.296875 605.988281 915.890625 C 608.007812 917.484375 610.070312 919.015625 612.179688 920.488281 C 614.285156 921.960938 616.4375 923.367188 618.628906 924.714844 C 620.820312 926.058594 623.050781 927.339844 625.316406 928.554688 C 627.582031 929.769531 629.882812 930.917969 632.214844 931.996094 C 634.550781 933.078125 636.914062 934.089844 639.308594 935.03125 C 641.699219 935.96875 644.117188 936.839844 646.5625 937.640625 C 649.007812 938.4375 651.472656 939.167969 653.960938 939.820312 C 656.445312 940.476562 658.949219 941.054688 661.472656 941.5625 C 663.992188 942.070312 666.527344 942.503906 669.074219 942.863281 C 671.621094 943.222656 674.175781 943.507812 676.738281 943.714844 C 679.300781 943.925781 681.867188 944.058594 684.4375 944.117188 C 687.007812 944.175781 689.578125 944.15625 692.148438 944.066406 C 694.71875 943.972656 697.285156 943.804688 699.84375 943.5625 C 702.40625 943.316406 704.957031 943 707.496094 942.609375 C 710.039062 942.214844 712.566406 941.746094 715.078125 941.207031 C 717.59375 940.664062 720.089844 940.050781 722.566406 939.363281 C 725.046875 938.675781 727.5 937.917969 729.933594 937.085938 C 732.367188 936.253906 734.773438 935.351562 737.15625 934.378906 C 739.535156 933.40625 741.886719 932.363281 744.207031 931.25 C 746.523438 930.140625 748.808594 928.960938 751.058594 927.71875 C 753.308594 926.472656 755.519531 925.164062 757.695312 923.789062 C 759.867188 922.414062 762 920.976562 764.089844 919.476562 C 766.175781 917.976562 768.21875 916.417969 770.21875 914.796875 C 772.214844 913.175781 774.164062 911.5 776.0625 909.765625 C 777.960938 908.03125 779.808594 906.242188 781.601562 904.402344 C 783.394531 902.558594 785.132812 900.664062 786.816406 898.71875 C 788.5 896.777344 790.125 894.785156 791.691406 892.742188 C 793.257812 890.703125 794.761719 888.621094 796.203125 886.492188 C 797.648438 884.363281 799.027344 882.195312 800.34375 879.984375 C 801.660156 877.777344 802.910156 875.53125 804.097656 873.25 C 805.28125 870.964844 806.398438 868.652344 807.445312 866.304688 C 808.496094 863.953125 809.472656 861.578125 810.382812 859.171875 C 811.292969 856.765625 812.128906 854.335938 812.898438 851.882812 C 813.664062 849.425781 814.355469 846.953125 814.980469 844.457031 C 815.601562 841.960938 816.148438 839.449219 816.621094 836.921875 C 817.09375 834.394531 817.496094 831.855469 817.820312 829.304688 C 818.144531 826.753906 818.394531 824.195312 818.570312 821.628906 C 818.742188 819.0625 818.84375 816.496094 818.867188 813.925781 C 818.890625 811.351562 818.839844 808.78125 818.714844 806.214844 C 818.585938 803.644531 818.382812 801.082031 818.109375 798.527344 C 817.832031 795.96875 817.476562 793.421875 817.050781 790.886719 C 816.625 788.351562 816.125 785.832031 815.550781 783.324219 C 814.976562 780.816406 814.328125 778.328125 813.605469 775.859375 C 812.886719 773.390625 812.09375 770.945312 811.230469 768.523438 C 810.367188 766.101562 809.433594 763.707031 808.425781 761.339844 C 807.421875 758.972656 806.347656 756.636719 805.207031 754.332031 L 1209.269531 350.269531 L 1270.113281 376.386719 L 1350.15625 296.34375 L 1304.570312 268.367188 L 1372.953125 273.550781 Z M 1499.886719 146.617188 " fill-opacity="1" fill-rule="nonzero"/></svg>