<svg xmlns="http://www.w3.org/2000/svg" xmlns:xlink="http://www.w3.org/1999/xlink" width="2000" zoomAndPan="magnify" viewBox="0 0 1500 1499.999933" height="2000" preserveAspectRatio="xMidYMid meet" version="1.0"><path fill="#c4923a" d="M 900.746094 550.664062 C 900.746094 548.21875 900.6875 545.773438 900.566406 543.328125 C 900.445312 540.886719 900.265625 538.445312 900.027344 536.011719 C 899.789062 533.574219 899.488281 531.148438 899.128906 528.726562 C 898.769531 526.308594 898.351562 523.898438 897.875 521.496094 C 897.398438 519.097656 896.863281 516.710938 896.265625 514.339844 C 895.671875 511.964844 895.019531 509.609375 894.308594 507.265625 C 893.601562 504.925781 892.832031 502.601562 892.007812 500.296875 C 891.183594 497.996094 890.304688 495.714844 889.367188 493.453125 C 888.429688 491.191406 887.441406 488.957031 886.394531 486.742188 C 885.347656 484.53125 884.246094 482.347656 883.09375 480.191406 C 881.941406 478.03125 880.734375 475.902344 879.476562 473.804688 C 878.21875 471.707031 876.910156 469.640625 875.550781 467.605469 C 874.191406 465.570312 872.785156 463.570312 871.328125 461.605469 C 869.871094 459.640625 868.363281 457.710938 866.8125 455.820312 C 865.261719 453.929688 863.664062 452.078125 862.019531 450.265625 C 860.375 448.453125 858.6875 446.679688 856.960938 444.949219 C 855.230469 443.21875 853.457031 441.535156 851.644531 439.890625 C 849.832031 438.246094 847.980469 436.648438 846.089844 435.097656 C 844.199219 433.546875 842.269531 432.039062 840.304688 430.582031 C 838.339844 429.125 836.339844 427.71875 834.304688 426.359375 C 832.269531 425 830.203125 423.691406 828.105469 422.433594 C 826.007812 421.175781 823.878906 419.96875 821.71875 418.816406 C 819.5625 417.664062 817.378906 416.5625 815.164062 415.515625 C 812.953125 414.46875 810.71875 413.480469 808.457031 412.542969 C 806.195312 411.605469 803.914062 410.726562 801.609375 409.902344 C 799.308594 409.078125 796.984375 408.308594 794.644531 407.601562 C 792.300781 406.890625 789.945312 406.238281 787.570312 405.644531 C 785.199219 405.046875 782.8125 404.511719 780.410156 404.035156 C 778.011719 403.558594 775.601562 403.140625 773.183594 402.78125 C 770.761719 402.421875 768.335938 402.121094 765.898438 401.882812 C 763.464844 401.644531 761.023438 401.464844 758.582031 401.34375 C 756.136719 401.222656 753.691406 401.164062 751.246094 401.164062 C 748.800781 401.164062 746.355469 401.222656 743.910156 401.34375 C 741.464844 401.464844 739.027344 401.644531 736.59375 401.882812 C 734.15625 402.121094 731.730469 402.421875 729.308594 402.78125 C 726.890625 403.140625 724.480469 403.558594 722.078125 404.035156 C 719.679688 404.511719 717.292969 405.046875 714.917969 405.644531 C 712.546875 406.238281 710.1875 406.890625 707.847656 407.601562 C 705.507812 408.308594 703.183594 409.078125 700.878906 409.902344 C 698.578125 410.726562 696.292969 411.605469 694.035156 412.542969 C 691.773438 413.480469 689.539062 414.46875 687.324219 415.515625 C 685.113281 416.5625 682.929688 417.664062 680.769531 418.816406 C 678.613281 419.96875 676.484375 421.175781 674.386719 422.433594 C 672.289062 423.691406 670.222656 425 668.1875 426.359375 C 666.152344 427.71875 664.152344 429.125 662.1875 430.582031 C 660.222656 432.039062 658.292969 433.546875 656.402344 435.097656 C 654.511719 436.648438 652.660156 438.246094 650.847656 439.890625 C 649.035156 441.535156 647.261719 443.21875 645.53125 444.949219 C 643.800781 446.679688 642.117188 448.453125 640.472656 450.265625 C 638.828125 452.078125 637.230469 453.929688 635.679688 455.820312 C 634.128906 457.710938 632.621094 459.640625 631.164062 461.605469 C 629.707031 463.570312 628.300781 465.570312 626.941406 467.605469 C 625.582031 469.640625 624.273438 471.707031 623.015625 473.804688 C 621.757812 475.902344 620.550781 478.03125 619.398438 480.191406 C 618.242188 482.347656 617.144531 484.53125 616.097656 486.742188 C 615.050781 488.957031 614.058594 491.191406 613.125 493.453125 C 612.1875 495.714844 611.308594 497.996094 610.484375 500.296875 C 609.660156 502.601562 608.890625 504.925781 608.179688 507.265625 C 607.472656 509.609375 606.820312 511.964844 606.222656 514.339844 C 605.628906 516.710938 605.09375 519.097656 604.617188 521.496094 C 604.140625 523.898438 603.722656 526.308594 603.363281 528.726562 C 603.003906 531.148438 602.703125 533.574219 602.464844 536.011719 C 602.222656 538.445312 602.042969 540.886719 601.925781 543.328125 C 601.804688 545.773438 601.746094 548.21875 601.746094 550.664062 C 601.746094 553.109375 601.804688 555.554688 601.925781 558 C 602.042969 560.445312 602.222656 562.882812 602.464844 565.316406 C 602.703125 567.753906 603.003906 570.179688 603.363281 572.601562 C 603.722656 575.019531 604.140625 577.429688 604.617188 579.832031 C 605.09375 582.230469 605.628906 584.617188 606.222656 586.992188 C 606.820312 589.363281 607.472656 591.722656 608.179688 594.0625 C 608.890625 596.402344 609.660156 598.726562 610.484375 601.03125 C 611.308594 603.332031 612.1875 605.617188 613.125 607.875 C 614.058594 610.136719 615.050781 612.371094 616.097656 614.585938 C 617.144531 616.796875 618.242188 618.980469 619.398438 621.140625 C 620.550781 623.296875 621.757812 625.425781 623.015625 627.523438 C 624.273438 629.621094 625.582031 631.6875 626.941406 633.722656 C 628.300781 635.757812 629.707031 637.757812 631.164062 639.722656 C 632.621094 641.6875 634.128906 643.617188 635.679688 645.507812 C 637.230469 647.398438 638.828125 649.25 640.472656 651.0625 C 642.117188 652.875 643.800781 654.648438 645.53125 656.378906 C 647.261719 658.109375 649.035156 659.792969 650.847656 661.4375 C 652.660156 663.082031 654.511719 664.679688 656.402344 666.230469 C 658.292969 667.78125 660.222656 669.289062 662.1875 670.746094 C 664.152344 672.203125 666.152344 673.609375 668.1875 674.96875 C 670.222656 676.328125 672.289062 677.636719 674.386719 678.894531 C 676.484375 680.152344 678.613281 681.359375 680.769531 682.511719 C 682.929688 683.667969 685.113281 684.765625 687.324219 685.8125 C 689.539062 686.859375 691.773438 687.847656 694.035156 688.785156 C 696.292969 689.722656 698.578125 690.601562 700.878906 691.425781 C 703.183594 692.25 705.507812 693.019531 707.847656 693.726562 C 710.1875 694.4375 712.546875 695.089844 714.917969 695.683594 C 717.292969 696.28125 719.679688 696.816406 722.078125 697.292969 C 724.480469 697.769531 726.890625 698.1875 729.308594 698.546875 C 731.730469 698.90625 734.15625 699.207031 736.59375 699.445312 C 739.027344 699.6875 741.464844 699.867188 743.910156 699.984375 C 746.355469 700.105469 748.800781 700.164062 751.246094 700.164062 C 753.691406 700.164062 756.136719 700.101562 758.578125 699.980469 C 761.023438 699.855469 763.460938 699.675781 765.894531 699.433594 C 768.328125 699.191406 770.753906 698.890625 773.175781 698.527344 C 775.59375 698.167969 778.003906 697.746094 780.402344 697.269531 C 782.800781 696.789062 785.1875 696.253906 787.558594 695.65625 C 789.929688 695.058594 792.285156 694.40625 794.628906 693.695312 C 796.96875 692.984375 799.289062 692.214844 801.589844 691.390625 C 803.894531 690.566406 806.175781 689.683594 808.433594 688.746094 C 810.695312 687.808594 812.929688 686.816406 815.140625 685.769531 C 817.351562 684.722656 819.535156 683.621094 821.691406 682.46875 C 823.847656 681.316406 825.976562 680.109375 828.074219 678.851562 C 830.171875 677.59375 832.234375 676.285156 834.269531 674.925781 C 836.300781 673.566406 838.300781 672.15625 840.265625 670.699219 C 842.230469 669.242188 844.15625 667.738281 846.046875 666.183594 C 847.9375 664.632812 849.789062 663.035156 851.601562 661.394531 C 853.414062 659.75 855.1875 658.0625 856.914062 656.335938 C 858.644531 654.605469 860.332031 652.832031 861.972656 651.023438 C 863.617188 649.210938 865.214844 647.359375 866.765625 645.46875 C 868.320312 643.578125 869.824219 641.648438 871.28125 639.683594 C 872.738281 637.71875 874.148438 635.722656 875.507812 633.6875 C 876.867188 631.65625 878.175781 629.589844 879.433594 627.492188 C 880.691406 625.394531 881.898438 623.265625 883.050781 621.109375 C 884.203125 618.953125 885.304688 616.769531 886.351562 614.558594 C 887.398438 612.347656 888.390625 610.113281 889.328125 607.851562 C 890.265625 605.59375 891.144531 603.3125 891.972656 601.011719 C 892.796875 598.707031 893.566406 596.386719 894.277344 594.046875 C 894.988281 591.707031 895.640625 589.347656 896.238281 586.976562 C 896.832031 584.605469 897.371094 582.21875 897.851562 579.820312 C 898.328125 577.421875 898.75 575.011719 899.109375 572.59375 C 899.472656 570.175781 899.773438 567.746094 900.015625 565.3125 C 900.257812 562.878906 900.4375 560.441406 900.558594 557.996094 C 900.683594 555.554688 900.746094 553.109375 900.746094 550.664062 Z M 651.578125 550.664062 C 651.578125 549.035156 651.617188 547.402344 651.699219 545.773438 C 651.777344 544.144531 651.898438 542.519531 652.058594 540.894531 C 652.21875 539.273438 652.417969 537.652344 652.65625 536.039062 C 652.894531 534.425781 653.175781 532.820312 653.492188 531.21875 C 653.8125 529.621094 654.167969 528.03125 654.566406 526.445312 C 654.960938 524.863281 655.394531 523.292969 655.871094 521.730469 C 656.34375 520.171875 656.855469 518.625 657.402344 517.085938 C 657.953125 515.550781 658.539062 514.03125 659.164062 512.523438 C 659.789062 511.015625 660.449219 509.523438 661.148438 508.050781 C 661.84375 506.578125 662.578125 505.121094 663.347656 503.679688 C 664.117188 502.242188 664.917969 500.824219 665.757812 499.425781 C 666.597656 498.027344 667.46875 496.648438 668.375 495.292969 C 669.28125 493.9375 670.21875 492.601562 671.191406 491.292969 C 672.164062 489.980469 673.167969 488.695312 674.203125 487.4375 C 675.238281 486.175781 676.300781 484.941406 677.398438 483.730469 C 678.492188 482.523438 679.617188 481.34375 680.769531 480.1875 C 681.921875 479.035156 683.105469 477.910156 684.3125 476.816406 C 685.523438 475.71875 686.757812 474.65625 688.015625 473.621094 C 689.277344 472.585938 690.5625 471.582031 691.875 470.609375 C 693.183594 469.640625 694.515625 468.699219 695.875 467.792969 C 697.230469 466.886719 698.605469 466.015625 700.007812 465.175781 C 701.40625 464.335938 702.824219 463.535156 704.261719 462.765625 C 705.703125 461.996094 707.15625 461.261719 708.632812 460.566406 C 710.105469 459.867188 711.597656 459.207031 713.105469 458.582031 C 714.613281 457.960938 716.132812 457.371094 717.667969 456.824219 C 719.203125 456.273438 720.753906 455.761719 722.3125 455.289062 C 723.875 454.816406 725.445312 454.378906 727.027344 453.984375 C 728.609375 453.585938 730.203125 453.230469 731.800781 452.910156 C 733.402344 452.59375 735.007812 452.316406 736.621094 452.074219 C 738.234375 451.835938 739.851562 451.636719 741.476562 451.476562 C 743.101562 451.316406 744.726562 451.195312 746.355469 451.117188 C 747.984375 451.035156 749.613281 450.996094 751.246094 450.996094 C 752.875 450.996094 754.507812 451.035156 756.136719 451.117188 C 757.765625 451.195312 759.390625 451.316406 761.015625 451.476562 C 762.636719 451.636719 764.257812 451.835938 765.871094 452.074219 C 767.484375 452.316406 769.089844 452.59375 770.691406 452.910156 C 772.289062 453.230469 773.878906 453.585938 775.464844 453.984375 C 777.046875 454.378906 778.617188 454.816406 780.179688 455.289062 C 781.738281 455.761719 783.285156 456.273438 784.824219 456.824219 C 786.359375 457.371094 787.878906 457.960938 789.386719 458.582031 C 790.894531 459.207031 792.382812 459.867188 793.859375 460.566406 C 795.332031 461.261719 796.789062 461.996094 798.230469 462.765625 C 799.667969 463.535156 801.085938 464.335938 802.484375 465.175781 C 803.882812 466.015625 805.261719 466.886719 806.617188 467.792969 C 807.972656 468.699219 809.308594 469.640625 810.617188 470.609375 C 811.929688 471.582031 813.214844 472.585938 814.472656 473.621094 C 815.734375 474.65625 816.96875 475.71875 818.179688 476.816406 C 819.386719 477.910156 820.566406 479.035156 821.722656 480.1875 C 822.875 481.34375 824 482.523438 825.09375 483.730469 C 826.191406 484.941406 827.253906 486.175781 828.289062 487.4375 C 829.324219 488.695312 830.328125 489.980469 831.300781 491.292969 C 832.269531 492.601562 833.210938 493.9375 834.117188 495.292969 C 835.023438 496.648438 835.894531 498.027344 836.734375 499.425781 C 837.570312 500.824219 838.375 502.242188 839.144531 503.679688 C 839.914062 505.121094 840.648438 506.578125 841.34375 508.050781 C 842.042969 509.523438 842.703125 511.015625 843.328125 512.523438 C 843.949219 514.03125 844.539062 515.550781 845.085938 517.085938 C 845.636719 518.625 846.148438 520.171875 846.621094 521.730469 C 847.09375 523.292969 847.53125 524.863281 847.925781 526.445312 C 848.324219 528.03125 848.679688 529.621094 849 531.21875 C 849.316406 532.820312 849.59375 534.425781 849.835938 536.039062 C 850.074219 537.652344 850.273438 539.273438 850.433594 540.894531 C 850.59375 542.519531 850.714844 544.144531 850.792969 545.773438 C 850.875 547.402344 850.914062 549.035156 850.914062 550.664062 C 850.914062 552.296875 850.875 553.925781 850.792969 555.554688 C 850.714844 557.183594 850.59375 558.808594 850.433594 560.433594 C 850.273438 562.058594 850.074219 563.675781 849.835938 565.289062 C 849.59375 566.902344 849.316406 568.507812 849 570.109375 C 848.679688 571.707031 848.324219 573.300781 847.925781 574.882812 C 847.53125 576.464844 847.09375 578.035156 846.621094 579.597656 C 846.148438 581.15625 845.636719 582.707031 845.085938 584.242188 C 844.539062 585.777344 843.949219 587.296875 843.328125 588.804688 C 842.703125 590.3125 842.042969 591.804688 841.34375 593.277344 C 840.648438 594.753906 839.914062 596.207031 839.144531 597.648438 C 838.375 599.085938 837.570312 600.503906 836.734375 601.902344 C 835.894531 603.304688 835.023438 604.679688 834.117188 606.035156 C 833.210938 607.394531 832.269531 608.726562 831.300781 610.035156 C 830.328125 611.347656 829.324219 612.632812 828.289062 613.894531 C 827.253906 615.152344 826.191406 616.386719 825.09375 617.597656 C 824 618.804688 822.875 619.988281 821.722656 621.140625 C 820.566406 622.292969 819.386719 623.417969 818.179688 624.511719 C 816.96875 625.609375 815.734375 626.671875 814.472656 627.707031 C 813.214844 628.742188 811.929688 629.746094 810.617188 630.71875 C 809.308594 631.691406 807.972656 632.628906 806.617188 633.535156 C 805.261719 634.441406 803.882812 635.3125 802.484375 636.152344 C 801.085938 636.992188 799.667969 637.792969 798.230469 638.5625 C 796.789062 639.332031 795.332031 640.066406 793.859375 640.761719 C 792.382812 641.460938 790.894531 642.121094 789.386719 642.746094 C 787.878906 643.371094 786.359375 643.957031 784.824219 644.507812 C 783.285156 645.054688 781.738281 645.566406 780.179688 646.039062 C 778.617188 646.515625 777.046875 646.949219 775.464844 647.34375 C 773.878906 647.742188 772.289062 648.097656 770.691406 648.417969 C 769.089844 648.734375 767.484375 649.015625 765.871094 649.253906 C 764.257812 649.492188 762.636719 649.691406 761.015625 649.851562 C 759.390625 650.011719 757.765625 650.132812 756.136719 650.210938 C 754.507812 650.292969 752.875 650.332031 751.246094 650.332031 C 749.613281 650.332031 747.984375 650.292969 746.355469 650.210938 C 744.726562 650.132812 743.101562 650.011719 741.476562 649.851562 C 739.851562 649.691406 738.234375 649.492188 736.621094 649.253906 C 735.007812 649.015625 733.402344 648.734375 731.800781 648.417969 C 730.203125 648.097656 728.609375 647.742188 727.027344 647.34375 C 725.445312 646.949219 723.875 646.515625 722.3125 646.039062 C 720.753906 645.566406 719.203125 645.054688 717.667969 644.507812 C 716.132812 643.957031 714.613281 643.371094 713.105469 642.746094 C 711.597656 642.121094 710.105469 641.460938 708.632812 640.761719 C 707.15625 640.066406 705.703125 639.332031 704.261719 638.5625 C 702.824219 637.792969 701.40625 636.992188 700.007812 636.152344 C 698.605469 635.3125 697.230469 634.441406 695.875 633.535156 C 694.515625 632.628906 693.183594 631.691406 691.875 630.71875 C 690.5625 629.746094 689.277344 628.742188 688.015625 627.707031 C 686.757812 626.671875 685.523438 625.609375 684.3125 624.511719 C 683.105469 623.417969 681.921875 622.292969 680.769531 621.140625 C 679.617188 619.988281 678.492188 618.804688 677.398438 617.597656 C 676.300781 616.386719 675.238281 615.152344 674.203125 613.894531 C 673.167969 612.632812 672.164062 611.347656 671.191406 610.035156 C 670.21875 608.726562 669.28125 607.394531 668.375 606.035156 C 667.46875 604.679688 666.597656 603.304688 665.757812 601.902344 C 664.917969 600.503906 664.117188 599.085938 663.347656 597.648438 C 662.578125 596.207031 661.84375 594.753906 661.148438 593.277344 C 660.449219 591.804688 659.789062 590.3125 659.164062 588.804688 C 658.539062 587.296875 657.953125 585.777344 657.402344 584.242188 C 656.855469 582.707031 656.34375 581.15625 655.871094 579.597656 C 655.394531 578.035156 654.960938 576.464844 654.566406 574.882812 C 654.167969 573.300781 653.8125 571.707031 653.492188 570.109375 C 653.175781 568.507812 652.894531 566.902344 652.65625 565.289062 C 652.417969 563.675781 652.21875 562.058594 652.058594 560.433594 C 651.898438 558.808594 651.777344 557.183594 651.699219 555.554688 C 651.617188 553.925781 651.578125 552.296875 651.578125 550.664062 Z M 651.578125 550.664062 " fill-opacity="1" fill-rule="nonzero"/><path fill="#c4923a" d="M 377.492188 1198.503906 L 526.992188 1198.503906 C 528.625 1198.503906 530.253906 1198.425781 531.878906 1198.265625 C 533.503906 1198.105469 535.113281 1197.867188 536.714844 1197.546875 C 538.316406 1197.230469 539.898438 1196.832031 541.460938 1196.359375 C 543.019531 1195.886719 544.554688 1195.335938 546.0625 1194.710938 C 547.570312 1194.085938 549.046875 1193.390625 550.484375 1192.621094 C 551.925781 1191.851562 553.324219 1191.011719 554.679688 1190.105469 C 556.035156 1189.199219 557.347656 1188.226562 558.609375 1187.191406 C 559.871094 1186.15625 561.078125 1185.0625 562.230469 1183.910156 C 563.386719 1182.753906 564.480469 1181.546875 565.515625 1180.285156 C 566.550781 1179.023438 567.523438 1177.714844 568.429688 1176.355469 C 569.335938 1175 570.171875 1173.601562 570.941406 1172.164062 C 571.710938 1170.722656 572.410156 1169.25 573.035156 1167.742188 C 573.660156 1166.234375 574.207031 1164.699219 574.679688 1163.136719 C 575.15625 1161.574219 575.550781 1159.992188 575.871094 1158.394531 C 576.1875 1156.792969 576.425781 1155.179688 576.585938 1153.554688 C 576.746094 1151.929688 576.828125 1150.304688 576.828125 1148.671875 L 576.828125 1049.003906 C 576.828125 1047.371094 576.746094 1045.742188 576.585938 1044.117188 C 576.425781 1042.496094 576.1875 1040.882812 575.871094 1039.28125 C 575.550781 1037.679688 575.15625 1036.097656 574.679688 1034.535156 C 574.207031 1032.976562 573.660156 1031.441406 573.035156 1029.933594 C 572.410156 1028.425781 571.710938 1026.949219 570.941406 1025.511719 C 570.171875 1024.070312 569.335938 1022.675781 568.429688 1021.316406 C 567.523438 1019.960938 566.550781 1018.648438 565.515625 1017.390625 C 564.480469 1016.128906 563.386719 1014.917969 562.230469 1013.765625 C 561.078125 1012.609375 559.871094 1011.515625 558.609375 1010.480469 C 557.347656 1009.445312 556.035156 1008.476562 554.679688 1007.566406 C 553.324219 1006.660156 551.925781 1005.824219 550.484375 1005.054688 C 549.046875 1004.285156 547.570312 1003.585938 546.0625 1002.960938 C 544.554688 1002.339844 543.019531 1001.789062 541.460938 1001.316406 C 539.898438 1000.839844 538.316406 1000.445312 536.714844 1000.125 C 535.113281 999.808594 533.503906 999.570312 531.878906 999.410156 C 530.253906 999.25 528.625 999.167969 526.992188 999.167969 L 477.160156 999.167969 L 477.160156 974.253906 C 477.160156 973.4375 477.199219 972.621094 477.28125 971.808594 C 477.359375 971 477.480469 970.191406 477.636719 969.390625 C 477.796875 968.589844 477.996094 967.800781 478.234375 967.019531 C 478.46875 966.238281 478.742188 965.472656 479.054688 964.71875 C 479.367188 963.964844 479.71875 963.226562 480.101562 962.507812 C 480.488281 961.785156 480.90625 961.085938 481.359375 960.410156 C 481.8125 959.730469 482.296875 959.074219 482.816406 958.445312 C 483.332031 957.8125 483.878906 957.210938 484.457031 956.632812 C 485.035156 956.054688 485.636719 955.507812 486.269531 954.992188 C 486.898438 954.472656 487.554688 953.988281 488.234375 953.535156 C 488.910156 953.082031 489.609375 952.664062 490.332031 952.277344 C 491.050781 951.894531 491.789062 951.542969 492.542969 951.230469 C 493.296875 950.917969 494.0625 950.644531 494.84375 950.410156 C 495.625 950.171875 496.414062 949.972656 497.214844 949.8125 C 498.015625 949.65625 498.820312 949.535156 499.632812 949.457031 C 500.445312 949.375 501.261719 949.335938 502.078125 949.335938 L 726.328125 949.335938 L 726.328125 999.167969 L 676.496094 999.167969 C 674.863281 999.167969 673.234375 999.25 671.609375 999.410156 C 669.984375 999.570312 668.375 999.808594 666.773438 1000.125 C 665.171875 1000.445312 663.589844 1000.839844 662.027344 1001.316406 C 660.46875 1001.789062 658.933594 1002.339844 657.425781 1002.960938 C 655.917969 1003.585938 654.441406 1004.285156 653.003906 1005.054688 C 651.5625 1005.824219 650.164062 1006.660156 648.808594 1007.566406 C 647.453125 1008.476562 646.140625 1009.445312 644.878906 1010.480469 C 643.617188 1011.515625 642.410156 1012.609375 641.257812 1013.765625 C 640.101562 1014.917969 639.007812 1016.128906 637.972656 1017.390625 C 636.9375 1018.652344 635.964844 1019.960938 635.058594 1021.316406 C 634.152344 1022.675781 633.316406 1024.074219 632.546875 1025.511719 C 631.777344 1026.949219 631.078125 1028.425781 630.453125 1029.933594 C 629.828125 1031.441406 629.28125 1032.976562 628.808594 1034.539062 C 628.332031 1036.097656 627.9375 1037.679688 627.617188 1039.28125 C 627.300781 1040.882812 627.0625 1042.496094 626.902344 1044.117188 C 626.742188 1045.742188 626.660156 1047.371094 626.660156 1049.003906 L 626.660156 1148.671875 C 626.660156 1150.304688 626.742188 1151.929688 626.902344 1153.554688 C 627.0625 1155.179688 627.300781 1156.792969 627.617188 1158.394531 C 627.9375 1159.992188 628.332031 1161.574219 628.808594 1163.136719 C 629.28125 1164.699219 629.828125 1166.234375 630.453125 1167.742188 C 631.078125 1169.25 631.777344 1170.722656 632.546875 1172.164062 C 633.316406 1173.601562 634.152344 1175 635.058594 1176.355469 C 635.964844 1177.714844 636.9375 1179.023438 637.972656 1180.285156 C 639.007812 1181.546875 640.101562 1182.753906 641.257812 1183.910156 C 642.410156 1185.0625 643.617188 1186.15625 644.878906 1187.191406 C 646.140625 1188.226562 647.453125 1189.199219 648.808594 1190.105469 C 650.164062 1191.011719 651.5625 1191.851562 653.003906 1192.621094 C 654.441406 1193.390625 655.917969 1194.085938 657.425781 1194.710938 C 658.933594 1195.335938 660.46875 1195.886719 662.027344 1196.359375 C 663.589844 1196.832031 665.171875 1197.230469 666.773438 1197.546875 C 668.375 1197.867188 669.984375 1198.105469 671.609375 1198.265625 C 673.234375 1198.425781 674.863281 1198.503906 676.496094 1198.503906 L 825.996094 1198.503906 C 827.628906 1198.503906 829.257812 1198.425781 830.882812 1198.265625 C 832.503906 1198.105469 834.117188 1197.867188 835.71875 1197.546875 C 837.320312 1197.230469 838.902344 1196.832031 840.460938 1196.359375 C 842.023438 1195.886719 843.558594 1195.335938 845.066406 1194.710938 C 846.574219 1194.085938 848.046875 1193.390625 849.488281 1192.621094 C 850.925781 1191.851562 852.324219 1191.011719 853.683594 1190.105469 C 855.039062 1189.199219 856.347656 1188.226562 857.609375 1187.191406 C 858.871094 1186.15625 860.082031 1185.0625 861.234375 1183.910156 C 862.386719 1182.753906 863.484375 1181.546875 864.519531 1180.285156 C 865.554688 1179.023438 866.523438 1177.714844 867.433594 1176.355469 C 868.339844 1175 869.175781 1173.601562 869.945312 1172.164062 C 870.714844 1170.722656 871.414062 1169.25 872.035156 1167.742188 C 872.660156 1166.234375 873.210938 1164.699219 873.683594 1163.136719 C 874.160156 1161.574219 874.554688 1159.992188 874.871094 1158.394531 C 875.191406 1156.792969 875.429688 1155.179688 875.589844 1153.554688 C 875.75 1151.929688 875.832031 1150.304688 875.832031 1148.671875 L 875.832031 1049.003906 C 875.832031 1047.371094 875.75 1045.742188 875.589844 1044.117188 C 875.429688 1042.496094 875.191406 1040.882812 874.871094 1039.28125 C 874.554688 1037.679688 874.160156 1036.097656 873.683594 1034.535156 C 873.210938 1032.976562 872.660156 1031.441406 872.035156 1029.933594 C 871.414062 1028.425781 870.714844 1026.949219 869.945312 1025.511719 C 869.175781 1024.070312 868.339844 1022.675781 867.433594 1021.316406 C 866.523438 1019.960938 865.554688 1018.648438 864.519531 1017.390625 C 863.484375 1016.128906 862.386719 1014.917969 861.234375 1013.765625 C 860.082031 1012.609375 858.871094 1011.515625 857.609375 1010.480469 C 856.347656 1009.445312 855.039062 1008.476562 853.683594 1007.566406 C 852.324219 1006.660156 850.925781 1005.824219 849.488281 1005.054688 C 848.046875 1004.285156 846.574219 1003.585938 845.066406 1002.960938 C 843.558594 1002.339844 842.023438 1001.789062 840.460938 1001.316406 C 838.902344 1000.839844 837.320312 1000.445312 835.71875 1000.125 C 834.117188 999.808594 832.503906 999.570312 830.882812 999.410156 C 829.257812 999.25 827.628906 999.167969 825.996094 999.167969 L 776.164062 999.167969 L 776.164062 949.335938 L 1000.414062 949.335938 C 1001.230469 949.335938 1002.046875 949.375 1002.859375 949.457031 C 1003.667969 949.535156 1004.476562 949.65625 1005.277344 949.8125 C 1006.078125 949.972656 1006.867188 950.171875 1007.648438 950.410156 C 1008.429688 950.644531 1009.195312 950.917969 1009.949219 951.230469 C 1010.703125 951.542969 1011.441406 951.894531 1012.160156 952.277344 C 1012.878906 952.664062 1013.578125 953.082031 1014.257812 953.535156 C 1014.9375 953.988281 1015.589844 954.472656 1016.222656 954.992188 C 1016.851562 955.507812 1017.457031 956.054688 1018.035156 956.632812 C 1018.609375 957.210938 1019.160156 957.8125 1019.675781 958.445312 C 1020.195312 959.074219 1020.679688 959.730469 1021.132812 960.410156 C 1021.585938 961.085938 1022.003906 961.785156 1022.390625 962.507812 C 1022.773438 963.226562 1023.125 963.964844 1023.433594 964.71875 C 1023.746094 965.472656 1024.023438 966.238281 1024.257812 967.019531 C 1024.496094 967.800781 1024.695312 968.589844 1024.851562 969.390625 C 1025.011719 970.191406 1025.132812 970.996094 1025.210938 971.808594 C 1025.292969 972.621094 1025.332031 973.4375 1025.332031 974.253906 L 1025.332031 999.167969 L 975.5 999.167969 C 973.867188 999.167969 972.238281 999.25 970.613281 999.410156 C 968.988281 999.570312 967.375 999.808594 965.777344 1000.125 C 964.175781 1000.445312 962.59375 1000.839844 961.03125 1001.316406 C 959.46875 1001.789062 957.9375 1002.339844 956.425781 1002.960938 C 954.917969 1003.585938 953.445312 1004.285156 952.007812 1005.054688 C 950.566406 1005.824219 949.167969 1006.660156 947.8125 1007.566406 C 946.453125 1008.476562 945.144531 1009.445312 943.882812 1010.480469 C 942.621094 1011.515625 941.414062 1012.609375 940.261719 1013.765625 C 939.105469 1014.917969 938.011719 1016.128906 936.976562 1017.390625 C 935.941406 1018.652344 934.96875 1019.960938 934.0625 1021.316406 C 933.15625 1022.675781 932.316406 1024.074219 931.546875 1025.511719 C 930.78125 1026.949219 930.082031 1028.425781 929.457031 1029.933594 C 928.832031 1031.441406 928.285156 1032.976562 927.808594 1034.539062 C 927.335938 1036.097656 926.941406 1037.679688 926.621094 1039.28125 C 926.304688 1040.882812 926.0625 1042.496094 925.90625 1044.117188 C 925.746094 1045.742188 925.664062 1047.371094 925.664062 1049.003906 L 925.664062 1148.671875 C 925.664062 1150.304688 925.746094 1151.929688 925.90625 1153.554688 C 926.0625 1155.179688 926.304688 1156.792969 926.621094 1158.394531 C 926.941406 1159.992188 927.335938 1161.574219 927.808594 1163.136719 C 928.285156 1164.699219 928.832031 1166.234375 929.457031 1167.742188 C 930.082031 1169.25 930.777344 1170.722656 931.546875 1172.164062 C 932.316406 1173.601562 933.15625 1175 934.0625 1176.355469 C 934.96875 1177.714844 935.941406 1179.023438 936.976562 1180.285156 C 938.011719 1181.546875 939.105469 1182.753906 940.261719 1183.910156 C 941.414062 1185.0625 942.621094 1186.15625 943.882812 1187.191406 C 945.144531 1188.226562 946.453125 1189.199219 947.8125 1190.105469 C 949.167969 1191.011719 950.566406 1191.851562 952.007812 1192.621094 C 953.445312 1193.390625 954.917969 1194.085938 956.425781 1194.710938 C 957.933594 1195.335938 959.46875 1195.886719 961.03125 1196.359375 C 962.59375 1196.832031 964.175781 1197.230469 965.777344 1197.546875 C 967.375 1197.867188 968.988281 1198.105469 970.613281 1198.265625 C 972.238281 1198.425781 973.867188 1198.503906 975.5 1198.503906 L 1125 1198.503906 C 1126.632812 1198.503906 1128.261719 1198.425781 1129.882812 1198.265625 C 1131.507812 1198.105469 1133.121094 1197.867188 1134.722656 1197.546875 C 1136.324219 1197.230469 1137.902344 1196.832031 1139.464844 1196.359375 C 1141.027344 1195.886719 1142.5625 1195.335938 1144.070312 1194.710938 C 1145.578125 1194.085938 1147.050781 1193.390625 1148.492188 1192.621094 C 1149.929688 1191.851562 1151.328125 1191.011719 1152.6875 1190.105469 C 1154.042969 1189.199219 1155.351562 1188.226562 1156.613281 1187.191406 C 1157.875 1186.15625 1159.082031 1185.0625 1160.238281 1183.910156 C 1161.390625 1182.753906 1162.488281 1181.546875 1163.523438 1180.285156 C 1164.558594 1179.023438 1165.527344 1177.714844 1166.433594 1176.355469 C 1167.34375 1175 1168.179688 1173.601562 1168.949219 1172.164062 C 1169.71875 1170.722656 1170.414062 1169.25 1171.039062 1167.742188 C 1171.664062 1166.234375 1172.214844 1164.699219 1172.6875 1163.136719 C 1173.160156 1161.574219 1173.558594 1159.992188 1173.875 1158.394531 C 1174.195312 1156.792969 1174.433594 1155.179688 1174.59375 1153.554688 C 1174.753906 1151.929688 1174.832031 1150.304688 1174.832031 1148.671875 L 1174.832031 1049.003906 C 1174.832031 1047.371094 1174.753906 1045.742188 1174.59375 1044.117188 C 1174.433594 1042.496094 1174.195312 1040.882812 1173.875 1039.28125 C 1173.558594 1037.679688 1173.160156 1036.097656 1172.6875 1034.535156 C 1172.214844 1032.976562 1171.664062 1031.441406 1171.039062 1029.933594 C 1170.414062 1028.425781 1169.71875 1026.949219 1168.949219 1025.511719 C 1168.179688 1024.070312 1167.34375 1022.675781 1166.433594 1021.316406 C 1165.527344 1019.960938 1164.558594 1018.648438 1163.523438 1017.390625 C 1162.488281 1016.128906 1161.390625 1014.917969 1160.238281 1013.765625 C 1159.082031 1012.609375 1157.875 1011.515625 1156.613281 1010.480469 C 1155.351562 1009.445312 1154.042969 1008.476562 1152.6875 1007.566406 C 1151.328125 1006.660156 1149.929688 1005.824219 1148.492188 1005.054688 C 1147.050781 1004.285156 1145.578125 1003.585938 1144.070312 1002.960938 C 1142.5625 1002.339844 1141.027344 1001.789062 1139.464844 1001.316406 C 1137.902344 1000.839844 1136.324219 1000.445312 1134.722656 1000.125 C 1133.121094 999.808594 1131.507812 999.570312 1129.882812 999.410156 C 1128.261719 999.25 1126.632812 999.167969 1125 999.167969 L 1075.167969 999.167969 L 1075.167969 974.253906 C 1075.167969 973.027344 1075.136719 971.804688 1075.074219 970.585938 C 1075.015625 969.363281 1074.925781 968.144531 1074.804688 966.925781 C 1074.6875 965.707031 1074.535156 964.496094 1074.355469 963.285156 C 1074.175781 962.074219 1073.96875 960.867188 1073.730469 959.667969 C 1073.492188 958.46875 1073.222656 957.277344 1072.925781 956.089844 C 1072.628906 954.902344 1072.300781 953.722656 1071.949219 952.554688 C 1071.59375 951.382812 1071.207031 950.222656 1070.796875 949.070312 C 1070.382812 947.917969 1069.945312 946.777344 1069.476562 945.644531 C 1069.007812 944.515625 1068.511719 943.398438 1067.988281 942.292969 C 1067.464844 941.1875 1066.917969 940.09375 1066.339844 939.015625 C 1065.761719 937.9375 1065.160156 936.871094 1064.53125 935.824219 C 1063.902344 934.773438 1063.246094 933.738281 1062.566406 932.722656 C 1061.886719 931.707031 1061.183594 930.707031 1060.457031 929.722656 C 1059.726562 928.742188 1058.972656 927.777344 1058.199219 926.832031 C 1057.421875 925.886719 1056.625 924.960938 1055.800781 924.050781 C 1054.980469 923.144531 1054.136719 922.261719 1053.273438 921.394531 C 1052.40625 920.53125 1051.519531 919.6875 1050.613281 918.867188 C 1049.707031 918.042969 1048.78125 917.246094 1047.835938 916.46875 C 1046.890625 915.691406 1045.925781 914.941406 1044.945312 914.210938 C 1043.960938 913.484375 1042.960938 912.777344 1041.945312 912.097656 C 1040.925781 911.417969 1039.894531 910.765625 1038.84375 910.136719 C 1037.796875 909.507812 1036.730469 908.90625 1035.652344 908.328125 C 1034.574219 907.75 1033.480469 907.203125 1032.375 906.679688 C 1031.269531 906.15625 1030.152344 905.660156 1029.019531 905.191406 C 1027.890625 904.722656 1026.75 904.285156 1025.597656 903.871094 C 1024.445312 903.457031 1023.285156 903.074219 1022.113281 902.71875 C 1020.945312 902.363281 1019.765625 902.039062 1018.578125 901.742188 C 1017.390625 901.445312 1016.199219 901.175781 1015 900.9375 C 1013.796875 900.699219 1012.59375 900.488281 1011.382812 900.3125 C 1010.171875 900.132812 1008.960938 899.980469 1007.742188 899.863281 C 1006.523438 899.742188 1005.304688 899.652344 1004.082031 899.589844 C 1002.859375 899.53125 1001.636719 899.5 1000.414062 899.5 L 776.164062 899.5 L 776.164062 848.570312 L 776.910156 848.570312 C 778.777344 848.402344 780.628906 848.101562 782.457031 847.675781 C 784.28125 847.25 786.070312 846.699219 787.824219 846.023438 C 789.574219 845.347656 791.269531 844.554688 792.910156 843.644531 C 794.554688 842.734375 796.125 841.714844 797.625 840.589844 C 799.125 839.460938 800.539062 838.234375 801.871094 836.910156 C 803.199219 835.585938 804.433594 834.175781 805.566406 832.683594 C 806.703125 831.1875 807.726562 829.621094 808.644531 827.984375 C 809.5625 826.347656 810.363281 824.65625 811.046875 822.90625 L 824.128906 790.214844 C 839.691406 785.46875 854.640625 779.246094 868.976562 771.554688 L 901.371094 785.480469 C 903.085938 786.226562 904.847656 786.851562 906.648438 787.355469 C 908.453125 787.859375 910.28125 788.234375 912.136719 788.484375 C 913.992188 788.738281 915.855469 788.859375 917.726562 788.851562 C 919.597656 788.84375 921.460938 788.710938 923.3125 788.445312 C 925.164062 788.183594 926.992188 787.792969 928.789062 787.277344 C 930.589844 786.761719 932.34375 786.125 934.054688 785.367188 C 935.765625 784.609375 937.417969 783.734375 939.007812 782.75 C 940.597656 781.761719 942.113281 780.671875 943.554688 779.476562 C 950.082031 774.019531 956.4375 768.164062 962.515625 762.035156 C 968.597656 755.90625 974.453125 749.578125 979.957031 743.097656 C 981.160156 741.652344 982.257812 740.132812 983.25 738.535156 C 984.238281 736.9375 985.117188 735.277344 985.878906 733.5625 C 986.640625 731.84375 987.277344 730.078125 987.796875 728.273438 C 988.3125 726.464844 988.707031 724.632812 988.96875 722.769531 C 989.234375 720.910156 989.367188 719.039062 989.371094 717.160156 C 989.378906 715.277344 989.253906 713.40625 989 711.546875 C 988.746094 709.683594 988.363281 707.847656 987.855469 706.039062 C 987.347656 704.226562 986.714844 702.460938 985.964844 700.738281 L 972.058594 668.347656 C 979.753906 654.007812 985.972656 639.058594 990.722656 623.496094 L 1023.414062 610.414062 C 1025.160156 609.734375 1026.851562 608.933594 1028.484375 608.019531 C 1030.121094 607.101562 1031.683594 606.078125 1033.179688 604.945312 C 1034.671875 603.8125 1036.078125 602.582031 1037.402344 601.253906 C 1038.722656 599.925781 1039.949219 598.511719 1041.074219 597.015625 C 1042.203125 595.515625 1043.21875 593.949219 1044.128906 592.308594 C 1045.039062 590.667969 1045.832031 588.976562 1046.503906 587.226562 C 1047.179688 585.476562 1047.730469 583.691406 1048.15625 581.867188 C 1048.582031 580.042969 1048.882812 578.195312 1049.054688 576.328125 C 1049.898438 567.855469 1050.25 559.285156 1050.25 550.664062 C 1050.25 542.042969 1049.898438 533.472656 1049.128906 525 C 1048.957031 523.132812 1048.660156 521.285156 1048.234375 519.457031 C 1047.808594 517.628906 1047.257812 515.839844 1046.582031 514.089844 C 1045.910156 512.339844 1045.117188 510.644531 1044.207031 509.003906 C 1043.300781 507.363281 1042.28125 505.792969 1041.15625 504.292969 C 1040.027344 502.792969 1038.804688 501.375 1037.480469 500.046875 C 1036.160156 498.714844 1034.75 497.484375 1033.257812 496.347656 C 1031.761719 495.210938 1030.199219 494.183594 1028.5625 493.265625 C 1026.925781 492.347656 1025.234375 491.546875 1023.488281 490.863281 L 990.796875 477.78125 C 986.046875 462.21875 979.828125 447.269531 972.132812 432.933594 L 986.0625 400.539062 C 986.808594 398.824219 987.429688 397.0625 987.933594 395.261719 C 988.433594 393.457031 988.8125 391.628906 989.0625 389.773438 C 989.3125 387.917969 989.433594 386.058594 989.425781 384.183594 C 989.417969 382.3125 989.28125 380.453125 989.019531 378.597656 C 988.753906 376.746094 988.367188 374.921875 987.851562 373.121094 C 987.335938 371.324219 986.699219 369.566406 985.941406 367.855469 C 985.183594 366.144531 984.3125 364.496094 983.328125 362.902344 C 982.34375 361.3125 981.253906 359.796875 980.058594 358.355469 C 974.601562 351.828125 968.746094 345.472656 962.617188 339.394531 C 956.488281 333.3125 950.15625 327.457031 943.679688 321.953125 C 942.234375 320.75 940.714844 319.648438 939.117188 318.65625 C 937.519531 317.664062 935.863281 316.785156 934.144531 316.023438 C 932.425781 315.261719 930.664062 314.621094 928.855469 314.101562 C 927.050781 313.582031 925.214844 313.191406 923.351562 312.929688 C 921.492188 312.664062 919.621094 312.53125 917.742188 312.527344 C 915.859375 312.523438 913.988281 312.648438 912.125 312.902344 C 910.265625 313.15625 908.425781 313.539062 906.617188 314.050781 C 904.808594 314.558594 903.042969 315.191406 901.320312 315.945312 L 868.929688 329.851562 C 854.589844 322.15625 839.640625 315.9375 824.078125 311.1875 L 811.046875 278.421875 C 810.363281 276.675781 809.5625 274.988281 808.644531 273.351562 C 807.730469 271.71875 806.703125 270.15625 805.570312 268.664062 C 804.4375 267.167969 803.207031 265.761719 801.878906 264.441406 C 800.550781 263.117188 799.136719 261.894531 797.640625 260.765625 C 796.140625 259.640625 794.574219 258.621094 792.9375 257.714844 C 791.296875 256.804688 789.605469 256.011719 787.855469 255.335938 C 786.105469 254.660156 784.320312 254.109375 782.496094 253.683594 C 780.671875 253.253906 778.828125 252.953125 776.960938 252.78125 C 759.84375 251.210938 742.722656 251.210938 725.605469 252.78125 C 723.738281 252.953125 721.886719 253.25 720.058594 253.675781 C 718.230469 254.097656 716.441406 254.648438 714.691406 255.320312 C 712.9375 255.996094 711.242188 256.785156 709.597656 257.695312 C 707.957031 258.605469 706.382812 259.621094 704.882812 260.75 C 703.382812 261.875 701.964844 263.101562 700.632812 264.421875 C 699.304688 265.746094 698.070312 267.15625 696.933594 268.648438 C 695.796875 270.144531 694.769531 271.707031 693.851562 273.34375 C 692.929688 274.980469 692.128906 276.675781 691.445312 278.421875 L 678.363281 311.113281 C 662.800781 315.863281 647.851562 322.082031 633.511719 329.777344 L 601.121094 315.847656 C 599.40625 315.101562 597.644531 314.480469 595.84375 313.976562 C 594.039062 313.476562 592.210938 313.097656 590.355469 312.847656 C 588.5 312.597656 586.636719 312.476562 584.765625 312.484375 C 582.894531 312.492188 581.035156 312.625 579.179688 312.890625 C 577.328125 313.15625 575.503906 313.542969 573.703125 314.058594 C 571.90625 314.574219 570.148438 315.210938 568.4375 315.96875 C 566.726562 316.726562 565.074219 317.597656 563.484375 318.582031 C 561.894531 319.566406 560.378906 320.65625 558.9375 321.851562 C 552.410156 327.308594 546.054688 333.164062 539.976562 339.292969 C 533.894531 345.421875 528.039062 351.753906 522.535156 358.230469 C 521.332031 359.675781 520.234375 361.199219 519.242188 362.792969 C 518.253906 364.390625 517.375 366.050781 516.613281 367.769531 C 515.851562 369.488281 515.214844 371.25 514.695312 373.054688 C 514.175781 374.863281 513.785156 376.699219 513.523438 378.558594 C 513.257812 380.417969 513.125 382.289062 513.121094 384.167969 C 513.113281 386.050781 513.238281 387.921875 513.492188 389.78125 C 513.746094 391.644531 514.128906 393.480469 514.636719 395.292969 C 515.144531 397.101562 515.777344 398.867188 516.527344 400.589844 L 530.433594 432.980469 C 522.738281 447.320312 516.519531 462.269531 511.769531 477.832031 L 479.078125 490.914062 C 477.332031 491.597656 475.644531 492.398438 474.007812 493.3125 C 472.375 494.230469 470.8125 495.253906 469.320312 496.390625 C 467.824219 497.523438 466.417969 498.753906 465.097656 500.082031 C 463.773438 501.410156 462.550781 502.824219 461.421875 504.320312 C 460.296875 505.816406 459.277344 507.386719 458.371094 509.023438 C 457.460938 510.664062 456.667969 512.355469 455.992188 514.105469 C 455.316406 515.851562 454.765625 517.640625 454.339844 519.464844 C 453.910156 521.289062 453.609375 523.132812 453.4375 525 C 452.589844 533.472656 452.242188 542.042969 452.242188 550.664062 C 452.242188 559.285156 452.589844 567.855469 453.363281 576.328125 C 453.535156 578.195312 453.832031 580.042969 454.257812 581.871094 C 454.683594 583.699219 455.234375 585.488281 455.910156 587.238281 C 456.582031 588.988281 457.375 590.683594 458.28125 592.324219 C 459.191406 593.96875 460.210938 595.539062 461.335938 597.039062 C 462.464844 598.539062 463.6875 599.953125 465.011719 601.28125 C 466.332031 602.613281 467.742188 603.847656 469.234375 604.980469 C 470.730469 606.117188 472.292969 607.144531 473.929688 608.0625 C 475.566406 608.980469 477.257812 609.78125 479.003906 610.464844 L 511.695312 623.546875 C 516.441406 639.109375 522.664062 654.058594 530.355469 668.398438 L 516.429688 700.789062 C 515.683594 702.503906 515.058594 704.265625 514.558594 706.066406 C 514.054688 707.871094 513.679688 709.699219 513.429688 711.554688 C 513.179688 713.410156 513.058594 715.273438 513.066406 717.144531 C 513.074219 719.015625 513.207031 720.875 513.472656 722.730469 C 513.734375 724.582031 514.125 726.40625 514.640625 728.207031 C 515.15625 730.003906 515.792969 731.761719 516.550781 733.472656 C 517.308594 735.183594 518.179688 736.835938 519.164062 738.425781 C 520.148438 740.015625 521.238281 741.53125 522.433594 742.972656 C 527.890625 749.5 533.746094 755.855469 539.875 761.933594 C 546.003906 768.015625 552.332031 773.871094 558.8125 779.375 C 560.257812 780.578125 561.777344 781.675781 563.375 782.667969 C 564.972656 783.660156 566.628906 784.539062 568.347656 785.300781 C 570.066406 786.0625 571.828125 786.703125 573.636719 787.222656 C 575.441406 787.742188 577.277344 788.132812 579.140625 788.394531 C 581 788.660156 582.871094 788.792969 584.75 788.796875 C 586.632812 788.804688 588.503906 788.679688 590.363281 788.421875 C 592.226562 788.167969 594.0625 787.785156 595.875 787.277344 C 597.683594 786.769531 599.449219 786.136719 601.171875 785.382812 L 633.5625 771.476562 C 647.902344 779.171875 662.851562 785.390625 678.414062 790.140625 L 691.496094 822.832031 C 692.179688 824.578125 692.976562 826.265625 693.894531 827.902344 C 694.8125 829.535156 695.835938 831.097656 696.96875 832.589844 C 698.105469 834.085938 699.335938 835.492188 700.664062 836.8125 C 701.992188 838.136719 703.402344 839.359375 704.902344 840.488281 C 706.398438 841.613281 707.96875 842.632812 709.605469 843.539062 C 711.246094 844.449219 712.9375 845.242188 714.6875 845.917969 C 716.433594 846.59375 718.222656 847.144531 720.046875 847.570312 C 721.871094 848 723.714844 848.300781 725.582031 848.472656 L 726.328125 848.472656 L 726.328125 899.5 L 502.078125 899.5 C 500.851562 899.5 499.628906 899.53125 498.410156 899.589844 C 497.1875 899.652344 495.96875 899.742188 494.75 899.863281 C 493.53125 899.980469 492.316406 900.132812 491.109375 900.3125 C 489.898438 900.488281 488.691406 900.699219 487.492188 900.9375 C 486.292969 901.175781 485.101562 901.445312 483.914062 901.742188 C 482.726562 902.039062 481.546875 902.363281 480.378906 902.71875 C 479.207031 903.074219 478.046875 903.460938 476.894531 903.871094 C 475.742188 904.285156 474.601562 904.722656 473.46875 905.191406 C 472.339844 905.660156 471.222656 906.15625 470.117188 906.679688 C 469.011719 907.203125 467.917969 907.75 466.839844 908.328125 C 465.761719 908.90625 464.695312 909.507812 463.648438 910.136719 C 462.597656 910.765625 461.5625 911.417969 460.546875 912.097656 C 459.53125 912.777344 458.53125 913.484375 457.546875 914.210938 C 456.566406 914.941406 455.601562 915.691406 454.65625 916.46875 C 453.710938 917.246094 452.785156 918.042969 451.875 918.867188 C 450.96875 919.6875 450.085938 920.53125 449.21875 921.394531 C 448.355469 922.261719 447.511719 923.144531 446.691406 924.054688 C 445.867188 924.960938 445.070312 925.886719 444.292969 926.832031 C 443.515625 927.777344 442.765625 928.742188 442.035156 929.722656 C 441.308594 930.707031 440.601562 931.707031 439.921875 932.722656 C 439.242188 933.742188 438.589844 934.773438 437.960938 935.824219 C 437.332031 936.871094 436.730469 937.9375 436.152344 939.015625 C 435.574219 940.09375 435.027344 941.1875 434.503906 942.292969 C 433.980469 943.398438 433.484375 944.515625 433.015625 945.648438 C 432.546875 946.777344 432.105469 947.917969 431.695312 949.070312 C 431.28125 950.222656 430.898438 951.382812 430.542969 952.554688 C 430.1875 953.722656 429.863281 954.902344 429.566406 956.089844 C 429.269531 957.277344 429 958.46875 428.761719 959.667969 C 428.523438 960.871094 428.3125 962.074219 428.132812 963.285156 C 427.957031 964.496094 427.804688 965.707031 427.683594 966.925781 C 427.566406 968.144531 427.476562 969.363281 427.414062 970.585938 C 427.355469 971.804688 427.324219 973.027344 427.324219 974.253906 L 427.324219 999.167969 L 377.492188 999.167969 C 375.859375 999.167969 374.230469 999.25 372.605469 999.410156 C 370.984375 999.570312 369.371094 999.808594 367.769531 1000.125 C 366.167969 1000.445312 364.585938 1000.839844 363.027344 1001.316406 C 361.464844 1001.789062 359.929688 1002.339844 358.421875 1002.960938 C 356.914062 1003.585938 355.441406 1004.285156 354 1005.054688 C 352.5625 1005.824219 351.164062 1006.660156 349.804688 1007.566406 C 348.449219 1008.476562 347.140625 1009.445312 345.878906 1010.480469 C 344.617188 1011.515625 343.40625 1012.609375 342.253906 1013.765625 C 341.101562 1014.917969 340.003906 1016.128906 338.96875 1017.390625 C 337.933594 1018.652344 336.964844 1019.960938 336.054688 1021.316406 C 335.148438 1022.675781 334.3125 1024.074219 333.542969 1025.511719 C 332.773438 1026.949219 332.074219 1028.425781 331.453125 1029.933594 C 330.828125 1031.441406 330.277344 1032.976562 329.804688 1034.539062 C 329.328125 1036.097656 328.933594 1037.679688 328.617188 1039.28125 C 328.296875 1040.882812 328.058594 1042.496094 327.898438 1044.117188 C 327.738281 1045.742188 327.65625 1047.371094 327.65625 1049.003906 L 327.65625 1148.671875 C 327.65625 1150.304688 327.738281 1151.929688 327.898438 1153.554688 C 328.058594 1155.179688 328.296875 1156.792969 328.617188 1158.394531 C 328.933594 1159.992188 329.328125 1161.574219 329.804688 1163.136719 C 330.277344 1164.699219 330.828125 1166.234375 331.449219 1167.742188 C 332.074219 1169.25 332.773438 1170.722656 333.542969 1172.164062 C 334.3125 1173.601562 335.148438 1175 336.054688 1176.355469 C 336.964844 1177.714844 337.933594 1179.023438 338.96875 1180.285156 C 340.003906 1181.546875 341.101562 1182.753906 342.253906 1183.910156 C 343.40625 1185.0625 344.617188 1186.15625 345.878906 1187.191406 C 347.140625 1188.226562 348.449219 1189.199219 349.804688 1190.105469 C 351.164062 1191.011719 352.5625 1191.851562 354 1192.621094 C 355.441406 1193.390625 356.914062 1194.085938 358.421875 1194.710938 C 359.929688 1195.335938 361.464844 1195.886719 363.027344 1196.359375 C 364.585938 1196.832031 366.167969 1197.230469 367.769531 1197.546875 C 369.371094 1197.867188 370.984375 1198.105469 372.605469 1198.265625 C 374.230469 1198.425781 375.859375 1198.503906 377.492188 1198.503906 Z M 825.996094 1148.671875 L 676.496094 1148.671875 L 676.496094 1049.003906 L 825.996094 1049.003906 Z M 1125 1148.671875 L 975.5 1148.671875 L 975.5 1049.003906 L 1125 1049.003906 Z M 720.074219 760.242188 C 719.34375 758.402344 718.402344 756.679688 717.261719 755.066406 C 716.117188 753.453125 714.800781 751.996094 713.308594 750.695312 C 711.820312 749.394531 710.195312 748.289062 708.441406 747.375 C 706.6875 746.460938 704.851562 745.765625 702.933594 745.289062 C 683.425781 740.464844 665.078125 732.851562 647.890625 722.441406 C 646.195312 721.414062 644.402344 720.597656 642.511719 719.996094 C 640.621094 719.398438 638.6875 719.027344 636.710938 718.890625 C 634.730469 718.75 632.765625 718.847656 630.808594 719.175781 C 628.851562 719.507812 626.964844 720.066406 625.140625 720.847656 L 586.394531 737.464844 C 582.535156 734.054688 578.722656 730.515625 575.058594 726.828125 C 571.394531 723.140625 567.832031 719.351562 564.417969 715.488281 L 581.039062 676.742188 C 581.820312 674.921875 582.375 673.03125 582.707031 671.078125 C 583.039062 669.121094 583.136719 667.15625 582.996094 665.175781 C 582.859375 663.199219 582.488281 661.265625 581.886719 659.375 C 581.285156 657.484375 580.472656 655.691406 579.445312 653.996094 C 569.035156 636.804688 561.417969 618.460938 556.59375 598.953125 C 556.117188 597.035156 555.421875 595.199219 554.511719 593.441406 C 553.597656 591.6875 552.488281 590.066406 551.191406 588.578125 C 549.890625 587.085938 548.433594 585.769531 546.820312 584.625 C 545.207031 583.480469 543.480469 582.542969 541.644531 581.808594 L 502.550781 566.164062 C 502.199219 561.03125 502.050781 555.847656 502.050781 550.640625 C 502.050781 545.433594 502.199219 540.273438 502.550781 535.117188 L 541.644531 519.46875 C 543.480469 518.734375 545.207031 517.796875 546.820312 516.652344 C 548.433594 515.511719 549.890625 514.191406 551.191406 512.703125 C 552.488281 511.210938 553.597656 509.589844 554.511719 507.835938 C 555.421875 506.082031 556.117188 504.246094 556.59375 502.324219 C 561.417969 482.820312 569.035156 464.472656 579.445312 447.285156 C 580.472656 445.589844 581.285156 443.796875 581.886719 441.90625 C 582.488281 440.015625 582.859375 438.082031 582.996094 436.101562 C 583.136719 434.125 583.039062 432.15625 582.707031 430.203125 C 582.375 428.246094 581.820312 426.355469 581.039062 424.535156 L 564.367188 385.8125 C 567.78125 381.953125 571.320312 378.140625 575.007812 374.476562 C 578.695312 370.8125 582.484375 367.25 586.34375 363.835938 L 625.089844 380.457031 C 626.914062 381.238281 628.804688 381.796875 630.757812 382.125 C 632.714844 382.457031 634.679688 382.554688 636.660156 382.414062 C 638.636719 382.277344 640.570312 381.90625 642.460938 381.304688 C 644.351562 380.707031 646.144531 379.890625 647.839844 378.863281 C 665.027344 368.453125 683.375 360.835938 702.882812 356.011719 C 704.800781 355.535156 706.636719 354.84375 708.390625 353.929688 C 710.144531 353.015625 711.769531 351.910156 713.257812 350.609375 C 714.75 349.308594 716.066406 347.851562 717.210938 346.238281 C 718.355469 344.625 719.292969 342.898438 720.023438 341.0625 L 735.671875 301.96875 C 746.023438 301.257812 756.371094 301.257812 766.71875 301.96875 L 782.367188 341.0625 C 783.101562 342.898438 784.039062 344.625 785.183594 346.238281 C 786.324219 347.851562 787.644531 349.308594 789.132812 350.609375 C 790.625 351.910156 792.246094 353.015625 794 353.929688 C 795.753906 354.84375 797.589844 355.535156 799.511719 356.011719 C 819.015625 360.835938 837.363281 368.453125 854.550781 378.863281 C 856.246094 379.890625 858.039062 380.707031 859.929688 381.304688 C 861.820312 381.90625 863.753906 382.277344 865.734375 382.414062 C 867.710938 382.554688 869.679688 382.457031 871.632812 382.125 C 873.589844 381.796875 875.476562 381.238281 877.300781 380.457031 L 916.046875 363.835938 C 919.910156 367.25 923.722656 370.789062 927.382812 374.476562 C 931.046875 378.164062 934.609375 381.953125 938.023438 385.8125 L 921.402344 424.558594 C 920.621094 426.382812 920.066406 428.269531 919.734375 430.226562 C 919.402344 432.183594 919.308594 434.148438 919.445312 436.128906 C 919.585938 438.105469 919.953125 440.039062 920.554688 441.929688 C 921.15625 443.820312 921.96875 445.613281 923 447.308594 C 933.40625 464.496094 941.023438 482.84375 945.847656 502.351562 C 946.324219 504.269531 947.019531 506.105469 947.933594 507.859375 C 948.84375 509.613281 949.953125 511.238281 951.25 512.726562 C 952.550781 514.21875 954.007812 515.535156 955.621094 516.679688 C 957.234375 517.820312 958.960938 518.761719 960.796875 519.492188 L 999.890625 535.140625 C 1000.242188 540.273438 1000.390625 545.457031 1000.390625 550.664062 C 1000.390625 555.871094 1000.242188 561.03125 999.890625 566.1875 L 960.796875 581.835938 C 958.960938 582.566406 957.234375 583.507812 955.621094 584.648438 C 954.007812 585.792969 952.550781 587.109375 951.25 588.601562 C 949.953125 590.089844 948.84375 591.714844 947.933594 593.46875 C 947.019531 595.222656 946.324219 597.058594 945.847656 598.976562 C 941.023438 618.484375 933.40625 636.832031 923 654.019531 C 921.96875 655.714844 921.15625 657.507812 920.554688 659.398438 C 919.953125 661.289062 919.585938 663.222656 919.445312 665.199219 C 919.308594 667.179688 919.402344 669.148438 919.734375 671.101562 C 920.066406 673.058594 920.621094 674.945312 921.402344 676.769531 L 938.023438 715.515625 C 934.609375 719.375 931.070312 723.1875 927.382812 726.851562 C 923.695312 730.515625 919.910156 734.078125 916.046875 737.492188 L 877.300781 720.871094 C 875.476562 720.089844 873.589844 719.535156 871.632812 719.203125 C 869.679688 718.871094 867.710938 718.773438 865.734375 718.914062 C 863.753906 719.050781 861.820312 719.421875 859.929688 720.023438 C 858.039062 720.625 856.246094 721.4375 854.550781 722.464844 C 837.363281 732.875 819.015625 740.492188 799.511719 745.316406 C 797.589844 745.792969 795.753906 746.488281 794 747.398438 C 792.246094 748.3125 790.625 749.421875 789.132812 750.71875 C 787.644531 752.019531 786.324219 753.476562 785.183594 755.089844 C 784.039062 756.703125 783.101562 758.429688 782.367188 760.265625 L 766.71875 799.359375 C 756.371094 800.035156 746.023438 800.035156 735.671875 799.359375 Z M 377.492188 1049.003906 L 526.992188 1049.003906 L 526.992188 1148.671875 L 377.492188 1148.671875 Z M 377.492188 1049.003906 " fill-opacity="1" fill-rule="nonzero"/><path fill="#c4923a" d="M 935.007812 207.285156 C 934.371094 207.792969 933.761719 208.335938 933.175781 208.90625 C 932.59375 209.472656 932.039062 210.070312 931.511719 210.695312 C 930.988281 211.320312 930.496094 211.96875 930.03125 212.644531 C 929.570312 213.316406 929.144531 214.011719 928.75 214.726562 C 928.355469 215.441406 928 216.171875 927.679688 216.921875 C 927.355469 217.671875 927.074219 218.4375 926.828125 219.214844 C 926.582031 219.992188 926.371094 220.78125 926.203125 221.582031 C 926.035156 222.378906 925.90625 223.183594 925.816406 223.996094 C 925.726562 224.804688 925.675781 225.621094 925.664062 226.433594 C 925.65625 227.25 925.6875 228.066406 925.757812 228.878906 C 925.824219 229.691406 925.9375 230.5 926.085938 231.300781 C 926.234375 232.105469 926.421875 232.898438 926.648438 233.679688 C 926.878906 234.464844 927.144531 235.234375 927.445312 235.992188 C 927.75 236.75 928.089844 237.492188 928.464844 238.21875 C 928.839844 238.941406 929.25 239.644531 929.695312 240.328125 C 930.140625 241.015625 930.617188 241.675781 931.128906 242.3125 C 931.636719 242.949219 932.179688 243.558594 932.746094 244.144531 C 933.316406 244.726562 933.914062 245.28125 934.539062 245.808594 C 935.164062 246.332031 935.8125 246.828125 936.484375 247.289062 C 937.15625 247.75 937.851562 248.179688 938.566406 248.574219 C 939.28125 248.964844 940.015625 249.324219 940.765625 249.644531 C 941.515625 249.96875 942.277344 250.25 943.054688 250.496094 C 943.835938 250.746094 944.621094 250.953125 945.421875 251.121094 C 946.21875 251.289062 947.023438 251.421875 947.835938 251.511719 C 948.648438 251.601562 949.460938 251.652344 950.277344 251.660156 C 951.09375 251.671875 951.90625 251.640625 952.71875 251.570312 C 953.53125 251.5 954.339844 251.390625 955.144531 251.242188 C 955.945312 251.09375 956.738281 250.90625 957.523438 250.679688 C 958.304688 250.453125 959.078125 250.1875 959.835938 249.882812 C 960.59375 249.582031 961.335938 249.242188 962.058594 248.867188 C 962.785156 248.492188 963.488281 248.082031 964.171875 247.636719 C 964.855469 247.191406 965.515625 246.714844 966.15625 246.203125 L 1090.738281 146.535156 C 1091.464844 145.953125 1092.160156 145.335938 1092.816406 144.675781 C 1093.476562 144.015625 1094.09375 143.320312 1094.675781 142.59375 C 1095.253906 141.863281 1095.792969 141.105469 1096.285156 140.316406 C 1096.78125 139.527344 1097.230469 138.710938 1097.632812 137.871094 C 1098.039062 137.03125 1098.394531 136.171875 1098.699219 135.292969 C 1099.007812 134.414062 1099.265625 133.519531 1099.472656 132.613281 C 1099.679688 131.703125 1099.835938 130.789062 1099.9375 129.863281 C 1100.042969 128.9375 1100.09375 128.007812 1100.09375 127.078125 C 1100.09375 126.144531 1100.042969 125.214844 1099.9375 124.289062 C 1099.835938 123.363281 1099.679688 122.449219 1099.472656 121.539062 C 1099.265625 120.632812 1099.007812 119.738281 1098.699219 118.859375 C 1098.394531 117.980469 1098.039062 117.121094 1097.632812 116.28125 C 1097.230469 115.441406 1096.78125 114.625 1096.285156 113.835938 C 1095.792969 113.046875 1095.253906 112.289062 1094.675781 111.558594 C 1094.09375 110.832031 1093.476562 110.136719 1092.816406 109.476562 C 1092.160156 108.820312 1091.464844 108.199219 1090.738281 107.617188 L 966.15625 7.949219 C 965.515625 7.4375 964.855469 6.960938 964.171875 6.515625 C 963.488281 6.074219 962.785156 5.664062 962.058594 5.285156 C 961.335938 4.910156 960.59375 4.574219 959.835938 4.269531 C 959.078125 3.96875 958.304688 3.703125 957.523438 3.476562 C 956.738281 3.25 955.945312 3.058594 955.144531 2.910156 C 954.339844 2.761719 953.535156 2.652344 952.71875 2.582031 C 951.90625 2.511719 951.09375 2.484375 950.277344 2.492188 C 949.460938 2.503906 948.648438 2.554688 947.835938 2.644531 C 947.023438 2.734375 946.222656 2.863281 945.421875 3.035156 C 944.625 3.203125 943.835938 3.410156 943.058594 3.65625 C 942.28125 3.902344 941.515625 4.1875 940.765625 4.511719 C 940.015625 4.832031 939.285156 5.1875 938.570312 5.582031 C 937.855469 5.976562 937.160156 6.402344 936.488281 6.867188 C 935.816406 7.328125 935.167969 7.820312 934.542969 8.347656 C 933.917969 8.871094 933.320312 9.425781 932.75 10.011719 C 932.179688 10.59375 931.640625 11.207031 931.128906 11.84375 C 930.621094 12.480469 930.144531 13.140625 929.699219 13.824219 C 929.253906 14.507812 928.84375 15.214844 928.46875 15.9375 C 928.089844 16.660156 927.75 17.402344 927.449219 18.160156 C 927.144531 18.917969 926.878906 19.6875 926.652344 20.472656 C 926.425781 21.257812 926.238281 22.050781 926.089844 22.851562 C 925.9375 23.652344 925.828125 24.460938 925.757812 25.273438 C 925.6875 26.085938 925.660156 26.902344 925.667969 27.71875 C 925.679688 28.535156 925.726562 29.347656 925.816406 30.160156 C 925.90625 30.96875 926.035156 31.773438 926.207031 32.574219 C 926.375 33.371094 926.582031 34.160156 926.828125 34.9375 C 927.074219 35.714844 927.359375 36.480469 927.679688 37.230469 C 928 37.980469 928.359375 38.710938 928.75 39.425781 C 929.144531 40.140625 929.574219 40.835938 930.035156 41.507812 C 930.496094 42.183594 930.988281 42.832031 931.511719 43.457031 C 932.039062 44.082031 932.59375 44.679688 933.175781 45.25 C 933.761719 45.820312 934.371094 46.359375 935.007812 46.867188 L 1004.128906 102.160156 L 203.074219 102.160156 C 201.441406 102.160156 199.8125 102.199219 198.183594 102.28125 C 196.554688 102.359375 194.925781 102.480469 193.304688 102.640625 C 191.679688 102.800781 190.0625 103 188.449219 103.238281 C 186.835938 103.476562 185.230469 103.757812 183.628906 104.074219 C 182.027344 104.394531 180.4375 104.75 178.855469 105.144531 C 177.273438 105.542969 175.703125 105.976562 174.140625 106.449219 C 172.582031 106.925781 171.03125 107.4375 169.496094 107.984375 C 167.960938 108.535156 166.4375 109.121094 164.933594 109.746094 C 163.425781 110.371094 161.933594 111.03125 160.460938 111.730469 C 158.984375 112.425781 157.527344 113.160156 156.089844 113.929688 C 154.652344 114.695312 153.234375 115.5 151.832031 116.339844 C 150.433594 117.179688 149.058594 118.050781 147.699219 118.957031 C 146.34375 119.863281 145.011719 120.800781 143.699219 121.773438 C 142.390625 122.746094 141.105469 123.75 139.84375 124.78125 C 138.582031 125.816406 137.347656 126.882812 136.140625 127.976562 C 134.933594 129.074219 133.75 130.199219 132.597656 131.351562 C 131.445312 132.503906 130.320312 133.6875 129.222656 134.894531 C 128.128906 136.101562 127.0625 137.335938 126.027344 138.597656 C 124.992188 139.859375 123.992188 141.144531 123.019531 142.457031 C 122.046875 143.765625 121.109375 145.097656 120.203125 146.453125 C 119.296875 147.8125 118.421875 149.1875 117.585938 150.585938 C 116.746094 151.988281 115.941406 153.40625 115.175781 154.84375 C 114.40625 156.28125 113.671875 157.738281 112.972656 159.214844 C 112.277344 160.6875 111.617188 162.179688 110.992188 163.6875 C 110.367188 165.191406 109.78125 166.714844 109.230469 168.25 C 108.683594 169.785156 108.171875 171.335938 107.695312 172.894531 C 107.222656 174.457031 106.789062 176.027344 106.390625 177.609375 C 105.996094 179.191406 105.640625 180.78125 105.320312 182.382812 C 105.003906 183.984375 104.722656 185.589844 104.484375 187.203125 C 104.246094 188.816406 104.046875 190.433594 103.886719 192.058594 C 103.726562 193.679688 103.605469 195.308594 103.527344 196.9375 C 103.445312 198.566406 103.40625 200.195312 103.40625 201.828125 L 103.40625 276.578125 C 103.40625 277.394531 103.445312 278.207031 103.523438 279.019531 C 103.605469 279.832031 103.726562 280.640625 103.882812 281.4375 C 104.042969 282.238281 104.242188 283.03125 104.476562 283.8125 C 104.714844 284.59375 104.988281 285.359375 105.300781 286.113281 C 105.613281 286.867188 105.960938 287.605469 106.347656 288.324219 C 106.730469 289.042969 107.152344 289.742188 107.605469 290.421875 C 108.058594 291.101562 108.542969 291.753906 109.0625 292.386719 C 109.578125 293.015625 110.125 293.621094 110.703125 294.195312 C 111.28125 294.773438 111.882812 295.320312 112.515625 295.839844 C 113.144531 296.355469 113.800781 296.84375 114.480469 297.296875 C 115.15625 297.75 115.855469 298.167969 116.578125 298.554688 C 117.296875 298.9375 118.03125 299.285156 118.785156 299.597656 C 119.539062 299.910156 120.308594 300.183594 121.089844 300.421875 C 121.871094 300.660156 122.660156 300.855469 123.460938 301.015625 C 124.261719 301.175781 125.066406 301.296875 125.878906 301.375 C 126.691406 301.453125 127.507812 301.496094 128.324219 301.496094 C 129.136719 301.496094 129.953125 301.453125 130.765625 301.375 C 131.578125 301.296875 132.382812 301.175781 133.183594 301.015625 C 133.984375 300.855469 134.773438 300.660156 135.554688 300.421875 C 136.335938 300.183594 137.105469 299.910156 137.859375 299.597656 C 138.613281 299.285156 139.347656 298.9375 140.066406 298.554688 C 140.789062 298.167969 141.488281 297.75 142.164062 297.296875 C 142.84375 296.84375 143.5 296.355469 144.128906 295.839844 C 144.761719 295.320312 145.363281 294.773438 145.941406 294.195312 C 146.519531 293.621094 147.066406 293.015625 147.582031 292.386719 C 148.101562 291.753906 148.585938 291.101562 149.039062 290.421875 C 149.492188 289.742188 149.914062 289.042969 150.296875 288.324219 C 150.683594 287.605469 151.03125 286.867188 151.34375 286.113281 C 151.65625 285.359375 151.929688 284.59375 152.167969 283.8125 C 152.402344 283.03125 152.601562 282.238281 152.761719 281.4375 C 152.917969 280.640625 153.039062 279.832031 153.121094 279.019531 C 153.199219 278.207031 153.238281 277.394531 153.238281 276.578125 L 153.238281 201.828125 C 153.238281 200.195312 153.320312 198.566406 153.480469 196.941406 C 153.640625 195.320312 153.878906 193.707031 154.195312 192.105469 C 154.515625 190.503906 154.910156 188.921875 155.386719 187.359375 C 155.859375 185.800781 156.40625 184.265625 157.03125 182.757812 C 157.65625 181.25 158.355469 179.773438 159.125 178.335938 C 159.894531 176.894531 160.730469 175.5 161.636719 174.140625 C 162.542969 172.785156 163.515625 171.472656 164.550781 170.214844 C 165.585938 168.953125 166.679688 167.742188 167.835938 166.589844 C 168.988281 165.433594 170.195312 164.339844 171.457031 163.304688 C 172.71875 162.269531 174.03125 161.296875 175.386719 160.390625 C 176.742188 159.484375 178.140625 158.648438 179.582031 157.878906 C 181.019531 157.109375 182.496094 156.410156 184.003906 155.785156 C 185.511719 155.164062 187.046875 154.613281 188.605469 154.140625 C 190.167969 153.664062 191.75 153.269531 193.351562 152.949219 C 194.953125 152.632812 196.5625 152.394531 198.1875 152.234375 C 199.8125 152.074219 201.441406 151.992188 203.074219 151.992188 L 1004.128906 151.992188 Z M 935.007812 207.285156 " fill-opacity="1" fill-rule="nonzero"/><path fill="#c4923a" d="M 1489.410156 929.875 C 1488.773438 929.363281 1488.113281 928.886719 1487.429688 928.441406 C 1486.742188 927.996094 1486.039062 927.585938 1485.316406 927.210938 C 1484.589844 926.832031 1483.847656 926.496094 1483.089844 926.191406 C 1482.332031 925.886719 1481.5625 925.621094 1480.777344 925.394531 C 1479.996094 925.167969 1479.199219 924.980469 1478.398438 924.828125 C 1477.597656 924.679688 1476.789062 924.570312 1475.972656 924.5 C 1475.160156 924.429688 1474.347656 924.398438 1473.53125 924.410156 C 1472.714844 924.421875 1471.898438 924.46875 1471.089844 924.558594 C 1470.277344 924.648438 1469.472656 924.78125 1468.671875 924.949219 C 1467.875 925.117188 1467.085938 925.328125 1466.308594 925.574219 C 1465.53125 925.820312 1464.765625 926.105469 1464.015625 926.425781 C 1463.265625 926.746094 1462.53125 927.105469 1461.816406 927.5 C 1461.101562 927.890625 1460.40625 928.320312 1459.734375 928.78125 C 1459.0625 929.246094 1458.414062 929.738281 1457.789062 930.265625 C 1457.164062 930.789062 1456.566406 931.34375 1455.996094 931.929688 C 1455.425781 932.515625 1454.886719 933.125 1454.378906 933.761719 L 1399.085938 1002.882812 L 1399.085938 201.828125 C 1399.085938 200.195312 1399.046875 198.566406 1398.964844 196.9375 C 1398.886719 195.308594 1398.765625 193.679688 1398.605469 192.058594 C 1398.445312 190.433594 1398.246094 188.816406 1398.007812 187.203125 C 1397.769531 185.589844 1397.488281 183.984375 1397.171875 182.382812 C 1396.851562 180.78125 1396.496094 179.191406 1396.097656 177.609375 C 1395.703125 176.027344 1395.269531 174.457031 1394.792969 172.894531 C 1394.320312 171.335938 1393.808594 169.785156 1393.261719 168.25 C 1392.710938 166.714844 1392.125 165.191406 1391.5 163.6875 C 1390.875 162.179688 1390.214844 160.6875 1389.515625 159.214844 C 1388.820312 157.738281 1388.085938 156.28125 1387.316406 154.84375 C 1386.546875 153.40625 1385.746094 151.988281 1384.90625 150.585938 C 1384.066406 149.1875 1383.195312 147.8125 1382.289062 146.453125 C 1381.382812 145.097656 1380.445312 143.765625 1379.472656 142.457031 C 1378.5 141.144531 1377.496094 139.859375 1376.460938 138.597656 C 1375.429688 137.335938 1374.363281 136.101562 1373.265625 134.894531 C 1372.171875 133.6875 1371.046875 132.503906 1369.894531 131.351562 C 1368.742188 130.199219 1367.558594 129.074219 1366.351562 127.976562 C 1365.144531 126.882812 1363.90625 125.816406 1362.648438 124.78125 C 1361.386719 123.75 1360.101562 122.746094 1358.789062 121.773438 C 1357.480469 120.800781 1356.148438 119.863281 1354.789062 118.957031 C 1353.433594 118.050781 1352.058594 117.179688 1350.65625 116.339844 C 1349.257812 115.5 1347.839844 114.695312 1346.402344 113.929688 C 1344.964844 113.160156 1343.507812 112.425781 1342.03125 111.730469 C 1340.558594 111.03125 1339.066406 110.371094 1337.558594 109.746094 C 1336.050781 109.121094 1334.53125 108.535156 1332.996094 107.984375 C 1331.460938 107.4375 1329.910156 106.925781 1328.351562 106.449219 C 1326.789062 105.976562 1325.21875 105.542969 1323.636719 105.144531 C 1322.054688 104.75 1320.460938 104.394531 1318.863281 104.074219 C 1317.261719 103.757812 1315.65625 103.476562 1314.042969 103.238281 C 1312.429688 103 1310.8125 102.800781 1309.1875 102.640625 C 1307.5625 102.480469 1305.9375 102.359375 1304.308594 102.28125 C 1302.679688 102.199219 1301.050781 102.160156 1299.417969 102.160156 L 1224.667969 102.160156 C 1223.851562 102.160156 1223.039062 102.199219 1222.226562 102.28125 C 1221.414062 102.359375 1220.605469 102.480469 1219.804688 102.636719 C 1219.007812 102.796875 1218.214844 102.996094 1217.433594 103.230469 C 1216.652344 103.46875 1215.886719 103.742188 1215.132812 104.054688 C 1214.378906 104.367188 1213.640625 104.71875 1212.921875 105.101562 C 1212.203125 105.484375 1211.503906 105.90625 1210.824219 106.359375 C 1210.144531 106.8125 1209.492188 107.296875 1208.859375 107.816406 C 1208.230469 108.332031 1207.625 108.878906 1207.046875 109.457031 C 1206.472656 110.035156 1205.925781 110.636719 1205.40625 111.269531 C 1204.890625 111.898438 1204.402344 112.554688 1203.949219 113.234375 C 1203.496094 113.910156 1203.078125 114.609375 1202.691406 115.332031 C 1202.308594 116.050781 1201.960938 116.789062 1201.648438 117.542969 C 1201.335938 118.296875 1201.058594 119.0625 1200.824219 119.84375 C 1200.585938 120.625 1200.386719 121.414062 1200.230469 122.214844 C 1200.070312 123.015625 1199.949219 123.820312 1199.871094 124.632812 C 1199.789062 125.445312 1199.75 126.261719 1199.75 127.078125 C 1199.75 127.890625 1199.789062 128.707031 1199.871094 129.519531 C 1199.949219 130.332031 1200.070312 131.136719 1200.230469 131.9375 C 1200.386719 132.738281 1200.585938 133.527344 1200.824219 134.308594 C 1201.058594 135.089844 1201.335938 135.859375 1201.648438 136.613281 C 1201.960938 137.367188 1202.308594 138.101562 1202.691406 138.820312 C 1203.078125 139.542969 1203.496094 140.242188 1203.949219 140.917969 C 1204.402344 141.597656 1204.890625 142.253906 1205.40625 142.882812 C 1205.925781 143.515625 1206.472656 144.117188 1207.046875 144.695312 C 1207.625 145.273438 1208.230469 145.820312 1208.859375 146.335938 C 1209.492188 146.855469 1210.144531 147.339844 1210.824219 147.792969 C 1211.503906 148.246094 1212.203125 148.667969 1212.921875 149.050781 C 1213.640625 149.4375 1214.378906 149.785156 1215.132812 150.097656 C 1215.886719 150.410156 1216.652344 150.683594 1217.433594 150.921875 C 1218.214844 151.15625 1219.007812 151.355469 1219.804688 151.515625 C 1220.605469 151.671875 1221.414062 151.792969 1222.226562 151.875 C 1223.039062 151.953125 1223.851562 151.992188 1224.667969 151.992188 L 1299.417969 151.992188 C 1301.050781 151.992188 1302.679688 152.074219 1304.304688 152.234375 C 1305.925781 152.394531 1307.539062 152.632812 1309.140625 152.949219 C 1310.742188 153.269531 1312.324219 153.664062 1313.882812 154.140625 C 1315.445312 154.613281 1316.980469 155.160156 1318.488281 155.785156 C 1319.996094 156.410156 1321.46875 157.109375 1322.910156 157.878906 C 1324.347656 158.648438 1325.746094 159.484375 1327.105469 160.390625 C 1328.460938 161.296875 1329.769531 162.269531 1331.03125 163.304688 C 1332.292969 164.339844 1333.503906 165.433594 1334.65625 166.589844 C 1335.808594 167.742188 1336.90625 168.953125 1337.941406 170.214844 C 1338.976562 171.472656 1339.945312 172.785156 1340.855469 174.140625 C 1341.761719 175.496094 1342.597656 176.894531 1343.367188 178.335938 C 1344.136719 179.773438 1344.835938 181.25 1345.457031 182.757812 C 1346.082031 184.265625 1346.632812 185.800781 1347.105469 187.359375 C 1347.582031 188.921875 1347.976562 190.503906 1348.292969 192.105469 C 1348.613281 193.707031 1348.851562 195.320312 1349.011719 196.941406 C 1349.171875 198.566406 1349.253906 200.195312 1349.253906 201.828125 L 1349.253906 1002.882812 L 1293.960938 933.761719 C 1293.453125 933.125 1292.910156 932.515625 1292.339844 931.929688 C 1291.769531 931.347656 1291.175781 930.792969 1290.550781 930.265625 C 1289.925781 929.742188 1289.277344 929.25 1288.601562 928.785156 C 1287.929688 928.324219 1287.234375 927.898438 1286.519531 927.503906 C 1285.804688 927.109375 1285.074219 926.753906 1284.324219 926.433594 C 1283.574219 926.109375 1282.808594 925.828125 1282.03125 925.582031 C 1281.253906 925.335938 1280.464844 925.125 1279.664062 924.957031 C 1278.867188 924.789062 1278.0625 924.660156 1277.25 924.570312 C 1276.441406 924.480469 1275.625 924.429688 1274.808594 924.417969 C 1273.996094 924.410156 1273.179688 924.441406 1272.367188 924.511719 C 1271.554688 924.582031 1270.746094 924.691406 1269.945312 924.839844 C 1269.140625 924.988281 1268.347656 925.175781 1267.5625 925.40625 C 1266.78125 925.632812 1266.007812 925.898438 1265.253906 926.199219 C 1264.496094 926.503906 1263.753906 926.84375 1263.027344 927.21875 C 1262.304688 927.59375 1261.601562 928.003906 1260.914062 928.449219 C 1260.230469 928.894531 1259.570312 929.371094 1258.933594 929.882812 C 1258.296875 930.390625 1257.6875 930.933594 1257.101562 931.503906 C 1256.519531 932.070312 1255.964844 932.667969 1255.4375 933.292969 C 1254.910156 933.917969 1254.417969 934.566406 1253.957031 935.238281 C 1253.496094 935.914062 1253.066406 936.605469 1252.671875 937.320312 C 1252.28125 938.035156 1251.921875 938.769531 1251.601562 939.519531 C 1251.277344 940.269531 1250.996094 941.03125 1250.746094 941.8125 C 1250.5 942.589844 1250.292969 943.375 1250.125 944.175781 C 1249.953125 944.972656 1249.824219 945.777344 1249.734375 946.589844 C 1249.644531 947.402344 1249.59375 948.214844 1249.585938 949.03125 C 1249.574219 949.847656 1249.605469 950.660156 1249.675781 951.472656 C 1249.742188 952.285156 1249.851562 953.09375 1250.003906 953.898438 C 1250.152344 954.699219 1250.339844 955.492188 1250.566406 956.277344 C 1250.792969 957.058594 1251.058594 957.832031 1251.363281 958.589844 C 1251.664062 959.347656 1252.003906 960.089844 1252.378906 960.8125 C 1252.753906 961.539062 1253.164062 962.242188 1253.609375 962.925781 C 1254.054688 963.609375 1254.53125 964.269531 1255.042969 964.910156 L 1354.710938 1089.492188 C 1355.289062 1090.21875 1355.910156 1090.914062 1356.570312 1091.570312 C 1357.230469 1092.230469 1357.925781 1092.847656 1358.652344 1093.429688 C 1359.382812 1094.007812 1360.140625 1094.546875 1360.929688 1095.039062 C 1361.71875 1095.535156 1362.535156 1095.984375 1363.375 1096.386719 C 1364.210938 1096.792969 1365.070312 1097.148438 1365.953125 1097.453125 C 1366.832031 1097.761719 1367.726562 1098.019531 1368.632812 1098.226562 C 1369.539062 1098.433594 1370.457031 1098.589844 1371.382812 1098.691406 C 1372.308594 1098.796875 1373.238281 1098.847656 1374.167969 1098.847656 C 1375.101562 1098.847656 1376.027344 1098.796875 1376.953125 1098.691406 C 1377.878906 1098.589844 1378.796875 1098.433594 1379.707031 1098.226562 C 1380.613281 1098.019531 1381.507812 1097.761719 1382.386719 1097.453125 C 1383.265625 1097.148438 1384.125 1096.792969 1384.964844 1096.386719 C 1385.804688 1095.984375 1386.621094 1095.535156 1387.410156 1095.039062 C 1388.199219 1094.546875 1388.957031 1094.007812 1389.683594 1093.429688 C 1390.414062 1092.847656 1391.109375 1092.230469 1391.769531 1091.570312 C 1392.425781 1090.914062 1393.046875 1090.21875 1393.628906 1089.492188 L 1493.296875 964.910156 C 1493.808594 964.269531 1494.285156 963.609375 1494.730469 962.925781 C 1495.175781 962.242188 1495.585938 961.539062 1495.960938 960.8125 C 1496.339844 960.089844 1496.679688 959.347656 1496.980469 958.589844 C 1497.285156 957.832031 1497.550781 957.058594 1497.777344 956.277344 C 1498.003906 955.492188 1498.195312 954.699219 1498.34375 953.898438 C 1498.492188 953.09375 1498.601562 952.285156 1498.671875 951.472656 C 1498.742188 950.660156 1498.773438 949.84375 1498.761719 949.027344 C 1498.753906 948.210938 1498.703125 947.398438 1498.613281 946.585938 C 1498.523438 945.773438 1498.394531 944.96875 1498.222656 944.171875 C 1498.054688 943.375 1497.847656 942.585938 1497.601562 941.804688 C 1497.351562 941.027344 1497.070312 940.265625 1496.746094 939.515625 C 1496.425781 938.761719 1496.066406 938.03125 1495.675781 937.316406 C 1495.28125 936.601562 1494.851562 935.90625 1494.390625 935.234375 C 1493.929688 934.558594 1493.433594 933.910156 1492.910156 933.285156 C 1492.382812 932.664062 1491.828125 932.066406 1491.242188 931.496094 C 1490.660156 930.925781 1490.046875 930.386719 1489.410156 929.875 Z M 1489.410156 929.875 " fill-opacity="1" fill-rule="nonzero"/><path fill="#c4923a" d="M 1399.085938 1298.171875 L 1399.085938 1223.421875 C 1399.085938 1222.605469 1399.046875 1221.792969 1398.964844 1220.980469 C 1398.886719 1220.167969 1398.765625 1219.359375 1398.605469 1218.558594 C 1398.449219 1217.761719 1398.25 1216.96875 1398.011719 1216.1875 C 1397.777344 1215.40625 1397.5 1214.640625 1397.1875 1213.886719 C 1396.878906 1213.132812 1396.527344 1212.394531 1396.144531 1211.675781 C 1395.757812 1210.957031 1395.339844 1210.257812 1394.886719 1209.578125 C 1394.433594 1208.898438 1393.949219 1208.246094 1393.429688 1207.613281 C 1392.914062 1206.984375 1392.363281 1206.378906 1391.789062 1205.800781 C 1391.210938 1205.226562 1390.605469 1204.679688 1389.976562 1204.160156 C 1389.34375 1203.644531 1388.691406 1203.15625 1388.011719 1202.703125 C 1387.332031 1202.25 1386.632812 1201.832031 1385.914062 1201.445312 C 1385.195312 1201.0625 1384.457031 1200.714844 1383.703125 1200.402344 C 1382.949219 1200.089844 1382.183594 1199.816406 1381.402344 1199.578125 C 1380.621094 1199.339844 1379.832031 1199.144531 1379.03125 1198.984375 C 1378.230469 1198.824219 1377.421875 1198.703125 1376.613281 1198.625 C 1375.800781 1198.546875 1374.984375 1198.503906 1374.167969 1198.503906 C 1373.351562 1198.503906 1372.539062 1198.546875 1371.726562 1198.625 C 1370.914062 1198.703125 1370.109375 1198.824219 1369.308594 1198.984375 C 1368.507812 1199.144531 1367.71875 1199.339844 1366.9375 1199.578125 C 1366.15625 1199.816406 1365.386719 1200.089844 1364.632812 1200.402344 C 1363.878906 1200.714844 1363.144531 1201.0625 1362.421875 1201.445312 C 1361.703125 1201.832031 1361.003906 1202.25 1360.324219 1202.703125 C 1359.648438 1203.15625 1358.992188 1203.644531 1358.363281 1204.160156 C 1357.730469 1204.679688 1357.128906 1205.226562 1356.550781 1205.800781 C 1355.972656 1206.378906 1355.425781 1206.984375 1354.90625 1207.613281 C 1354.390625 1208.246094 1353.90625 1208.898438 1353.453125 1209.578125 C 1353 1210.257812 1352.578125 1210.957031 1352.195312 1211.675781 C 1351.808594 1212.394531 1351.460938 1213.132812 1351.148438 1213.886719 C 1350.835938 1214.640625 1350.5625 1215.40625 1350.324219 1216.1875 C 1350.089844 1216.96875 1349.890625 1217.761719 1349.730469 1218.558594 C 1349.570312 1219.359375 1349.453125 1220.167969 1349.371094 1220.980469 C 1349.292969 1221.792969 1349.253906 1222.605469 1349.253906 1223.421875 L 1349.253906 1298.171875 C 1349.253906 1299.804688 1349.171875 1301.433594 1349.011719 1303.058594 C 1348.851562 1304.679688 1348.613281 1306.292969 1348.292969 1307.894531 C 1347.976562 1309.496094 1347.582031 1311.078125 1347.105469 1312.636719 C 1346.632812 1314.199219 1346.082031 1315.734375 1345.457031 1317.242188 C 1344.835938 1318.75 1344.136719 1320.226562 1343.367188 1321.664062 C 1342.597656 1323.101562 1341.761719 1324.5 1340.855469 1325.859375 C 1339.945312 1327.214844 1338.976562 1328.523438 1337.941406 1329.785156 C 1336.90625 1331.046875 1335.808594 1332.257812 1334.65625 1333.410156 C 1333.503906 1334.5625 1332.292969 1335.660156 1331.03125 1336.695312 C 1329.769531 1337.730469 1328.460938 1338.699219 1327.105469 1339.609375 C 1325.746094 1340.515625 1324.347656 1341.351562 1322.910156 1342.121094 C 1321.46875 1342.890625 1319.996094 1343.589844 1318.488281 1344.210938 C 1316.980469 1344.835938 1315.445312 1345.386719 1313.882812 1345.859375 C 1312.324219 1346.335938 1310.742188 1346.730469 1309.140625 1347.050781 C 1307.539062 1347.367188 1305.925781 1347.605469 1304.304688 1347.765625 C 1302.679688 1347.925781 1301.050781 1348.007812 1299.417969 1348.007812 L 498.363281 1348.007812 L 567.484375 1292.714844 C 568.121094 1292.207031 568.730469 1291.664062 569.316406 1291.09375 C 569.898438 1290.523438 570.453125 1289.929688 570.980469 1289.304688 C 571.503906 1288.679688 571.996094 1288.03125 572.460938 1287.355469 C 572.921875 1286.683594 573.347656 1285.988281 573.742188 1285.273438 C 574.136719 1284.558594 574.492188 1283.828125 574.8125 1283.078125 C 575.136719 1282.328125 575.417969 1281.5625 575.664062 1280.785156 C 575.910156 1280.007812 576.121094 1279.21875 576.289062 1278.417969 C 576.457031 1277.621094 576.585938 1276.816406 576.675781 1276.003906 C 576.765625 1275.195312 576.816406 1274.378906 576.824219 1273.566406 C 576.835938 1272.75 576.804688 1271.933594 576.734375 1271.121094 C 576.664062 1270.308594 576.554688 1269.5 576.40625 1268.699219 C 576.257812 1267.894531 576.070312 1267.101562 575.839844 1266.316406 C 575.613281 1265.535156 575.347656 1264.765625 575.046875 1264.007812 C 574.742188 1263.25 574.402344 1262.507812 574.027344 1261.78125 C 573.652344 1261.058594 573.242188 1260.355469 572.796875 1259.671875 C 572.351562 1258.984375 571.875 1258.324219 571.363281 1257.6875 C 570.855469 1257.050781 570.3125 1256.441406 569.742188 1255.855469 C 569.175781 1255.273438 568.578125 1254.71875 567.953125 1254.191406 C 567.328125 1253.664062 566.679688 1253.171875 566.007812 1252.710938 C 565.332031 1252.25 564.640625 1251.820312 563.925781 1251.425781 C 563.210938 1251.035156 562.476562 1250.675781 561.726562 1250.355469 C 560.976562 1250.03125 560.214844 1249.75 559.433594 1249.503906 C 558.65625 1249.253906 557.871094 1249.046875 557.070312 1248.878906 C 556.273438 1248.710938 555.46875 1248.578125 554.65625 1248.488281 C 553.84375 1248.398438 553.03125 1248.347656 552.214844 1248.339844 C 551.398438 1248.328125 550.585938 1248.359375 549.773438 1248.429688 C 548.957031 1248.496094 548.152344 1248.609375 547.347656 1248.757812 C 546.546875 1248.90625 545.753906 1249.09375 544.96875 1249.320312 C 544.183594 1249.546875 543.414062 1249.8125 542.65625 1250.117188 C 541.898438 1250.417969 541.15625 1250.757812 540.433594 1251.132812 C 539.707031 1251.507812 539.003906 1251.917969 538.320312 1252.363281 C 537.636719 1252.808594 536.976562 1253.285156 536.335938 1253.796875 L 411.753906 1353.464844 C 411.023438 1354.046875 410.332031 1354.664062 409.675781 1355.324219 C 409.015625 1355.984375 408.398438 1356.679688 407.816406 1357.40625 C 407.238281 1358.136719 406.699219 1358.894531 406.203125 1359.683594 C 405.710938 1360.472656 405.261719 1361.289062 404.855469 1362.128906 C 404.453125 1362.96875 404.097656 1363.828125 403.792969 1364.707031 C 403.484375 1365.585938 403.226562 1366.480469 403.019531 1367.386719 C 402.8125 1368.296875 402.65625 1369.210938 402.554688 1370.136719 C 402.449219 1371.0625 402.398438 1371.992188 402.398438 1372.921875 C 402.398438 1373.855469 402.449219 1374.785156 402.554688 1375.710938 C 402.65625 1376.632812 402.8125 1377.550781 403.019531 1378.460938 C 403.226562 1379.367188 403.484375 1380.261719 403.792969 1381.140625 C 404.097656 1382.019531 404.453125 1382.878906 404.855469 1383.71875 C 405.261719 1384.558594 405.710938 1385.375 406.203125 1386.164062 C 406.699219 1386.953125 407.238281 1387.710938 407.816406 1388.4375 C 408.398438 1389.167969 409.015625 1389.863281 409.675781 1390.523438 C 410.332031 1391.179688 411.023438 1391.800781 411.753906 1392.382812 L 536.335938 1492.050781 C 536.976562 1492.5625 537.636719 1493.039062 538.320312 1493.484375 C 539.003906 1493.929688 539.707031 1494.335938 540.433594 1494.714844 C 541.15625 1495.089844 541.898438 1495.429688 542.65625 1495.730469 C 543.414062 1496.035156 544.183594 1496.300781 544.96875 1496.527344 C 545.753906 1496.753906 546.546875 1496.941406 547.347656 1497.089844 C 548.152344 1497.238281 548.957031 1497.347656 549.773438 1497.417969 C 550.585938 1497.488281 551.398438 1497.519531 552.214844 1497.507812 C 553.03125 1497.496094 553.84375 1497.449219 554.65625 1497.359375 C 555.46875 1497.265625 556.273438 1497.136719 557.070312 1496.96875 C 557.871094 1496.800781 558.65625 1496.589844 559.433594 1496.34375 C 560.214844 1496.097656 560.976562 1495.8125 561.726562 1495.492188 C 562.476562 1495.171875 563.210938 1494.8125 563.925781 1494.417969 C 564.640625 1494.027344 565.332031 1493.597656 566.007812 1493.136719 C 566.679688 1492.675781 567.328125 1492.179688 567.953125 1491.65625 C 568.578125 1491.128906 569.175781 1490.574219 569.742188 1489.992188 C 570.3125 1489.40625 570.855469 1488.796875 571.363281 1488.160156 C 571.875 1487.523438 572.351562 1486.859375 572.796875 1486.175781 C 573.242188 1485.492188 573.652344 1484.789062 574.027344 1484.0625 C 574.402344 1483.339844 574.742188 1482.597656 575.046875 1481.839844 C 575.347656 1481.082031 575.613281 1480.3125 575.839844 1479.527344 C 576.070312 1478.746094 576.257812 1477.953125 576.40625 1477.148438 C 576.554688 1476.347656 576.664062 1475.539062 576.734375 1474.726562 C 576.804688 1473.914062 576.835938 1473.097656 576.824219 1472.28125 C 576.816406 1471.464844 576.765625 1470.652344 576.675781 1469.839844 C 576.585938 1469.03125 576.457031 1468.226562 576.289062 1467.425781 C 576.121094 1466.628906 575.910156 1465.839844 575.664062 1465.0625 C 575.417969 1464.285156 575.136719 1463.519531 574.8125 1462.769531 C 574.492188 1462.019531 574.136719 1461.285156 573.742188 1460.570312 C 573.347656 1459.855469 572.921875 1459.164062 572.460938 1458.488281 C 571.996094 1457.816406 571.503906 1457.167969 570.980469 1456.542969 C 570.453125 1455.917969 569.898438 1455.320312 569.316406 1454.75 C 568.730469 1454.179688 568.121094 1453.640625 567.484375 1453.132812 L 498.363281 1397.839844 L 1299.417969 1397.839844 C 1301.050781 1397.839844 1302.679688 1397.800781 1304.308594 1397.71875 C 1305.9375 1397.640625 1307.5625 1397.519531 1309.1875 1397.359375 C 1310.8125 1397.199219 1312.429688 1397 1314.042969 1396.761719 C 1315.65625 1396.523438 1317.261719 1396.242188 1318.863281 1395.925781 C 1320.460938 1395.605469 1322.054688 1395.25 1323.636719 1394.851562 C 1325.21875 1394.457031 1326.789062 1394.023438 1328.351562 1393.546875 C 1329.910156 1393.074219 1331.460938 1392.5625 1332.996094 1392.015625 C 1334.53125 1391.464844 1336.050781 1390.878906 1337.558594 1390.253906 C 1339.066406 1389.628906 1340.558594 1388.96875 1342.03125 1388.269531 C 1343.507812 1387.574219 1344.964844 1386.839844 1346.402344 1386.070312 C 1347.839844 1385.300781 1349.257812 1384.5 1350.65625 1383.660156 C 1352.058594 1382.820312 1353.433594 1381.949219 1354.789062 1381.042969 C 1356.148438 1380.136719 1357.480469 1379.199219 1358.789062 1378.226562 C 1360.101562 1377.253906 1361.386719 1376.25 1362.648438 1375.214844 C 1363.90625 1374.183594 1365.144531 1373.117188 1366.351562 1372.019531 C 1367.558594 1370.925781 1368.742188 1369.800781 1369.894531 1368.648438 C 1371.046875 1367.496094 1372.171875 1366.3125 1373.265625 1365.105469 C 1374.363281 1363.898438 1375.429688 1362.660156 1376.460938 1361.402344 C 1377.496094 1360.140625 1378.5 1358.855469 1379.472656 1357.542969 C 1380.445312 1356.234375 1381.382812 1354.902344 1382.289062 1353.542969 C 1383.195312 1352.1875 1384.066406 1350.8125 1384.90625 1349.410156 C 1385.746094 1348.011719 1386.546875 1346.59375 1387.316406 1345.15625 C 1388.085938 1343.71875 1388.820312 1342.261719 1389.515625 1340.785156 C 1390.214844 1339.3125 1390.875 1337.820312 1391.5 1336.3125 C 1392.125 1334.804688 1392.710938 1333.285156 1393.261719 1331.75 C 1393.808594 1330.214844 1394.320312 1328.664062 1394.792969 1327.105469 C 1395.269531 1325.542969 1395.703125 1323.972656 1396.097656 1322.390625 C 1396.496094 1320.808594 1396.851562 1319.214844 1397.171875 1317.617188 C 1397.488281 1316.015625 1397.769531 1314.410156 1398.007812 1312.796875 C 1398.246094 1311.183594 1398.445312 1309.566406 1398.605469 1307.941406 C 1398.765625 1306.320312 1398.886719 1304.691406 1398.964844 1303.0625 C 1399.046875 1301.433594 1399.085938 1299.804688 1399.085938 1298.171875 Z M 1399.085938 1298.171875 " fill-opacity="1" fill-rule="nonzero"/><path fill="#c4923a" d="M 203.074219 1397.839844 L 277.824219 1397.839844 C 278.640625 1397.839844 279.453125 1397.800781 280.265625 1397.71875 C 281.078125 1397.640625 281.882812 1397.519531 282.683594 1397.363281 C 283.484375 1397.203125 284.277344 1397.003906 285.058594 1396.765625 C 285.835938 1396.53125 286.605469 1396.253906 287.359375 1395.945312 C 288.113281 1395.632812 288.851562 1395.28125 289.570312 1394.898438 C 290.289062 1394.511719 290.988281 1394.09375 291.667969 1393.640625 C 292.34375 1393.1875 293 1392.703125 293.632812 1392.183594 C 294.261719 1391.667969 294.867188 1391.121094 295.441406 1390.542969 C 296.019531 1389.964844 296.566406 1389.359375 297.085938 1388.730469 C 297.601562 1388.097656 298.089844 1387.445312 298.542969 1386.765625 C 298.996094 1386.085938 299.414062 1385.390625 299.796875 1384.667969 C 300.183594 1383.949219 300.53125 1383.210938 300.84375 1382.457031 C 301.15625 1381.703125 301.429688 1380.9375 301.667969 1380.15625 C 301.90625 1379.375 302.101562 1378.585938 302.261719 1377.785156 C 302.421875 1376.984375 302.539062 1376.179688 302.621094 1375.367188 C 302.699219 1374.554688 302.742188 1373.738281 302.742188 1372.921875 C 302.742188 1372.105469 302.699219 1371.292969 302.621094 1370.480469 C 302.539062 1369.667969 302.421875 1368.863281 302.261719 1368.0625 C 302.101562 1367.261719 301.90625 1366.472656 301.667969 1365.691406 C 301.429688 1364.910156 301.15625 1364.140625 300.84375 1363.386719 C 300.53125 1362.632812 300.183594 1361.898438 299.796875 1361.175781 C 299.414062 1360.457031 298.996094 1359.757812 298.542969 1359.078125 C 298.089844 1358.402344 297.601562 1357.746094 297.085938 1357.117188 C 296.566406 1356.484375 296.019531 1355.882812 295.441406 1355.304688 C 294.867188 1354.726562 294.261719 1354.179688 293.632812 1353.664062 C 293 1353.144531 292.34375 1352.660156 291.667969 1352.207031 C 290.988281 1351.753906 290.289062 1351.332031 289.570312 1350.949219 C 288.851562 1350.5625 288.113281 1350.214844 287.359375 1349.902344 C 286.605469 1349.589844 285.835938 1349.316406 285.058594 1349.078125 C 284.277344 1348.84375 283.484375 1348.644531 282.683594 1348.484375 C 281.882812 1348.324219 281.078125 1348.207031 280.265625 1348.125 C 279.453125 1348.046875 278.640625 1348.007812 277.824219 1348.007812 L 203.074219 1348.007812 C 201.441406 1348.007812 199.8125 1347.925781 198.1875 1347.765625 C 196.5625 1347.605469 194.953125 1347.367188 193.351562 1347.050781 C 191.75 1346.730469 190.167969 1346.335938 188.605469 1345.859375 C 187.046875 1345.386719 185.511719 1344.835938 184.003906 1344.210938 C 182.496094 1343.589844 181.019531 1342.890625 179.582031 1342.121094 C 178.140625 1341.351562 176.742188 1340.515625 175.386719 1339.609375 C 174.03125 1338.699219 172.71875 1337.730469 171.457031 1336.695312 C 170.195312 1335.660156 168.988281 1334.5625 167.835938 1333.410156 C 166.679688 1332.257812 165.585938 1331.046875 164.550781 1329.785156 C 163.515625 1328.523438 162.542969 1327.214844 161.636719 1325.859375 C 160.730469 1324.5 159.894531 1323.101562 159.125 1321.664062 C 158.355469 1320.226562 157.65625 1318.75 157.03125 1317.242188 C 156.40625 1315.734375 155.859375 1314.199219 155.386719 1312.636719 C 154.910156 1311.078125 154.515625 1309.496094 154.195312 1307.894531 C 153.878906 1306.292969 153.640625 1304.679688 153.480469 1303.058594 C 153.320312 1301.433594 153.238281 1299.804688 153.238281 1298.171875 L 153.238281 497.117188 L 208.53125 566.238281 C 209.039062 566.875 209.578125 567.484375 210.148438 568.070312 C 210.71875 568.65625 211.316406 569.210938 211.941406 569.738281 C 212.566406 570.261719 213.214844 570.757812 213.886719 571.21875 C 214.5625 571.679688 215.253906 572.109375 215.96875 572.503906 C 216.6875 572.898438 217.417969 573.253906 218.167969 573.578125 C 218.917969 573.898438 219.683594 574.183594 220.460938 574.429688 C 221.238281 574.675781 222.027344 574.882812 222.828125 575.054688 C 223.625 575.222656 224.429688 575.351562 225.242188 575.441406 C 226.054688 575.53125 226.867188 575.582031 227.683594 575.59375 C 228.5 575.605469 229.316406 575.574219 230.128906 575.503906 C 230.941406 575.433594 231.75 575.324219 232.554688 575.175781 C 233.355469 575.027344 234.148438 574.835938 234.933594 574.609375 C 235.71875 574.382812 236.488281 574.117188 237.246094 573.816406 C 238.003906 573.511719 238.746094 573.171875 239.472656 572.796875 C 240.195312 572.421875 240.902344 572.007812 241.585938 571.5625 C 242.269531 571.117188 242.929688 570.640625 243.570312 570.132812 C 244.207031 569.621094 244.816406 569.082031 245.402344 568.511719 C 245.984375 567.941406 246.539062 567.34375 247.066406 566.71875 C 247.59375 566.09375 248.085938 565.445312 248.546875 564.769531 C 249.011719 564.097656 249.4375 563.402344 249.832031 562.6875 C 250.226562 561.972656 250.582031 561.242188 250.902344 560.488281 C 251.226562 559.738281 251.511719 558.976562 251.757812 558.195312 C 252.003906 557.417969 252.210938 556.628906 252.378906 555.832031 C 252.546875 555.03125 252.679688 554.226562 252.769531 553.414062 C 252.859375 552.605469 252.90625 551.789062 252.917969 550.972656 C 252.925781 550.15625 252.898438 549.34375 252.828125 548.527344 C 252.757812 547.714844 252.648438 546.90625 252.496094 546.105469 C 252.347656 545.300781 252.160156 544.507812 251.933594 543.722656 C 251.703125 542.941406 251.4375 542.167969 251.136719 541.410156 C 250.832031 540.652344 250.492188 539.910156 250.117188 539.1875 C 249.738281 538.460938 249.328125 537.757812 248.882812 537.074219 C 248.4375 536.390625 247.960938 535.730469 247.449219 535.089844 L 147.78125 410.507812 C 147.179688 409.8125 146.542969 409.152344 145.867188 408.523438 C 145.195312 407.898438 144.488281 407.308594 143.753906 406.757812 C 143.015625 406.207031 142.25 405.699219 141.460938 405.226562 C 140.667969 404.757812 139.855469 404.332031 139.015625 403.953125 C 138.179688 403.570312 137.324219 403.234375 136.453125 402.945312 C 135.578125 402.652344 134.695312 402.410156 133.792969 402.214844 C 132.894531 402.019531 131.988281 401.871094 131.074219 401.773438 C 130.160156 401.675781 129.242188 401.628906 128.324219 401.628906 C 127.402344 401.628906 126.484375 401.675781 125.570312 401.773438 C 124.65625 401.871094 123.75 402.019531 122.851562 402.214844 C 121.949219 402.410156 121.066406 402.652344 120.191406 402.945312 C 119.320312 403.234375 118.464844 403.570312 117.628906 403.953125 C 116.789062 404.332031 115.976562 404.757812 115.183594 405.226562 C 114.394531 405.699219 113.628906 406.207031 112.894531 406.757812 C 112.15625 407.308594 111.449219 407.898438 110.777344 408.523438 C 110.101562 409.152344 109.464844 409.8125 108.863281 410.507812 L 9.195312 535.089844 C 8.683594 535.730469 8.207031 536.390625 7.761719 537.074219 C 7.320312 537.757812 6.910156 538.460938 6.53125 539.1875 C 6.15625 539.910156 5.816406 540.652344 5.515625 541.410156 C 5.214844 542.167969 4.949219 542.9375 4.722656 543.722656 C 4.496094 544.507812 4.304688 545.300781 4.15625 546.101562 C 4.007812 546.90625 3.898438 547.710938 3.828125 548.523438 C 3.757812 549.339844 3.730469 550.152344 3.738281 550.96875 C 3.75 551.785156 3.800781 552.597656 3.890625 553.410156 C 3.980469 554.21875 4.109375 555.023438 4.28125 555.824219 C 4.449219 556.621094 4.65625 557.410156 4.902344 558.1875 C 5.148438 558.964844 5.433594 559.730469 5.757812 560.480469 C 6.078125 561.230469 6.433594 561.960938 6.828125 562.675781 C 7.222656 563.390625 7.648438 564.085938 8.113281 564.757812 C 8.574219 565.429688 9.066406 566.078125 9.59375 566.703125 C 10.117188 567.328125 10.671875 567.925781 11.257812 568.496094 C 11.839844 569.066406 12.453125 569.605469 13.089844 570.113281 C 13.726562 570.625 14.386719 571.101562 15.070312 571.546875 C 15.753906 571.992188 16.460938 572.402344 17.183594 572.777344 C 17.90625 573.15625 18.648438 573.492188 19.40625 573.796875 C 20.164062 574.101562 20.933594 574.363281 21.71875 574.59375 C 22.503906 574.820312 23.296875 575.007812 24.097656 575.15625 C 24.898438 575.308594 25.707031 575.417969 26.519531 575.488281 C 27.332031 575.558594 28.148438 575.585938 28.964844 575.578125 C 29.78125 575.566406 30.59375 575.515625 31.40625 575.429688 C 32.214844 575.339844 33.019531 575.207031 33.820312 575.039062 C 34.617188 574.871094 35.40625 574.664062 36.183594 574.417969 C 36.960938 574.171875 37.726562 573.886719 38.476562 573.566406 C 39.226562 573.246094 39.957031 572.886719 40.671875 572.492188 C 41.386719 572.101562 42.082031 571.671875 42.753906 571.210938 C 43.429688 570.75 44.078125 570.257812 44.703125 569.730469 C 45.328125 569.207031 45.925781 568.652344 46.496094 568.070312 C 47.0625 567.484375 47.605469 566.875 48.113281 566.238281 L 103.40625 497.117188 L 103.40625 1298.171875 C 103.40625 1299.804688 103.445312 1301.433594 103.527344 1303.0625 C 103.605469 1304.691406 103.726562 1306.320312 103.886719 1307.941406 C 104.046875 1309.566406 104.246094 1311.183594 104.484375 1312.796875 C 104.722656 1314.410156 105.003906 1316.015625 105.320312 1317.617188 C 105.636719 1319.214844 105.996094 1320.808594 106.390625 1322.390625 C 106.789062 1323.972656 107.222656 1325.542969 107.695312 1327.105469 C 108.171875 1328.664062 108.683594 1330.214844 109.230469 1331.75 C 109.78125 1333.285156 110.367188 1334.804688 110.992188 1336.3125 C 111.617188 1337.820312 112.277344 1339.3125 112.972656 1340.785156 C 113.671875 1342.261719 114.40625 1343.71875 115.175781 1345.15625 C 115.941406 1346.59375 116.746094 1348.011719 117.585938 1349.410156 C 118.421875 1350.8125 119.296875 1352.1875 120.203125 1353.542969 C 121.109375 1354.902344 122.046875 1356.234375 123.019531 1357.542969 C 123.992188 1358.855469 124.992188 1360.140625 126.027344 1361.402344 C 127.0625 1362.660156 128.128906 1363.898438 129.222656 1365.105469 C 130.320312 1366.3125 131.445312 1367.496094 132.597656 1368.648438 C 133.75 1369.800781 134.933594 1370.925781 136.140625 1372.019531 C 137.347656 1373.117188 138.582031 1374.183594 139.84375 1375.214844 C 141.105469 1376.25 142.390625 1377.253906 143.699219 1378.226562 C 145.011719 1379.199219 146.34375 1380.136719 147.699219 1381.042969 C 149.058594 1381.949219 150.433594 1382.820312 151.832031 1383.660156 C 153.234375 1384.5 154.652344 1385.300781 156.089844 1386.070312 C 157.527344 1386.839844 158.984375 1387.574219 160.460938 1388.269531 C 161.933594 1388.96875 163.425781 1389.628906 164.933594 1390.253906 C 166.4375 1390.878906 167.960938 1391.464844 169.496094 1392.015625 C 171.03125 1392.5625 172.582031 1393.074219 174.140625 1393.546875 C 175.703125 1394.023438 177.273438 1394.457031 178.855469 1394.851562 C 180.4375 1395.25 182.027344 1395.605469 183.628906 1395.925781 C 185.230469 1396.242188 186.835938 1396.523438 188.449219 1396.761719 C 190.0625 1397 191.679688 1397.199219 193.304688 1397.359375 C 194.925781 1397.519531 196.554688 1397.640625 198.183594 1397.71875 C 199.8125 1397.800781 201.441406 1397.839844 203.074219 1397.839844 Z M 203.074219 1397.839844 " fill-opacity="1" fill-rule="nonzero"/></svg>