<svg xmlns="http://www.w3.org/2000/svg" xmlns:xlink="http://www.w3.org/1999/xlink" width="2000" zoomAndPan="magnify" viewBox="0 0 1500 1499.999933" height="2000" preserveAspectRatio="xMidYMid meet" version="1.0"><path fill="#c4923a" d="M 1175.789062 654.585938 L 1112.085938 651.628906 C 1109.59375 651.503906 1107.851562 650.136719 1107.167969 647.738281 C 1099.417969 620.695312 1088.558594 594.460938 1074.835938 569.78125 C 1073.621094 567.605469 1073.871094 565.394531 1075.550781 563.558594 L 1118.527344 516.410156 C 1133.929688 499.511719 1133.339844 473.589844 1117.15625 457.40625 L 1042.59375 382.84375 C 1026.410156 366.660156 1000.488281 366.070312 983.589844 381.472656 L 936.441406 424.449219 C 934.605469 426.128906 932.394531 426.378906 930.1875 425.164062 C 905.507812 411.441406 879.273438 400.582031 852.230469 392.832031 C 849.835938 392.148438 848.433594 390.40625 848.339844 387.914062 L 845.382812 324.242188 C 844.324219 301.402344 825.589844 283.507812 802.71875 283.507812 L 697.28125 283.507812 C 674.410156 283.507812 655.644531 301.402344 654.617188 324.242188 L 651.660156 387.945312 C 651.535156 390.4375 650.167969 392.179688 647.769531 392.863281 C 620.695312 400.613281 594.492188 411.472656 569.8125 425.195312 C 567.636719 426.410156 565.425781 426.160156 563.558594 424.480469 L 516.410156 381.503906 C 499.511719 366.097656 473.589844 366.691406 457.40625 382.875 L 382.84375 457.4375 C 366.660156 473.621094 366.070312 499.511719 381.472656 516.441406 L 424.449219 563.589844 C 426.128906 565.425781 426.378906 567.664062 425.167969 569.84375 C 411.441406 594.492188 400.582031 620.726562 392.832031 647.800781 C 392.148438 650.195312 390.40625 651.597656 387.914062 651.691406 L 324.210938 654.648438 C 301.371094 655.707031 283.476562 674.472656 283.476562 697.34375 L 283.476562 802.78125 C 283.476562 825.652344 301.371094 844.417969 324.210938 845.476562 L 387.914062 848.433594 C 390.40625 848.558594 392.148438 849.925781 392.832031 852.324219 C 400.582031 879.367188 411.441406 905.601562 425.167969 930.28125 C 426.378906 932.457031 426.128906 934.667969 424.449219 936.535156 L 381.472656 983.714844 C 366.070312 1000.613281 366.691406 1026.535156 382.84375 1042.71875 L 457.40625 1117.28125 C 473.589844 1133.464844 499.511719 1134.054688 516.410156 1118.652344 L 563.558594 1075.675781 C 565.394531 1073.992188 567.605469 1073.746094 569.8125 1074.957031 C 594.460938 1088.683594 620.695312 1099.542969 647.769531 1107.292969 C 650.167969 1107.976562 651.566406 1109.71875 651.660156 1112.210938 L 654.617188 1175.882812 C 655.675781 1198.722656 674.410156 1216.617188 697.28125 1216.617188 L 802.71875 1216.617188 C 825.589844 1216.617188 844.355469 1198.722656 845.382812 1175.882812 L 848.339844 1112.179688 C 848.464844 1109.6875 849.835938 1107.945312 852.230469 1107.261719 C 879.273438 1099.511719 905.507812 1088.652344 930.1875 1074.925781 C 932.367188 1073.714844 934.574219 1073.960938 936.441406 1075.644531 L 983.589844 1118.621094 C 1000.488281 1134.023438 1026.410156 1133.433594 1042.59375 1117.25 L 1117.15625 1042.6875 C 1133.339844 1026.503906 1133.929688 1000.613281 1118.527344 983.683594 L 1075.550781 936.535156 C 1073.871094 934.699219 1073.621094 932.457031 1074.835938 930.28125 C 1088.527344 905.632812 1099.417969 879.398438 1107.167969 852.324219 C 1107.851562 849.925781 1109.59375 848.527344 1112.085938 848.433594 L 1175.757812 845.476562 C 1198.597656 844.417969 1216.492188 825.652344 1216.492188 802.78125 L 1216.492188 697.34375 C 1216.492188 674.472656 1198.597656 655.738281 1175.757812 654.648438 Z M 1179.179688 802.71875 C 1179.179688 805.613281 1176.941406 807.976562 1174.046875 808.101562 L 1110.375 811.058594 C 1091.734375 811.929688 1076.390625 824.066406 1071.285156 841.992188 C 1064.316406 866.328125 1054.542969 889.917969 1042.21875 912.074219 C 1033.132812 928.382812 1035.40625 947.832031 1047.976562 961.617188 L 1090.953125 1008.765625 C 1092.882812 1010.882812 1092.820312 1014.148438 1090.769531 1016.203125 L 1016.203125 1090.769531 C 1014.179688 1092.820312 1010.914062 1092.882812 1008.765625 1090.953125 L 961.617188 1047.976562 C 947.832031 1035.40625 928.382812 1033.132812 912.074219 1042.21875 C 889.886719 1054.542969 866.328125 1064.316406 842.023438 1071.285156 C 824.097656 1076.421875 811.960938 1091.761719 811.089844 1110.375 L 808.132812 1174.078125 C 808.007812 1176.972656 805.644531 1179.210938 802.75 1179.210938 L 697.3125 1179.210938 C 694.417969 1179.210938 692.054688 1176.972656 691.929688 1174.078125 L 688.972656 1110.40625 C 688.101562 1091.761719 675.964844 1076.421875 658.039062 1071.285156 C 633.703125 1064.347656 610.144531 1054.542969 587.957031 1042.21875 C 581.296875 1038.515625 574.140625 1036.710938 567.042969 1036.710938 C 556.742188 1036.710938 546.566406 1040.539062 538.414062 1047.976562 L 491.265625 1090.953125 C 489.148438 1092.882812 485.851562 1092.820312 483.828125 1090.769531 L 409.261719 1016.203125 C 407.210938 1014.148438 407.148438 1010.882812 409.078125 1008.765625 L 452.054688 961.585938 C 464.625 947.800781 466.867188 928.351562 457.8125 912.042969 C 445.488281 889.855469 435.683594 866.296875 428.746094 841.992188 C 423.609375 824.066406 408.269531 811.929688 389.625 811.058594 L 325.921875 808.101562 C 323.058594 807.976562 320.789062 805.613281 320.789062 802.71875 L 320.789062 697.28125 C 320.789062 694.386719 323.027344 692.023438 325.921875 691.898438 L 389.625 688.941406 C 408.269531 688.070312 423.609375 675.933594 428.714844 658.007812 C 435.683594 633.671875 445.457031 610.113281 457.78125 587.925781 C 466.835938 571.617188 464.59375 552.167969 452.023438 538.382812 L 409.046875 491.234375 C 407.117188 489.085938 407.179688 485.820312 409.203125 483.796875 L 483.765625 409.230469 C 485.820312 407.179688 489.085938 407.117188 491.203125 409.046875 L 538.351562 452.023438 C 552.136719 464.59375 571.585938 466.867188 587.894531 457.78125 C 610.050781 445.457031 633.640625 435.683594 657.976562 428.714844 C 675.902344 423.578125 688.039062 408.238281 688.910156 389.625 L 691.867188 325.921875 C 691.992188 323.058594 694.355469 320.789062 697.25 320.789062 L 802.6875 320.789062 C 805.582031 320.789062 807.945312 323.027344 808.070312 325.921875 L 811.027344 389.59375 C 811.898438 408.238281 824.035156 423.578125 841.960938 428.714844 C 866.296875 435.652344 889.855469 445.457031 912.042969 457.78125 C 928.351562 466.835938 947.800781 464.59375 961.585938 452.023438 L 1008.734375 409.046875 C 1010.851562 407.117188 1014.117188 407.179688 1016.171875 409.230469 L 1090.738281 483.796875 C 1092.789062 485.851562 1092.851562 489.085938 1090.921875 491.234375 L 1047.945312 538.414062 C 1035.375 552.199219 1033.132812 571.648438 1042.1875 587.957031 C 1054.511719 610.144531 1064.316406 633.703125 1071.253906 658.007812 C 1076.390625 675.933594 1091.730469 688.070312 1110.34375 688.941406 L 1174.046875 691.898438 C 1176.941406 692.023438 1179.179688 694.386719 1179.179688 697.28125 Z M 750 150.933594 C 778.722656 150.933594 802.09375 127.5625 802.09375 98.839844 C 802.09375 70.113281 778.722656 46.742188 750 46.742188 C 721.277344 46.742188 697.90625 70.113281 697.90625 98.839844 C 697.90625 127.5625 721.277344 150.933594 750 150.933594 Z M 750 84.085938 C 758.121094 84.085938 764.75 90.714844 764.75 98.839844 C 764.75 106.960938 758.121094 113.589844 750 113.589844 C 741.878906 113.589844 735.25 106.960938 735.25 98.839844 C 735.25 90.714844 741.878906 84.085938 750 84.085938 Z M 1210.425781 341.671875 C 1224.335938 341.671875 1237.40625 336.253906 1247.242188 326.421875 C 1257.074219 316.585938 1262.488281 303.515625 1262.488281 289.574219 C 1262.488281 275.632812 1257.074219 262.59375 1247.242188 252.726562 C 1237.40625 242.894531 1224.335938 237.480469 1210.425781 237.480469 C 1196.515625 237.480469 1183.445312 242.894531 1173.578125 252.726562 C 1163.746094 262.5625 1158.328125 275.632812 1158.328125 289.574219 C 1158.328125 303.515625 1163.746094 316.554688 1173.578125 326.421875 C 1183.414062 336.253906 1196.515625 341.671875 1210.425781 341.671875 Z M 1200 279.148438 C 1202.769531 276.378906 1206.472656 274.824219 1210.425781 274.824219 C 1214.378906 274.824219 1218.082031 276.347656 1220.851562 279.148438 C 1223.621094 281.949219 1225.175781 285.652344 1225.175781 289.574219 C 1225.175781 293.496094 1223.652344 297.230469 1220.851562 300 C 1218.082031 302.769531 1214.378906 304.324219 1210.425781 304.324219 C 1206.472656 304.324219 1202.769531 302.800781 1200 300 C 1197.199219 297.230469 1195.675781 293.527344 1195.675781 289.574219 C 1195.675781 285.621094 1197.199219 281.917969 1200 279.148438 Z M 1401.160156 697.90625 C 1372.4375 697.90625 1349.066406 721.277344 1349.066406 750 C 1349.066406 778.722656 1372.4375 802.09375 1401.160156 802.09375 C 1429.886719 802.09375 1453.257812 778.722656 1453.257812 750 C 1453.257812 721.277344 1429.886719 697.90625 1401.160156 697.90625 Z M 1401.160156 764.75 C 1393.039062 764.75 1386.410156 758.121094 1386.410156 750 C 1386.410156 741.878906 1393.039062 735.25 1401.160156 735.25 C 1409.285156 735.25 1415.914062 741.878906 1415.914062 750 C 1415.914062 758.121094 1409.285156 764.75 1401.160156 764.75 Z M 1401.160156 651.160156 C 1370.074219 651.160156 1342.3125 665.601562 1324.171875 688.101562 L 1199.75 387.757812 C 1203.296875 388.132812 1206.847656 388.351562 1210.425781 388.351562 C 1235.726562 388.351562 1261.058594 378.703125 1280.320312 359.441406 C 1318.847656 320.914062 1318.847656 258.207031 1280.320312 219.648438 C 1241.792969 181.121094 1179.085938 181.121094 1140.527344 219.648438 C 1118.558594 241.617188 1109.128906 271.460938 1112.210938 300.21875 L 811.867188 175.828125 C 834.367188 157.6875 848.808594 129.925781 848.808594 98.839844 C 848.808594 44.347656 804.460938 0 749.96875 0 C 695.476562 0 651.128906 44.347656 651.128906 98.839844 C 651.128906 129.925781 665.570312 157.6875 688.070312 175.828125 L 387.726562 300.25 C 390.808594 271.523438 381.410156 241.679688 359.410156 219.679688 C 320.882812 181.152344 258.144531 181.152344 219.617188 219.679688 C 181.089844 258.207031 181.089844 320.914062 219.617188 359.472656 C 238.878906 378.734375 264.210938 388.382812 289.511719 388.382812 C 293.089844 388.382812 296.640625 388.164062 300.1875 387.789062 L 175.765625 688.132812 C 157.625 665.632812 129.863281 651.191406 98.777344 651.191406 C 44.285156 651.191406 -0.0625 695.539062 -0.0625 750.03125 C -0.0625 804.523438 44.285156 848.871094 98.777344 848.871094 C 129.863281 848.871094 157.625 834.429688 175.765625 811.929688 L 300.15625 1112.210938 C 296.640625 1111.835938 293.089844 1111.617188 289.511719 1111.617188 C 263.121094 1111.617188 238.289062 1121.886719 219.617188 1140.558594 C 181.089844 1179.085938 181.089844 1241.792969 219.617188 1280.351562 C 238.878906 1299.617188 264.210938 1309.261719 289.511719 1309.261719 C 314.8125 1309.261719 340.144531 1299.617188 359.410156 1280.351562 C 381.378906 1258.382812 390.808594 1228.539062 387.726562 1199.78125 L 688.070312 1324.199219 C 665.570312 1342.34375 651.128906 1370.105469 651.128906 1401.191406 C 651.128906 1455.683594 695.476562 1500.03125 749.96875 1500.03125 C 804.460938 1500.03125 848.808594 1455.683594 848.808594 1401.191406 C 848.808594 1370.105469 834.367188 1342.34375 811.867188 1324.199219 L 1112.210938 1199.78125 C 1109.128906 1228.507812 1118.527344 1258.382812 1140.527344 1280.351562 C 1159.792969 1299.617188 1185.125 1309.261719 1210.425781 1309.261719 C 1235.726562 1309.261719 1261.058594 1299.617188 1280.320312 1280.351562 C 1318.847656 1241.824219 1318.847656 1179.117188 1280.320312 1140.558594 C 1261.648438 1121.886719 1236.816406 1111.617188 1210.425781 1111.617188 C 1206.847656 1111.617188 1203.296875 1111.835938 1199.78125 1112.210938 L 1324.171875 811.929688 C 1342.3125 834.429688 1370.074219 848.871094 1401.160156 848.871094 C 1455.652344 848.871094 1500 804.523438 1500 750.03125 C 1500 695.539062 1455.652344 651.191406 1401.160156 651.191406 Z M 1119.273438 1092.851562 C 1111.992188 1085.570312 1100.164062 1085.570312 1092.851562 1092.851562 C 1085.570312 1100.136719 1085.570312 1111.960938 1092.851562 1119.273438 L 1126.867188 1153.289062 L 768.671875 1301.671875 L 768.671875 1253.558594 C 768.671875 1243.257812 760.300781 1234.886719 750 1234.886719 C 739.699219 1234.886719 731.328125 1243.257812 731.328125 1253.558594 L 731.328125 1301.671875 L 373.132812 1153.289062 L 407.148438 1119.273438 C 414.429688 1111.992188 414.429688 1100.164062 407.148438 1092.851562 C 399.863281 1085.570312 388.039062 1085.570312 380.726562 1092.851562 L 346.710938 1126.867188 L 198.328125 768.671875 L 246.441406 768.671875 C 256.742188 768.671875 265.113281 760.300781 265.113281 750 C 265.113281 739.699219 256.742188 731.328125 246.441406 731.328125 L 198.328125 731.328125 L 346.710938 373.132812 L 380.726562 407.148438 C 384.367188 410.789062 389.160156 412.625 393.921875 412.625 C 398.683594 412.625 403.476562 410.789062 407.117188 407.148438 C 414.398438 399.863281 414.398438 388.039062 407.117188 380.726562 L 373.101562 346.710938 L 731.296875 198.328125 L 731.296875 246.441406 C 731.296875 256.742188 739.667969 265.113281 749.96875 265.113281 C 760.269531 265.113281 768.640625 256.742188 768.640625 246.441406 L 768.640625 198.328125 L 1126.835938 346.710938 L 1092.820312 380.726562 C 1085.539062 388.007812 1085.539062 399.832031 1092.820312 407.148438 C 1096.460938 410.789062 1101.253906 412.625 1106.015625 412.625 C 1110.777344 412.625 1115.570312 410.789062 1119.210938 407.148438 L 1153.226562 373.132812 L 1301.609375 731.328125 L 1253.496094 731.328125 C 1243.195312 731.328125 1234.824219 739.699219 1234.824219 750 C 1234.824219 760.300781 1243.195312 768.671875 1253.496094 768.671875 L 1301.609375 768.671875 L 1153.226562 1126.867188 L 1119.210938 1092.851562 Z M 1166.949219 246.070312 C 1178.558594 234.460938 1194.023438 228.050781 1210.425781 228.050781 C 1226.824219 228.050781 1242.292969 234.460938 1253.902344 246.070312 C 1277.894531 270.0625 1277.894531 309.054688 1253.902344 333.050781 C 1242.292969 344.65625 1226.824219 351.070312 1210.425781 351.070312 C 1194.023438 351.070312 1178.558594 344.65625 1166.949219 333.050781 C 1142.957031 309.054688 1142.957031 270.0625 1166.949219 246.070312 Z M 750 37.34375 C 783.921875 37.34375 811.492188 64.949219 811.492188 98.839844 C 811.492188 132.726562 783.890625 160.332031 750 160.332031 C 716.109375 160.332031 688.507812 132.726562 688.507812 98.839844 C 688.507812 64.949219 716.109375 37.34375 750 37.34375 Z M 246.070312 333.050781 C 222.074219 309.054688 222.074219 270.0625 246.070312 246.070312 C 257.675781 234.460938 273.144531 228.050781 289.542969 228.050781 C 305.945312 228.050781 321.410156 234.460938 333.019531 246.070312 C 357.011719 270.0625 357.011719 309.054688 333.019531 333.050781 C 321.410156 344.65625 305.945312 351.070312 289.542969 351.070312 C 273.144531 351.070312 257.675781 344.65625 246.070312 333.050781 Z M 98.839844 811.492188 C 64.917969 811.492188 37.34375 783.890625 37.34375 750 C 37.34375 716.109375 64.949219 688.507812 98.839844 688.507812 C 132.726562 688.507812 160.332031 716.109375 160.332031 750 C 160.332031 783.890625 132.726562 811.492188 98.839844 811.492188 Z M 333.050781 1253.929688 C 321.441406 1265.539062 305.976562 1271.949219 289.574219 1271.949219 C 273.175781 1271.949219 257.707031 1265.539062 246.097656 1253.929688 C 222.105469 1229.9375 222.105469 1190.945312 246.097656 1166.949219 C 257.707031 1155.34375 273.144531 1148.929688 289.574219 1148.929688 C 306.007812 1148.929688 321.441406 1155.34375 333.050781 1166.949219 C 357.011719 1190.945312 357.011719 1229.9375 333.050781 1253.929688 Z M 750 1462.65625 C 716.078125 1462.65625 688.507812 1435.050781 688.507812 1401.160156 C 688.507812 1367.273438 716.109375 1339.667969 750 1339.667969 C 783.890625 1339.667969 811.492188 1367.273438 811.492188 1401.160156 C 811.492188 1435.050781 783.890625 1462.65625 750 1462.65625 Z M 1253.929688 1166.949219 C 1277.894531 1190.945312 1277.894531 1229.9375 1253.929688 1253.929688 C 1242.324219 1265.539062 1226.855469 1271.949219 1210.457031 1271.949219 C 1194.054688 1271.949219 1178.589844 1265.539062 1166.980469 1253.929688 C 1142.988281 1229.9375 1142.988281 1190.945312 1166.980469 1166.949219 C 1178.589844 1155.34375 1194.023438 1148.929688 1210.457031 1148.929688 C 1226.886719 1148.929688 1242.324219 1155.34375 1253.929688 1166.949219 Z M 1401.160156 811.492188 C 1367.242188 811.492188 1339.667969 783.890625 1339.667969 750 C 1339.667969 716.109375 1367.273438 688.507812 1401.160156 688.507812 C 1435.050781 688.507812 1462.65625 716.109375 1462.65625 750 C 1462.65625 783.890625 1435.050781 811.492188 1401.160156 811.492188 Z M 1173.609375 1247.273438 C 1183.445312 1257.105469 1196.546875 1262.519531 1210.457031 1262.519531 C 1224.367188 1262.519531 1237.4375 1257.105469 1247.273438 1247.273438 C 1257.105469 1237.4375 1262.519531 1224.335938 1262.519531 1210.425781 C 1262.519531 1196.515625 1257.105469 1183.445312 1247.273438 1173.578125 C 1237.4375 1163.714844 1224.335938 1158.328125 1210.425781 1158.328125 C 1196.515625 1158.328125 1183.445312 1163.746094 1173.578125 1173.578125 C 1163.746094 1183.414062 1158.328125 1196.515625 1158.328125 1210.425781 C 1158.328125 1224.335938 1163.746094 1237.40625 1173.578125 1247.273438 Z M 1200 1200 C 1202.769531 1197.230469 1206.472656 1195.675781 1210.425781 1195.675781 C 1214.378906 1195.675781 1218.082031 1197.199219 1220.851562 1200 C 1223.621094 1202.800781 1225.175781 1206.472656 1225.175781 1210.425781 C 1225.175781 1214.378906 1223.652344 1218.082031 1220.851562 1220.851562 C 1218.082031 1223.652344 1214.378906 1225.175781 1210.425781 1225.175781 C 1206.472656 1225.175781 1202.769531 1223.652344 1200 1220.851562 C 1197.230469 1218.050781 1195.675781 1214.378906 1195.675781 1210.425781 C 1195.675781 1206.472656 1197.199219 1202.769531 1200 1200 Z M 750 1349.066406 C 721.277344 1349.066406 697.90625 1372.4375 697.90625 1401.160156 C 697.90625 1429.886719 721.277344 1453.257812 750 1453.257812 C 778.722656 1453.257812 802.09375 1429.886719 802.09375 1401.160156 C 802.09375 1372.4375 778.722656 1349.066406 750 1349.066406 Z M 750 1415.914062 C 741.878906 1415.914062 735.25 1409.285156 735.25 1401.160156 C 735.25 1393.039062 741.878906 1386.410156 750 1386.410156 C 758.121094 1386.410156 764.75 1393.039062 764.75 1401.160156 C 764.75 1409.285156 758.121094 1415.914062 750 1415.914062 Z M 289.574219 1158.328125 C 275.664062 1158.328125 262.59375 1163.746094 252.757812 1173.578125 C 242.925781 1183.414062 237.511719 1196.515625 237.511719 1210.425781 C 237.511719 1224.335938 242.925781 1237.40625 252.757812 1247.273438 C 262.59375 1257.105469 275.664062 1262.519531 289.574219 1262.519531 C 303.484375 1262.519531 316.554688 1257.105469 326.421875 1247.273438 C 336.253906 1237.4375 341.671875 1224.367188 341.671875 1210.425781 C 341.671875 1196.484375 336.253906 1183.445312 326.421875 1173.578125 C 316.585938 1163.714844 303.484375 1158.328125 289.574219 1158.328125 Z M 300 1220.882812 C 297.230469 1223.652344 293.527344 1225.207031 289.574219 1225.207031 C 285.621094 1225.207031 281.917969 1223.683594 279.148438 1220.882812 C 276.378906 1218.082031 274.824219 1214.378906 274.824219 1210.457031 C 274.824219 1206.535156 276.347656 1202.800781 279.148438 1200.03125 C 281.949219 1197.261719 285.621094 1195.707031 289.574219 1195.707031 C 293.527344 1195.707031 297.230469 1197.230469 300 1200.03125 C 302.769531 1202.832031 304.324219 1206.503906 304.324219 1210.457031 C 304.324219 1214.410156 302.800781 1218.113281 300 1220.882812 Z M 98.839844 697.90625 C 70.113281 697.90625 46.742188 721.277344 46.742188 750 C 46.742188 778.722656 70.113281 802.09375 98.839844 802.09375 C 127.5625 802.09375 150.933594 778.722656 150.933594 750 C 150.933594 721.277344 127.5625 697.90625 98.839844 697.90625 Z M 98.839844 764.75 C 90.714844 764.75 84.085938 758.121094 84.085938 750 C 84.085938 741.878906 90.714844 735.25 98.839844 735.25 C 106.960938 735.25 113.589844 741.878906 113.589844 750 C 113.589844 758.121094 106.960938 764.75 98.839844 764.75 Z M 326.390625 252.726562 C 316.554688 242.894531 303.453125 237.480469 289.542969 237.480469 C 275.632812 237.480469 262.5625 242.894531 252.726562 252.726562 C 242.894531 262.5625 237.480469 275.664062 237.480469 289.574219 C 237.480469 303.484375 242.894531 316.554688 252.726562 326.421875 C 262.5625 336.253906 275.664062 341.671875 289.574219 341.671875 C 303.484375 341.671875 316.554688 336.253906 326.421875 326.421875 C 336.253906 316.585938 341.671875 303.515625 341.671875 289.574219 C 341.671875 275.632812 336.253906 262.59375 326.421875 252.726562 Z M 300 300 C 297.230469 302.769531 293.527344 304.324219 289.574219 304.324219 C 285.621094 304.324219 281.917969 302.800781 279.148438 300 C 276.347656 297.230469 274.824219 293.527344 274.824219 289.574219 C 274.824219 285.621094 276.347656 281.917969 279.148438 279.148438 C 281.917969 276.347656 285.621094 274.824219 289.574219 274.824219 C 293.527344 274.824219 297.230469 276.347656 300 279.148438 C 302.769531 281.949219 304.324219 285.621094 304.324219 289.574219 C 304.324219 293.527344 302.800781 297.230469 300 300 Z M 992.738281 660.1875 C 956.140625 561.597656 861.160156 491.171875 750 491.171875 C 638.839844 491.171875 543.859375 561.597656 507.261719 660.15625 C 506.824219 661.121094 506.453125 662.117188 506.203125 663.175781 C 496.492188 690.34375 491.171875 719.5625 491.171875 750 C 491.171875 780.4375 496.492188 809.6875 506.203125 836.855469 C 506.484375 837.882812 506.824219 838.910156 507.261719 839.84375 C 543.859375 938.402344 638.839844 1008.828125 750 1008.828125 C 861.160156 1008.828125 956.171875 938.371094 992.738281 839.8125 C 993.175781 838.878906 993.515625 837.882812 993.796875 836.886719 C 1003.507812 809.71875 1008.828125 780.464844 1008.828125 750 C 1008.828125 719.53125 1003.507812 690.28125 993.796875 663.113281 C 993.515625 662.085938 993.175781 661.121094 992.738281 660.1875 Z M 528.515625 750 C 528.515625 727.964844 531.785156 706.679688 537.820312 686.578125 L 608.339844 686.578125 C 605.570312 706.804688 604.078125 728.027344 604.078125 750 C 604.078125 771.972656 605.570312 793.164062 608.339844 813.421875 L 537.820312 813.421875 C 531.816406 793.320312 528.515625 772.03125 528.515625 750 Z M 641.390625 750 C 641.390625 728.058594 643.070312 706.773438 646.152344 686.578125 L 731.359375 686.578125 L 731.359375 813.390625 L 646.152344 813.390625 C 643.070312 793.195312 641.390625 771.910156 641.390625 749.96875 Z M 846.253906 649.230469 L 768.671875 649.230469 L 768.671875 532.003906 C 802.09375 544.386719 830.757812 589.171875 846.253906 649.230469 Z M 731.328125 532.003906 L 731.328125 649.230469 L 653.746094 649.230469 C 669.242188 589.171875 697.90625 544.386719 731.328125 532.003906 Z M 731.328125 850.765625 L 731.328125 967.996094 C 697.90625 955.613281 669.242188 910.828125 653.746094 850.765625 Z M 768.671875 967.996094 L 768.671875 850.765625 L 846.253906 850.765625 C 830.757812 910.828125 802.09375 955.613281 768.671875 967.996094 Z M 768.671875 813.421875 L 768.671875 686.609375 L 853.878906 686.609375 C 856.960938 706.804688 858.640625 728.089844 858.640625 750.03125 C 858.640625 771.972656 856.960938 793.257812 853.878906 813.453125 L 768.671875 813.453125 Z M 891.691406 686.578125 L 962.210938 686.578125 C 968.214844 706.679688 971.515625 727.964844 971.515625 750 C 971.515625 772.03125 968.246094 793.320312 962.210938 813.421875 L 891.691406 813.421875 C 894.460938 793.195312 895.953125 771.972656 895.953125 750 C 895.953125 728.027344 894.460938 706.835938 891.691406 686.578125 Z M 947.148438 649.230469 L 884.84375 649.230469 C 875.695312 609.742188 861.222656 575.476562 842.957031 549.023438 C 887.832031 569.875 924.585938 605.320312 947.117188 649.230469 Z M 657.011719 549.023438 C 638.746094 575.476562 624.304688 609.742188 615.125 649.230469 L 552.820312 649.230469 C 575.351562 605.320312 612.105469 569.875 656.980469 549.023438 Z M 552.851562 850.765625 L 615.15625 850.765625 C 624.304688 890.257812 638.777344 924.523438 657.042969 950.976562 C 612.167969 930.125 575.414062 894.679688 552.882812 850.765625 Z M 842.988281 950.976562 C 861.253906 924.523438 875.695312 890.257812 884.875 850.765625 L 947.179688 850.765625 C 924.648438 894.679688 887.894531 930.125 843.019531 950.976562 Z M 842.988281 950.976562 " fill-opacity="1" fill-rule="nonzero"/></svg>