<svg xmlns="http://www.w3.org/2000/svg" xmlns:xlink="http://www.w3.org/1999/xlink" width="2000" zoomAndPan="magnify" viewBox="0 0 1500 1499.999933" height="2000" preserveAspectRatio="xMidYMid meet" version="1.0"><defs><clipPath id="40accbd974"><path d="M 26.835938 26.835938 L 1472.835938 26.835938 L 1472.835938 1472.835938 L 26.835938 1472.835938 Z M 26.835938 26.835938 " clip-rule="nonzero"/></clipPath></defs><path fill="#c4923a" d="M 833.628906 639.941406 L 716.691406 764.765625 L 666.449219 710.625 C 649.730469 692.78125 621.667969 691.65625 603.734375 708.375 C 585.804688 725.09375 584.765625 753.15625 601.484375 771.089844 L 684.121094 859.960938 C 692.523438 868.96875 704.214844 874.082031 716.515625 874.082031 L 716.601562 874.082031 C 728.902344 874.082031 740.597656 868.96875 749 860.046875 L 898.421875 700.578125 C 915.136719 682.734375 914.183594 654.671875 896.339844 637.867188 C 878.410156 621.234375 850.429688 622.015625 833.625 639.945312 Z M 833.628906 639.941406 " fill-opacity="1" fill-rule="nonzero"/><g clip-path="url(#40accbd974)"><path fill="#c4923a" d="M 1402.902344 603.476562 L 1366.695312 594.554688 C 1332.21875 586.066406 1303.375 561.03125 1288.910156 526.035156 C 1274.875 492.515625 1277.5625 454.3125 1296.011719 423.824219 L 1315.328125 391.945312 C 1337.332031 355.480469 1331.699219 308.875 1301.554688 278.816406 L 1221.171875 198.433594 C 1191.113281 168.375 1144.683594 162.660156 1107.957031 184.746094 L 1076.167969 203.976562 C 1045.242188 222.773438 1007.824219 225.199219 972.394531 210.558594 C 938.957031 196.699219 913.925781 167.769531 905.4375 133.207031 L 896.515625 97.171875 C 886.378906 55.765625 849.476562 26.835938 806.773438 26.835938 L 693.214844 26.835938 C 650.507812 26.835938 613.609375 55.765625 603.472656 97.085938 L 594.550781 133.207031 C 585.976562 167.855469 560.941406 196.785156 526.121094 211.164062 C 492.078125 225.457031 454.746094 222.6875 423.820312 203.976562 L 391.945312 184.660156 C 355.304688 162.65625 308.789062 168.289062 278.816406 198.433594 L 198.433594 278.816406 C 168.289062 308.875 162.65625 355.476562 184.746094 392.03125 L 203.976562 423.824219 C 222.425781 454.398438 225.109375 492.601562 210.558594 527.59375 C 196.699219 561.03125 167.765625 586.066406 133.203125 594.554688 L 97.171875 603.476562 C 55.765625 613.609375 26.832031 650.511719 26.832031 693.214844 L 26.832031 806.777344 C 26.832031 849.480469 55.765625 886.378906 97.082031 896.515625 L 133.292969 905.4375 C 167.855469 913.925781 196.699219 938.960938 211.078125 973.953125 C 225.109375 1007.476562 222.425781 1045.675781 203.972656 1076.167969 L 184.65625 1108.042969 C 162.65625 1144.511719 168.285156 1191.113281 198.429688 1221.171875 L 278.816406 1301.558594 C 308.871094 1331.703125 355.386719 1337.417969 392.03125 1315.242188 L 423.820312 1296.015625 C 454.222656 1277.652344 492.425781 1274.878906 527.679688 1289.519531 C 561.027344 1303.375 586.0625 1332.222656 594.550781 1366.785156 L 603.472656 1402.820312 C 613.605469 1444.226562 650.507812 1473.15625 693.210938 1473.15625 L 806.773438 1473.15625 C 849.476562 1473.15625 886.378906 1444.226562 896.511719 1402.90625 L 905.433594 1366.699219 C 913.921875 1332.136719 938.957031 1303.292969 973.953125 1288.910156 C 1007.386719 1274.792969 1045.585938 1277.390625 1076.164062 1296.015625 L 1108.042969 1315.332031 C 1144.683594 1337.246094 1191.199219 1331.703125 1221.167969 1301.472656 L 1301.554688 1221.175781 C 1331.699219 1191.117188 1337.328125 1144.515625 1315.242188 1107.960938 L 1296.011719 1076.171875 C 1277.558594 1045.679688 1274.875 1007.480469 1289.515625 972.3125 C 1303.289062 938.960938 1332.132812 913.929688 1366.78125 905.441406 L 1402.816406 896.519531 C 1444.222656 886.382812 1473.152344 849.484375 1473.152344 806.777344 L 1473.152344 693.21875 C 1473.152344 650.515625 1444.222656 613.613281 1402.902344 603.476562 Z M 1384.453125 806.777344 L 1345.558594 819.335938 C 1283.625 834.496094 1232.085938 879.019531 1206.964844 939.824219 C 1182.191406 999.335938 1187.042969 1067.503906 1220.132812 1122.078125 L 1238.84375 1158.457031 L 1153.867188 1239.363281 L 1122.078125 1220.132812 C 1067.59375 1187.128906 999.507812 1182.105469 938.527344 1207.574219 C 879.101562 1232.085938 834.492188 1283.625 819.335938 1345.472656 L 806.773438 1384.453125 L 689.574219 1381.59375 L 680.652344 1345.558594 C 665.496094 1283.710938 620.972656 1232.085938 560.164062 1206.964844 C 535.042969 1196.484375 508.363281 1191.375 481.769531 1191.375 C 445.476562 1191.375 409.441406 1201.074219 377.914062 1220.132812 L 341.53125 1238.84375 L 260.625 1153.867188 L 279.855469 1122.078125 C 312.945312 1067.507812 317.796875 999.335938 292.417969 938.527344 C 267.902344 879.019531 216.363281 834.496094 154.515625 819.335938 L 115.535156 806.777344 L 118.394531 689.578125 L 154.429688 680.65625 C 216.191406 665.496094 267.816406 620.972656 292.9375 560.164062 C 317.796875 500.742188 312.945312 432.574219 279.859375 377.914062 L 261.148438 341.53125 L 346.121094 260.628906 L 377.914062 279.859375 C 432.570312 312.863281 500.652344 317.710938 561.464844 292.503906 C 620.800781 267.992188 665.410156 216.453125 680.65625 154.515625 L 693.214844 115.539062 L 810.414062 118.398438 L 819.335938 154.433594 C 834.496094 216.191406 879.019531 267.820312 939.824219 293.027344 C 999.335938 317.886719 1067.503906 312.863281 1122.078125 279.859375 L 1158.457031 261.148438 L 1239.363281 346.125 L 1220.132812 377.914062 C 1187.042969 432.484375 1182.191406 500.65625 1207.574219 561.464844 C 1232.085938 620.972656 1283.710938 665.496094 1345.472656 680.65625 L 1384.453125 693.21875 Z M 1384.453125 806.777344 " fill-opacity="1" fill-rule="nonzero"/></g><path fill="#c4923a" d="M 750.039062 381.117188 C 546.648438 381.117188 381.117188 546.648438 381.117188 750.039062 C 381.117188 953.425781 546.648438 1118.871094 750.039062 1118.871094 C 953.425781 1118.871094 1118.871094 953.425781 1118.871094 750.039062 C 1118.871094 546.648438 953.425781 381.117188 750.039062 381.117188 Z M 750.039062 1030.171875 C 595.503906 1030.171875 469.816406 904.484375 469.816406 750.039062 C 469.816406 595.59375 595.503906 469.820312 750.039062 469.820312 C 904.570312 469.820312 1030.171875 595.507812 1030.171875 750.039062 C 1030.171875 904.570312 904.484375 1030.171875 750.039062 1030.171875 Z M 750.039062 1030.171875 " fill-opacity="1" fill-rule="nonzero"/></svg>