<svg xmlns="http://www.w3.org/2000/svg" xmlns:xlink="http://www.w3.org/1999/xlink" width="2000" zoomAndPan="magnify" viewBox="0 0 1500 1499.999933" height="2000" preserveAspectRatio="xMidYMid meet" version="1.0"><defs><clipPath id="18fbf6484e"><path d="M 51 40.015625 L 1459.765625 40.015625 L 1459.765625 1459.765625 L 51 1459.765625 Z M 51 40.015625 " clip-rule="nonzero"/></clipPath><clipPath id="16280fe023"><path d="M 352 657 L 1292 657 L 1292 1419.765625 L 352 1419.765625 Z M 352 657 " clip-rule="nonzero"/></clipPath><clipPath id="8af88bb9e3"><path d="M 1203 994 L 1408.765625 994 L 1408.765625 1083 L 1203 1083 Z M 1203 994 " clip-rule="nonzero"/></clipPath><clipPath id="18f6a1dc32"><path d="M 1320 891 L 1408.765625 891 L 1408.765625 1186 L 1320 1186 Z M 1320 891 " clip-rule="nonzero"/></clipPath><clipPath id="89e7056e52"><path d="M 0.601562 11 L 735 11 L 735 746 L 0.601562 746 Z M 0.601562 11 " clip-rule="nonzero"/></clipPath><clipPath id="840f08b046"><rect x="0" width="1409" y="0" height="1420"/></clipPath></defs><rect x="-150" width="1800" fill="#ffffff" y="-149.999993" height="1799.99992" fill-opacity="1"/><rect x="-150" width="1800" fill="#ffffff" y="-149.999993" height="1799.99992" fill-opacity="1"/><g clip-path="url(#18fbf6484e)"><g transform="matrix(1, 0, 0, 1, 51, 40)"><g clip-path="url(#840f08b046)"><path fill="#c4923a" d="M 646.1875 1067.917969 C 710.90625 1067.917969 763.539062 1015.285156 763.539062 950.566406 C 763.539062 885.847656 710.90625 833.214844 646.1875 833.214844 C 581.46875 833.214844 528.835938 885.847656 528.835938 950.566406 C 528.835938 1015.285156 581.46875 1067.917969 646.1875 1067.917969 Z M 646.1875 921.230469 C 662.324219 921.230469 675.523438 934.429688 675.523438 950.566406 C 675.523438 966.703125 662.324219 979.90625 646.1875 979.90625 C 630.050781 979.90625 616.847656 966.703125 616.847656 950.566406 C 616.847656 934.429688 630.050781 921.230469 646.1875 921.230469 Z M 646.1875 921.230469 " fill-opacity="1" fill-rule="nonzero"/><path fill="#c4923a" d="M 998.242188 1067.917969 C 1062.960938 1067.917969 1115.59375 1015.285156 1115.59375 950.566406 C 1115.59375 885.847656 1062.960938 833.214844 998.242188 833.214844 C 933.523438 833.214844 880.890625 885.847656 880.890625 950.566406 C 880.890625 1015.285156 933.523438 1067.917969 998.242188 1067.917969 Z M 998.242188 921.230469 C 1014.378906 921.230469 1027.582031 934.429688 1027.582031 950.566406 C 1027.582031 966.703125 1014.378906 979.90625 998.242188 979.90625 C 982.105469 979.90625 968.90625 966.703125 968.90625 950.566406 C 968.90625 934.429688 982.105469 921.230469 998.242188 921.230469 Z M 998.242188 921.230469 " fill-opacity="1" fill-rule="nonzero"/><g clip-path="url(#16280fe023)"><path fill="#c4923a" d="M 514.164062 1419.976562 L 1130.265625 1419.976562 C 1219.277344 1419.976562 1291.625 1347.628906 1291.625 1258.617188 L 1291.625 818.546875 C 1291.625 729.535156 1219.277344 657.1875 1130.265625 657.1875 L 866.222656 657.1875 C 841.929688 657.1875 822.214844 676.902344 822.214844 701.195312 C 822.214844 725.484375 841.929688 745.199219 866.222656 745.199219 L 1130.265625 745.199219 C 1170.691406 745.199219 1203.609375 778.117188 1203.609375 818.546875 L 1203.609375 1258.617188 C 1203.609375 1299.042969 1170.691406 1331.960938 1130.265625 1331.960938 L 514.164062 1331.960938 C 473.738281 1331.960938 440.820312 1299.042969 440.820312 1258.617188 L 440.820312 818.546875 C 440.820312 794.253906 421.105469 774.539062 396.8125 774.539062 C 372.523438 774.539062 352.804688 794.253906 352.804688 818.546875 L 352.804688 1258.617188 C 352.804688 1347.628906 425.152344 1419.976562 514.164062 1419.976562 Z M 514.164062 1419.976562 " fill-opacity="1" fill-rule="nonzero"/></g><path fill="#c4923a" d="M 690.195312 1243.945312 L 954.234375 1243.945312 C 978.527344 1243.945312 998.242188 1224.230469 998.242188 1199.941406 C 998.242188 1175.648438 978.527344 1155.933594 954.234375 1155.933594 L 690.195312 1155.933594 C 665.902344 1155.933594 646.1875 1175.648438 646.1875 1199.941406 C 646.1875 1224.230469 665.902344 1243.945312 690.195312 1243.945312 Z M 690.195312 1243.945312 " fill-opacity="1" fill-rule="nonzero"/><path fill="#c4923a" d="M 279.460938 1082.585938 L 396.8125 1082.585938 C 421.105469 1082.585938 440.820312 1062.871094 440.820312 1038.582031 C 440.820312 1014.289062 421.105469 994.574219 396.8125 994.574219 L 279.460938 994.574219 C 255.167969 994.574219 235.453125 1014.289062 235.453125 1038.582031 C 235.453125 1062.871094 255.167969 1082.585938 279.460938 1082.585938 Z M 279.460938 1082.585938 " fill-opacity="1" fill-rule="nonzero"/><path fill="#c4923a" d="M 279.460938 1185.269531 C 303.753906 1185.269531 323.46875 1165.554688 323.46875 1141.265625 L 323.46875 935.898438 C 323.46875 911.605469 303.753906 891.890625 279.460938 891.890625 C 255.167969 891.890625 235.453125 911.605469 235.453125 935.898438 L 235.453125 1141.265625 C 235.453125 1165.554688 255.167969 1185.269531 279.460938 1185.269531 Z M 279.460938 1185.269531 " fill-opacity="1" fill-rule="nonzero"/><g clip-path="url(#8af88bb9e3)"><path fill="#c4923a" d="M 1247.617188 1082.585938 L 1364.96875 1082.585938 C 1389.261719 1082.585938 1408.976562 1062.871094 1408.976562 1038.582031 C 1408.976562 1014.289062 1389.261719 994.574219 1364.96875 994.574219 L 1247.617188 994.574219 C 1223.324219 994.574219 1203.609375 1014.289062 1203.609375 1038.582031 C 1203.609375 1062.871094 1223.324219 1082.585938 1247.617188 1082.585938 Z M 1247.617188 1082.585938 " fill-opacity="1" fill-rule="nonzero"/></g><g clip-path="url(#18f6a1dc32)"><path fill="#c4923a" d="M 1364.96875 1185.269531 C 1389.261719 1185.269531 1408.976562 1165.554688 1408.976562 1141.265625 L 1408.976562 935.898438 C 1408.976562 911.605469 1389.261719 891.890625 1364.96875 891.890625 C 1340.675781 891.890625 1320.960938 911.605469 1320.960938 935.898438 L 1320.960938 1141.265625 C 1320.960938 1165.554688 1340.675781 1185.269531 1364.96875 1185.269531 Z M 1364.96875 1185.269531 " fill-opacity="1" fill-rule="nonzero"/></g><g clip-path="url(#89e7056e52)"><path fill="#c4923a" d="M 690.195312 745.199219 C 701.753906 745.199219 713.019531 740.683594 721.292969 732.292969 C 731.738281 721.847656 736.195312 706.945312 733.320312 692.507812 L 694.007812 495.886719 C 692.304688 487.378906 688.082031 479.574219 681.980469 473.414062 L 249.417969 40.851562 C 210.574219 2.007812 147.441406 2.007812 108.597656 40.851562 L 29.910156 119.539062 C -8.929688 158.382812 -8.929688 221.515625 29.910156 260.359375 L 462.472656 692.921875 C 468.574219 699.023438 476.4375 703.246094 484.945312 704.949219 L 681.566406 744.261719 C 684.445312 744.90625 687.320312 745.199219 690.195312 745.199219 Z M 610.394531 526.339844 L 634.097656 645.097656 L 515.339844 621.394531 L 92.167969 198.222656 C 87.648438 193.703125 87.648438 186.371094 92.167969 181.851562 L 170.851562 103.167969 C 175.3125 98.707031 182.761719 98.707031 187.222656 103.167969 Z M 610.394531 526.339844 " fill-opacity="1" fill-rule="nonzero"/></g></g></g></g></svg>