<svg xmlns="http://www.w3.org/2000/svg" xmlns:xlink="http://www.w3.org/1999/xlink" width="2000" zoomAndPan="magnify" viewBox="0 0 1500 1499.999933" height="2000" preserveAspectRatio="xMidYMid meet" version="1.0"><defs><clipPath id="bc2ee88981"><path d="M 1282 1272 L 1466 1272 L 1466 1455.617188 L 1282 1455.617188 Z M 1282 1272 " clip-rule="nonzero"/></clipPath><clipPath id="a984b4272f"><path d="M 34.277344 44.117188 L 751 44.117188 L 751 1331 L 34.277344 1331 Z M 34.277344 44.117188 " clip-rule="nonzero"/></clipPath></defs><path fill="#c4923a" d="M 991.097656 1420.074219 L 190.230469 1420.074219 C 157.976562 1420.074219 131.851562 1393.949219 131.851562 1361.695312 L 131.851562 192.484375 C 131.851562 160.230469 157.976562 134.105469 190.230469 134.105469 L 816.605469 134.105469 C 821.441406 134.105469 826.28125 136.042969 829.828125 139.589844 L 1044.316406 354.402344 C 1047.863281 357.949219 1049.800781 362.464844 1049.800781 367.625 L 1049.800781 601.46875 C 1049.800781 611.789062 1041.414062 620.175781 1031.09375 620.175781 C 1020.773438 620.175781 1012.386719 611.789062 1012.386719 601.46875 L 1012.386719 375.042969 L 808.863281 171.199219 L 190.230469 171.199219 C 178.621094 171.199219 168.945312 180.550781 168.945312 192.488281 L 168.945312 1361.695312 C 168.945312 1373.304688 178.296875 1382.980469 190.230469 1382.980469 L 991.097656 1382.980469 C 1002.710938 1382.980469 1012.386719 1373.628906 1012.386719 1361.695312 L 1012.386719 1146.238281 C 1012.386719 1135.914062 1020.773438 1127.53125 1031.09375 1127.53125 C 1041.414062 1127.53125 1049.800781 1135.914062 1049.800781 1146.238281 L 1049.800781 1361.695312 C 1049.476562 1393.949219 1023.351562 1420.074219 991.097656 1420.074219 Z M 991.097656 1420.074219 " fill-opacity="1" fill-rule="nonzero"/><path fill="#c4923a" d="M 1030.769531 386.332031 L 855.308594 386.332031 C 823.378906 386.332031 797.25 360.207031 797.25 328.277344 L 797.25 152.8125 C 797.25 142.492188 805.636719 134.105469 815.957031 134.105469 L 816.605469 134.105469 C 821.441406 134.105469 826.28125 136.042969 829.828125 139.589844 L 1044.316406 354.402344 C 1047.863281 357.949219 1049.800781 362.464844 1049.800781 367.625 C 1049.476562 377.945312 1041.089844 386.332031 1030.769531 386.332031 Z M 834.667969 197 L 834.667969 328.277344 C 834.667969 339.886719 844.019531 349.242188 855.632812 349.242188 L 986.582031 349.242188 Z M 834.667969 197 " fill-opacity="1" fill-rule="nonzero"/><path fill="#c4923a" d="M 1282.675781 1436.523438 C 1282.351562 1436.523438 1282.027344 1436.523438 1281.382812 1436.523438 C 1270.09375 1436.199219 1259.773438 1431.363281 1252.355469 1423.300781 L 1021.09375 1165.589844 C 1005.613281 1148.496094 1005.933594 1122.371094 1021.738281 1106.566406 L 1115.597656 1012.707031 C 1131.402344 996.902344 1157.207031 996.578125 1174.625 1012.058594 L 1432.332031 1243.320312 C 1440.394531 1250.738281 1445.234375 1261.0625 1445.558594 1272.351562 C 1445.878906 1283.960938 1441.363281 1295.574219 1432.976562 1303.636719 L 1312.347656 1424.265625 C 1304.929688 1432.007812 1293.964844 1436.523438 1282.675781 1436.523438 Z M 1048.511719 1132.691406 C 1046.253906 1134.949219 1047.21875 1138.496094 1049.15625 1140.429688 L 1280.417969 1398.140625 C 1281.0625 1398.785156 1281.707031 1399.109375 1282.675781 1399.109375 C 1283.964844 1399.109375 1285.898438 1398.464844 1286.867188 1397.496094 L 1407.496094 1276.867188 C 1408.464844 1275.898438 1409.109375 1274.285156 1409.109375 1272.671875 C 1409.109375 1271.707031 1408.789062 1270.738281 1408.140625 1270.414062 L 1150.433594 1039.152344 C 1148.175781 1037.21875 1144.628906 1036.25 1142.691406 1038.507812 Z M 1048.511719 1132.691406 " fill-opacity="1" fill-rule="nonzero"/><path fill="#c4923a" d="M 1097.859375 1241.386719 C 1093.019531 1241.386719 1088.503906 1239.449219 1084.632812 1235.902344 C 1077.539062 1228.808594 1077.539062 1216.875 1084.632812 1209.777344 L 1219.132812 1075.277344 C 1226.230469 1068.183594 1238.164062 1068.183594 1245.257812 1075.277344 C 1252.355469 1082.375 1252.355469 1094.308594 1245.257812 1101.402344 L 1110.761719 1235.902344 C 1107.535156 1239.773438 1102.695312 1241.386719 1097.859375 1241.386719 Z M 1097.859375 1241.386719 " fill-opacity="1" fill-rule="nonzero"/><path fill="#c4923a" d="M 1216.875 1374.273438 C 1212.039062 1374.273438 1207.523438 1372.335938 1203.652344 1368.789062 C 1196.554688 1361.695312 1196.554688 1349.761719 1203.652344 1342.664062 L 1352.019531 1194.296875 C 1359.117188 1187.199219 1371.050781 1187.199219 1378.144531 1194.296875 C 1385.242188 1201.390625 1385.242188 1213.324219 1378.144531 1220.421875 L 1229.777344 1368.789062 C 1226.550781 1372.335938 1221.714844 1374.273438 1216.875 1374.273438 Z M 1216.875 1374.273438 " fill-opacity="1" fill-rule="nonzero"/><g clip-path="url(#bc2ee88981)"><path fill="#c4923a" d="M 1363.308594 1455.875 C 1336.214844 1455.875 1310.414062 1445.230469 1291.382812 1425.878906 C 1290.09375 1424.589844 1288.800781 1423.300781 1287.511719 1421.6875 C 1281.0625 1414.269531 1281.382812 1402.980469 1288.15625 1396.207031 L 1405.882812 1278.480469 C 1412.980469 1271.382812 1423.945312 1271.058594 1431.363281 1277.832031 C 1432.65625 1279.125 1433.945312 1280.414062 1435.558594 1281.703125 C 1475.230469 1321.375 1475.230469 1385.882812 1435.558594 1425.878906 C 1416.207031 1445.230469 1390.726562 1455.875 1363.308594 1455.875 Z M 1328.476562 1408.460938 C 1338.796875 1414.914062 1350.730469 1418.460938 1363.308594 1418.460938 C 1380.726562 1418.460938 1396.851562 1411.6875 1409.109375 1399.429688 C 1431.042969 1377.5 1433.945312 1343.953125 1417.820312 1318.796875 Z M 1328.476562 1408.460938 " fill-opacity="1" fill-rule="nonzero"/></g><path fill="#c4923a" d="M 1035.609375 1137.851562 C 1030.769531 1137.851562 1025.933594 1135.914062 1022.382812 1132.367188 L 988.839844 1098.824219 C 981.746094 1091.726562 977.875 1082.375 977.875 1072.375 C 977.875 1062.375 981.746094 1053.023438 988.839844 1045.925781 L 1055.285156 979.484375 C 1062.378906 972.386719 1071.734375 968.515625 1081.730469 968.515625 C 1091.730469 968.515625 1101.085938 972.386719 1108.179688 979.484375 L 1141.722656 1013.027344 C 1145.273438 1016.574219 1147.207031 1021.089844 1147.207031 1026.253906 C 1147.207031 1031.089844 1145.273438 1035.929688 1141.722656 1039.476562 L 1048.511719 1132.691406 C 1045.285156 1135.914062 1040.769531 1137.851562 1035.609375 1137.851562 Z M 1082.054688 1005.609375 C 1081.730469 1005.609375 1081.730469 1005.609375 1082.054688 1005.609375 L 1015.289062 1072.054688 C 1015.289062 1072.054688 1015.289062 1072.375 1015.289062 1072.699219 L 1035.609375 1093.019531 L 1102.375 1025.929688 Z M 1082.054688 1005.609375 " fill-opacity="1" fill-rule="nonzero"/><path fill="#c4923a" d="M 1004.96875 1074.957031 C 1000.128906 1074.957031 995.613281 1073.019531 991.742188 1069.472656 L 942.71875 1020.445312 C 938.847656 1016.574219 936.910156 1011.414062 937.234375 1005.933594 C 937.554688 1000.449219 940.460938 995.609375 944.652344 992.386719 C 955.617188 984.320312 965.941406 975.289062 975.292969 965.613281 C 984.648438 956.261719 993.679688 945.941406 1002.0625 934.972656 C 1005.289062 930.78125 1010.128906 927.878906 1015.609375 927.554688 C 1021.09375 927.234375 1026.253906 929.167969 1030.125 933.039062 L 1079.152344 982.0625 C 1082.699219 985.613281 1084.632812 990.128906 1084.632812 995.289062 C 1084.632812 1000.449219 1082.699219 1004.964844 1079.152344 1008.511719 L 1018.191406 1069.472656 C 1014.320312 1073.019531 1009.484375 1074.957031 1004.96875 1074.957031 Z M 983.679688 1008.835938 L 1004.96875 1030.121094 L 1039.800781 995.289062 L 1018.515625 974 C 1013.03125 980.128906 1007.546875 986.257812 1001.742188 992.0625 C 995.9375 997.867188 989.808594 1003.351562 983.679688 1008.835938 Z M 983.679688 1008.835938 " fill-opacity="1" fill-rule="nonzero"/><path fill="#c4923a" d="M 773.382812 1086.566406 C 687.265625 1086.566406 605.984375 1053.023438 545.023438 992.0625 C 484.066406 931.101562 450.519531 850.144531 450.519531 763.703125 C 450.519531 677.265625 484.066406 596.304688 545.023438 535.347656 C 670.816406 409.554688 875.628906 409.554688 1001.742188 535.347656 C 1127.53125 661.136719 1127.53125 865.949219 1001.742188 992.0625 C 940.78125 1053.023438 859.5 1086.566406 773.382812 1086.566406 Z M 571.472656 561.792969 C 517.609375 615.660156 487.9375 687.585938 487.9375 763.703125 C 487.9375 839.824219 517.609375 911.75 571.472656 965.613281 C 625.335938 1019.480469 697.265625 1049.152344 773.382812 1049.152344 C 849.503906 1049.152344 921.429688 1019.480469 975.292969 965.613281 C 1086.570312 854.339844 1086.570312 673.070312 975.292969 561.472656 C 864.015625 450.519531 682.75 450.519531 571.472656 561.792969 Z M 571.472656 561.792969 " fill-opacity="1" fill-rule="nonzero"/><path fill="#c4923a" d="M 773.382812 1009.480469 C 707.585938 1009.480469 645.980469 984 599.535156 937.554688 C 503.738281 841.757812 503.738281 685.648438 599.535156 589.855469 C 695.328125 494.0625 851.4375 494.0625 947.234375 589.855469 C 993.679688 636.300781 1019.160156 697.90625 1019.160156 763.703125 C 1019.160156 829.503906 993.679688 891.109375 947.234375 937.554688 C 900.785156 984 838.859375 1009.480469 773.382812 1009.480469 Z M 625.660156 616.304688 C 544.378906 697.582031 544.378906 830.148438 625.660156 911.429688 C 665.011719 950.777344 717.585938 972.386719 773.0625 972.386719 C 828.539062 972.386719 881.113281 950.777344 920.460938 911.429688 C 959.8125 872.078125 981.421875 819.503906 981.421875 764.027344 C 981.421875 708.550781 959.8125 655.976562 920.460938 616.625 C 839.503906 535.023438 707.261719 535.023438 625.660156 616.304688 Z M 625.660156 616.304688 " fill-opacity="1" fill-rule="nonzero"/><path fill="#c4923a" d="M 728.226562 886.269531 C 713.714844 886.269531 699.84375 880.464844 689.523438 870.464844 L 643.722656 824.664062 C 633.402344 814.34375 627.917969 800.796875 627.917969 785.960938 C 627.917969 771.445312 633.722656 757.578125 643.722656 747.253906 C 654.042969 736.933594 667.589844 731.449219 682.425781 731.449219 C 696.941406 731.449219 710.8125 737.257812 721.132812 747.253906 L 728.226562 754.351562 L 825.957031 656.621094 C 836.277344 646.300781 849.824219 640.816406 864.664062 640.816406 C 879.5 640.816406 893.046875 646.621094 903.367188 656.621094 C 913.6875 666.941406 919.171875 680.488281 919.171875 695.324219 C 919.171875 710.164062 913.367188 723.710938 903.367188 734.03125 L 767.253906 870.144531 C 756.613281 880.785156 742.742188 886.269531 728.226562 886.269531 Z M 682.425781 768.542969 C 677.910156 768.542969 673.394531 770.476562 670.171875 773.703125 C 666.945312 776.929688 665.011719 781.445312 665.011719 785.960938 C 665.011719 790.476562 666.945312 794.992188 670.171875 798.214844 L 715.972656 844.015625 C 719.195312 847.242188 723.710938 849.179688 728.226562 849.179688 C 732.742188 849.179688 737.257812 847.242188 740.484375 844.015625 L 876.597656 707.90625 C 879.820312 704.679688 881.757812 700.164062 881.757812 695.648438 C 881.757812 691.132812 879.820312 686.617188 876.597656 683.390625 C 873.371094 680.167969 868.855469 678.230469 864.339844 678.230469 C 859.824219 678.230469 855.308594 680.167969 852.082031 683.390625 L 741.453125 794.023438 C 734.355469 801.121094 722.421875 801.121094 715.328125 794.023438 L 695.007812 773.703125 C 691.457031 770.476562 686.941406 768.542969 682.425781 768.542969 Z M 682.425781 768.542969 " fill-opacity="1" fill-rule="nonzero"/><g clip-path="url(#a984b4272f)"><path fill="#c4923a" d="M 150.558594 1330.085938 L 93.148438 1330.085938 C 60.894531 1330.085938 34.765625 1303.960938 34.765625 1271.707031 L 34.765625 102.496094 C 34.765625 70.242188 60.894531 44.117188 93.148438 44.117188 L 692.425781 44.117188 C 724.679688 44.117188 750.804688 70.242188 750.804688 102.496094 L 750.804688 152.8125 C 750.804688 163.136719 742.417969 171.519531 732.097656 171.519531 C 721.777344 171.519531 713.390625 163.136719 713.390625 152.8125 L 713.390625 102.496094 C 713.390625 90.886719 704.039062 81.210938 692.101562 81.210938 L 93.148438 81.210938 C 81.535156 81.210938 71.859375 90.886719 71.859375 102.496094 L 71.859375 1271.707031 C 71.859375 1283.316406 81.210938 1292.992188 93.148438 1292.992188 L 150.558594 1292.992188 C 160.878906 1292.992188 169.265625 1301.378906 169.265625 1311.699219 C 169.265625 1321.699219 160.878906 1330.085938 150.558594 1330.085938 Z M 150.558594 1330.085938 " fill-opacity="1" fill-rule="nonzero"/></g><path fill="#c4923a" d="M 709.84375 397.621094 L 256.675781 397.621094 C 233.773438 397.621094 214.746094 378.914062 214.746094 355.691406 L 214.746094 265.058594 C 214.746094 242.15625 233.453125 223.128906 256.675781 223.128906 L 709.519531 223.128906 C 732.421875 223.128906 751.449219 241.835938 751.449219 265.058594 L 751.449219 356.015625 C 751.449219 378.914062 732.742188 397.621094 709.84375 397.621094 Z M 256.675781 260.21875 C 254.09375 260.21875 252.160156 262.476562 252.160156 264.734375 L 252.160156 355.691406 C 252.160156 358.273438 254.417969 360.207031 256.675781 360.207031 L 709.519531 360.207031 C 712.101562 360.207031 714.035156 357.949219 714.035156 355.691406 L 714.035156 265.058594 C 714.035156 262.476562 711.777344 260.542969 709.519531 260.542969 L 256.675781 260.542969 Z M 256.675781 260.21875 " fill-opacity="1" fill-rule="nonzero"/><path fill="#c4923a" d="M 518.253906 497.609375 L 229.902344 497.609375 C 219.582031 497.609375 211.195312 489.222656 211.195312 478.902344 C 211.195312 468.582031 219.582031 460.195312 229.902344 460.195312 L 518.253906 460.195312 C 528.574219 460.195312 536.960938 468.582031 536.960938 478.902344 C 536.960938 489.222656 528.253906 497.609375 518.253906 497.609375 Z M 518.253906 497.609375 " fill-opacity="1" fill-rule="nonzero"/><path fill="#c4923a" d="M 408.914062 600.5 L 229.902344 600.5 C 219.582031 600.5 211.195312 592.113281 211.195312 581.792969 C 211.195312 571.472656 219.582031 563.085938 229.902344 563.085938 L 408.914062 563.085938 C 419.234375 563.085938 427.621094 571.472656 427.621094 581.792969 C 427.621094 592.113281 418.914062 600.5 408.914062 600.5 Z M 408.914062 600.5 " fill-opacity="1" fill-rule="nonzero"/><path fill="#c4923a" d="M 408.914062 703.390625 L 229.902344 703.390625 C 219.582031 703.390625 211.195312 695.003906 211.195312 684.683594 C 211.195312 674.359375 219.582031 665.976562 229.902344 665.976562 L 408.914062 665.976562 C 419.234375 665.976562 427.621094 674.359375 427.621094 684.683594 C 427.621094 695.003906 418.914062 703.390625 408.914062 703.390625 Z M 408.914062 703.390625 " fill-opacity="1" fill-rule="nonzero"/><path fill="#c4923a" d="M 408.914062 805.957031 L 229.902344 805.957031 C 219.582031 805.957031 211.195312 797.570312 211.195312 787.25 C 211.195312 776.929688 219.582031 768.542969 229.902344 768.542969 L 408.914062 768.542969 C 419.234375 768.542969 427.621094 776.929688 427.621094 787.25 C 427.621094 797.570312 418.914062 805.957031 408.914062 805.957031 Z M 408.914062 805.957031 " fill-opacity="1" fill-rule="nonzero"/><path fill="#c4923a" d="M 408.914062 908.847656 L 229.902344 908.847656 C 219.582031 908.847656 211.195312 900.460938 211.195312 890.140625 C 211.195312 879.820312 219.582031 871.433594 229.902344 871.433594 L 408.914062 871.433594 C 419.234375 871.433594 427.621094 879.820312 427.621094 890.140625 C 427.621094 900.460938 418.914062 908.847656 408.914062 908.847656 Z M 408.914062 908.847656 " fill-opacity="1" fill-rule="nonzero"/><path fill="#c4923a" d="M 408.914062 1011.738281 L 229.902344 1011.738281 C 219.582031 1011.738281 211.195312 1003.351562 211.195312 993.03125 C 211.195312 982.710938 219.582031 974.324219 229.902344 974.324219 L 408.914062 974.324219 C 419.234375 974.324219 427.621094 982.710938 427.621094 993.03125 C 427.621094 1003.351562 418.914062 1011.738281 408.914062 1011.738281 Z M 408.914062 1011.738281 " fill-opacity="1" fill-rule="nonzero"/><path fill="#c4923a" d="M 587.921875 1114.628906 L 229.902344 1114.628906 C 219.582031 1114.628906 211.195312 1106.242188 211.195312 1095.921875 C 211.195312 1085.601562 219.582031 1077.214844 229.902344 1077.214844 L 587.921875 1077.214844 C 598.246094 1077.214844 606.628906 1085.601562 606.628906 1095.921875 C 606.628906 1106.242188 597.921875 1114.628906 587.921875 1114.628906 Z M 587.921875 1114.628906 " fill-opacity="1" fill-rule="nonzero"/><path fill="#c4923a" d="M 942.070312 1217.195312 L 229.902344 1217.195312 C 219.582031 1217.195312 211.195312 1208.808594 211.195312 1198.488281 C 211.195312 1188.167969 219.582031 1179.78125 229.902344 1179.78125 L 942.070312 1179.78125 C 952.394531 1179.78125 960.777344 1188.167969 960.777344 1198.488281 C 960.777344 1208.808594 952.070312 1217.195312 942.070312 1217.195312 Z M 942.070312 1217.195312 " fill-opacity="1" fill-rule="nonzero"/><path fill="#c4923a" d="M 942.070312 1320.085938 L 229.902344 1320.085938 C 219.582031 1320.085938 211.195312 1311.699219 211.195312 1301.378906 C 211.195312 1291.058594 219.582031 1282.671875 229.902344 1282.671875 L 942.070312 1282.671875 C 952.394531 1282.671875 960.777344 1291.058594 960.777344 1301.378906 C 960.777344 1311.699219 952.070312 1320.085938 942.070312 1320.085938 Z M 942.070312 1320.085938 " fill-opacity="1" fill-rule="nonzero"/></svg>