<svg xmlns="http://www.w3.org/2000/svg" xmlns:xlink="http://www.w3.org/1999/xlink" width="2000" zoomAndPan="magnify" viewBox="0 0 1500 1499.999933" height="2000" preserveAspectRatio="xMidYMid meet" version="1.0"><defs><clipPath id="efe2070394"><path d="M 22 126.058594 L 1478 126.058594 L 1478 1374 L 22 1374 Z M 22 126.058594 " clip-rule="nonzero"/></clipPath></defs><g clip-path="url(#efe2070394)"><path fill="#c4923a" d="M 980.886719 905.722656 C 971.40625 815.617188 910.191406 740.757812 827.601562 711.386719 C 863.28125 686.636719 886.3125 645.371094 886.3125 599.339844 C 886.3125 524.207031 825.1875 463.082031 750.054688 463.082031 C 674.925781 463.082031 613.796875 524.207031 613.796875 599.339844 C 613.796875 645.371094 636.828125 686.636719 672.507812 711.386719 C 589.921875 740.757812 528.707031 815.617188 519.226562 905.722656 C 459.671875 846.4375 422.753906 764.394531 422.753906 673.929688 C 422.753906 493.449219 569.578125 346.65625 750.054688 346.65625 C 930.535156 346.65625 1077.359375 493.449219 1077.359375 673.929688 C 1077.359375 764.425781 1040.441406 846.4375 980.886719 905.722656 Z M 775.351562 761.164062 L 786.308594 737.648438 C 774.535156 735.445312 762.433594 734.238281 750.027344 734.238281 C 737.621094 734.238281 725.515625 735.445312 713.742188 737.648438 L 724.699219 761.164062 Z M 782.355469 902.582031 L 763.519531 797.386719 L 736.59375 797.386719 L 717.757812 902.582031 L 750.054688 941.792969 Z M 650.019531 599.339844 C 650.019531 649.386719 687.089844 691.738281 736.472656 698.4375 C 740.96875 698.167969 745.496094 698.015625 750.054688 698.015625 C 754.613281 698.015625 759.140625 698.195312 763.640625 698.4375 C 813.023438 691.738281 850.089844 649.386719 850.089844 599.339844 C 850.089844 544.191406 805.234375 499.304688 750.054688 499.304688 C 694.875 499.304688 650.019531 544.191406 650.019531 599.339844 Z M 554.152344 935.9375 C 608.816406 976.898438 676.644531 1001.199219 750.054688 1001.199219 C 823.46875 1001.199219 891.292969 976.898438 945.960938 935.9375 L 945.960938 930.144531 C 945.960938 847.34375 894.3125 776.4375 821.566406 747.792969 L 803.363281 786.914062 C 802.398438 788.996094 801.039062 790.804688 799.4375 792.316406 L 819.484375 904.425781 C 820.417969 909.648438 819.03125 915.050781 815.648438 919.125 L 764.03125 981.761719 C 760.589844 985.925781 755.460938 988.371094 750.054688 988.371094 C 744.652344 988.371094 739.519531 985.957031 736.078125 981.761719 L 684.460938 919.125 C 681.082031 915.019531 679.691406 909.648438 680.628906 904.425781 L 700.671875 792.316406 C 699.074219 790.777344 697.714844 788.964844 696.75 786.914062 L 678.546875 747.792969 C 605.800781 776.40625 554.152344 847.34375 554.152344 930.144531 Z M 750.054688 310.402344 C 549.625 310.402344 386.53125 473.464844 386.53125 673.898438 C 386.53125 874.328125 549.625 1037.421875 750.054688 1037.421875 C 950.488281 1037.421875 1113.582031 874.359375 1113.582031 673.898438 C 1113.582031 473.433594 950.488281 310.402344 750.054688 310.402344 Z M 1441.335938 619.382812 L 1192.910156 619.382812 C 1184.757812 552.882812 1161.9375 490.882812 1127.769531 436.667969 C 1161.667969 411.101562 1202.871094 397.125 1245.371094 397.125 C 1353.40625 397.125 1441.304688 484.996094 1441.304688 593.03125 L 1441.304688 619.382812 Z M 750.054688 1083.9375 C 976.117188 1083.9375 1160.066406 900.019531 1160.066406 673.925781 C 1160.066406 447.835938 976.117188 263.949219 750.054688 263.949219 C 523.996094 263.949219 340.046875 447.867188 340.046875 673.925781 C 340.046875 899.988281 523.996094 1083.9375 750.054688 1083.9375 Z M 277.683594 1297.863281 C 251.660156 1330.433594 211.878906 1344.167969 171.308594 1334.660156 C 151.324219 1329.980469 133.125 1319.839844 118.632812 1305.378906 C 104.144531 1290.890625 94.003906 1272.660156 89.324219 1252.707031 C 79.816406 1212.136719 93.582031 1172.351562 126.121094 1146.332031 L 389.128906 936.027344 C 416.714844 973.941406 450.101562 1007.328125 488.015625 1034.886719 L 277.683594 1297.894531 Z M 58.777344 619.382812 L 58.777344 593.03125 C 58.777344 484.996094 146.648438 397.125 254.679688 397.125 C 297.183594 397.125 338.386719 411.101562 372.253906 436.667969 C 338.113281 490.882812 315.292969 552.882812 307.144531 619.382812 Z M 154.644531 262.226562 C 154.644531 207.078125 199.5 162.160156 254.679688 162.160156 C 309.859375 162.160156 354.714844 207.046875 354.714844 262.226562 C 354.714844 312.304688 317.617188 354.683594 268.171875 361.355469 C 263.707031 361.085938 259.207031 360.902344 254.679688 360.902344 C 250.152344 360.902344 245.59375 361.085938 241.097656 361.324219 C 191.714844 354.625 154.644531 312.273438 154.644531 262.226562 Z M 1145.367188 262.226562 C 1145.367188 207.078125 1190.222656 162.160156 1245.402344 162.160156 C 1300.578125 162.160156 1345.4375 207.046875 1345.4375 262.226562 C 1345.4375 312.273438 1308.367188 354.625 1258.984375 361.324219 C 1254.425781 361.054688 1249.957031 360.902344 1245.402344 360.902344 C 1240.84375 360.902344 1236.375 361.085938 1231.90625 361.355469 C 1182.464844 354.714844 1145.367188 312.335938 1145.367188 262.226562 Z M 1322.886719 374.277344 C 1358.597656 349.523438 1381.628906 308.261719 1381.628906 262.226562 C 1381.628906 187.09375 1320.5625 125.96875 1245.402344 125.96875 C 1170.238281 125.96875 1109.144531 187.09375 1109.144531 262.226562 C 1109.144531 308.320312 1132.234375 349.613281 1167.976562 374.335938 C 1146.363281 382.035156 1125.894531 392.929688 1107.273438 406.785156 C 1025.800781 298.148438 896.003906 227.695312 750.054688 227.695312 C 604.109375 227.695312 474.3125 298.148438 392.839844 406.785156 C 374.214844 392.929688 353.75 382.035156 332.136719 374.335938 C 367.875 349.582031 390.96875 308.289062 390.96875 262.226562 C 390.96875 187.09375 329.84375 125.96875 254.710938 125.96875 C 179.578125 125.96875 118.453125 187.09375 118.453125 262.226562 C 118.453125 308.261719 141.484375 349.523438 177.164062 374.277344 C 87.210938 406.242188 22.582031 492.210938 22.582031 593.03125 L 22.582031 637.492188 C 22.582031 647.515625 30.703125 655.605469 40.695312 655.605469 L 304.246094 655.605469 C 304.003906 661.671875 303.824219 667.769531 303.824219 673.929688 C 303.824219 758.78125 327.640625 838.167969 368.902344 905.753906 L 103.480469 1117.988281 C 59.773438 1152.972656 41.269531 1206.402344 54.066406 1260.917969 C 60.285156 1287.449219 73.75 1311.6875 93.007812 1330.976562 C 112.265625 1350.234375 136.472656 1363.699219 163.039062 1369.917969 C 174.417969 1372.601562 185.738281 1373.902344 196.875 1373.902344 C 239.042969 1373.902344 278.285156 1355.125 305.964844 1320.503906 L 518.230469 1055.082031 C 585.816406 1096.34375 665.203125 1120.160156 750.054688 1120.160156 C 996.097656 1120.160156 1196.289062 919.96875 1196.289062 673.929688 C 1196.289062 667.800781 1196.109375 661.703125 1195.867188 655.605469 L 1459.445312 655.605469 C 1469.40625 655.605469 1477.558594 647.484375 1477.558594 637.492188 L 1477.558594 593.03125 C 1477.558594 492.210938 1412.902344 406.242188 1322.917969 374.277344 Z M 1322.886719 374.277344 " fill-opacity="1" fill-rule="evenodd"/></g></svg>