<svg xmlns="http://www.w3.org/2000/svg" xmlns:xlink="http://www.w3.org/1999/xlink" width="2000" zoomAndPan="magnify" viewBox="0 0 1500 1499.999933" height="2000" preserveAspectRatio="xMidYMid meet" version="1.0"><defs><clipPath id="0db663403f"><path d="M 1363 332 L 1462.542969 332 L 1462.542969 431 L 1363 431 Z M 1363 332 " clip-rule="nonzero"/></clipPath><clipPath id="624daa66b6"><path d="M 37.542969 332 L 137 332 L 137 431 L 37.542969 431 Z M 37.542969 332 " clip-rule="nonzero"/></clipPath><clipPath id="dfc0c3a8ff"><path d="M 504 1339 L 996 1339 L 996 1437.230469 L 504 1437.230469 Z M 504 1339 " clip-rule="nonzero"/></clipPath><clipPath id="5d810185e2"><path d="M 504 62.480469 L 996 62.480469 L 996 554 L 504 554 Z M 504 62.480469 " clip-rule="nonzero"/></clipPath></defs><g clip-path="url(#0db663403f)"><path fill="#c4923a" d="M 1412.957031 332.574219 C 1385.910156 332.574219 1363.847656 354.730469 1363.847656 381.683594 C 1363.847656 408.632812 1385.910156 430.789062 1412.957031 430.789062 C 1440.003906 430.789062 1462.066406 408.632812 1462.066406 381.683594 C 1462.066406 354.730469 1440.003906 332.574219 1412.957031 332.574219 " fill-opacity="1" fill-rule="nonzero"/></g><path fill="#c4923a" d="M 1339.296875 185.25 C 1366.34375 185.25 1388.402344 163.09375 1388.402344 136.140625 C 1388.402344 109.191406 1366.34375 87.03125 1339.296875 87.03125 C 1312.246094 87.03125 1290.1875 109.191406 1290.1875 136.140625 C 1290.1875 163.09375 1312.246094 185.25 1339.296875 185.25 " fill-opacity="1" fill-rule="nonzero"/><path fill="#c4923a" d="M 1339.296875 578.117188 C 1312.246094 578.117188 1290.1875 600.273438 1290.1875 627.222656 C 1290.1875 654.175781 1312.246094 676.332031 1339.296875 676.332031 C 1366.34375 676.332031 1388.402344 654.175781 1388.402344 627.222656 C 1388.402344 600.273438 1366.34375 578.117188 1339.296875 578.117188 " fill-opacity="1" fill-rule="nonzero"/><path fill="#c4923a" d="M 160.695312 87.03125 C 133.648438 87.03125 111.589844 109.191406 111.589844 136.140625 C 111.589844 163.09375 133.648438 185.25 160.695312 185.25 C 187.746094 185.25 209.804688 163.09375 209.804688 136.140625 C 209.804688 109.191406 187.746094 87.03125 160.695312 87.03125 " fill-opacity="1" fill-rule="nonzero"/><path fill="#c4923a" d="M 160.695312 578.117188 C 133.648438 578.117188 111.589844 600.273438 111.589844 627.222656 C 111.589844 654.175781 133.648438 676.332031 160.695312 676.332031 C 187.746094 676.332031 209.804688 654.175781 209.804688 627.222656 C 209.804688 600.273438 187.746094 578.117188 160.695312 578.117188 " fill-opacity="1" fill-rule="nonzero"/><g clip-path="url(#624daa66b6)"><path fill="#c4923a" d="M 136.144531 381.683594 C 136.144531 354.730469 114.082031 332.574219 87.035156 332.574219 C 59.988281 332.574219 37.925781 354.730469 37.925781 381.683594 C 37.925781 408.632812 59.988281 430.789062 87.035156 430.789062 C 114.082031 430.789062 136.144531 408.632812 136.144531 381.683594 " fill-opacity="1" fill-rule="nonzero"/></g><path fill="#c4923a" d="M 1209.332031 300.828125 L 1282.992188 227.164062 L 1248.273438 192.441406 L 1181.804688 258.910156 L 1093.753906 258.910156 L 1093.753906 308.019531 L 1191.96875 308.019531 C 1198.492188 308.019531 1204.726562 305.429688 1209.332031 300.828125 " fill-opacity="1" fill-rule="nonzero"/><path fill="#c4923a" d="M 1248.273438 570.921875 L 1282.992188 536.199219 L 1209.332031 462.539062 C 1204.726562 457.933594 1198.492188 455.34375 1191.96875 455.34375 L 1093.753906 455.34375 L 1093.753906 504.453125 L 1181.804688 504.453125 L 1248.273438 570.921875 " fill-opacity="1" fill-rule="nonzero"/><path fill="#c4923a" d="M 1290.1875 357.128906 L 1093.753906 357.128906 L 1093.753906 406.238281 L 1290.1875 406.238281 L 1290.1875 357.128906 " fill-opacity="1" fill-rule="nonzero"/><path fill="#c4923a" d="M 290.660156 300.828125 C 295.265625 305.429688 301.5 308.019531 308.023438 308.019531 L 406.238281 308.019531 L 406.238281 258.910156 L 318.1875 258.910156 L 251.71875 192.441406 L 217 227.164062 L 290.660156 300.828125 " fill-opacity="1" fill-rule="nonzero"/><path fill="#c4923a" d="M 217 536.199219 L 251.71875 570.921875 L 318.1875 504.453125 L 406.238281 504.453125 L 406.238281 455.34375 L 308.023438 455.34375 C 301.5 455.34375 295.265625 457.933594 290.660156 462.539062 L 217 536.199219 " fill-opacity="1" fill-rule="nonzero"/><path fill="#c4923a" d="M 406.238281 357.128906 L 209.804688 357.128906 L 209.804688 406.238281 L 406.238281 406.238281 L 406.238281 357.128906 " fill-opacity="1" fill-rule="nonzero"/><path fill="#c4923a" d="M 749.996094 1216.523438 C 741.746094 1216.523438 733.59375 1215.753906 725.441406 1215.371094 L 725.441406 1290.183594 L 774.550781 1290.183594 L 774.550781 1215.371094 C 766.398438 1215.753906 758.246094 1216.523438 749.996094 1216.523438 " fill-opacity="1" fill-rule="nonzero"/><path fill="#c4923a" d="M 1207.890625 733.785156 C 1203.097656 728.507812 1196.285156 725.441406 1189.1875 725.441406 C 1176.527344 725.441406 1166.265625 735.128906 1164.730469 748.554688 C 1140.65625 959.375 962.351562 1118.304688 749.996094 1118.304688 C 537.640625 1118.304688 359.335938 959.375 335.261719 748.554688 C 333.726562 735.128906 323.464844 725.441406 310.804688 725.441406 C 303.707031 725.441406 296.894531 728.507812 292.101562 733.785156 C 287.59375 738.773438 285.480469 745.101562 286.152344 751.625 C 311.953125 988.628906 511.359375 1167.414062 749.996094 1167.414062 C 988.632812 1167.414062 1188.039062 988.628906 1213.839844 751.625 C 1214.511719 745.101562 1212.398438 738.773438 1207.890625 733.785156 " fill-opacity="1" fill-rule="nonzero"/><g clip-path="url(#dfc0c3a8ff)"><path fill="#c4923a" d="M 529.007812 1437.511719 L 970.984375 1437.511719 C 984.507812 1437.511719 995.539062 1426.480469 995.539062 1412.957031 L 995.539062 1363.847656 C 995.539062 1350.324219 984.507812 1339.292969 970.984375 1339.292969 L 529.007812 1339.292969 C 515.484375 1339.292969 504.453125 1350.324219 504.453125 1363.847656 L 504.453125 1412.957031 C 504.453125 1426.480469 515.484375 1437.511719 529.007812 1437.511719 " fill-opacity="1" fill-rule="nonzero"/></g><g clip-path="url(#5d810185e2)"><path fill="#c4923a" d="M 504.453125 308.019531 L 504.453125 357.128906 L 676.332031 357.128906 L 676.332031 406.238281 L 504.453125 406.238281 L 504.453125 455.34375 L 676.332031 455.34375 L 676.332031 504.453125 L 504.453125 504.453125 L 504.453125 553.5625 L 995.539062 553.5625 L 995.539062 504.453125 L 823.660156 504.453125 L 823.660156 455.34375 L 995.539062 455.34375 L 995.539062 406.238281 L 823.660156 406.238281 L 823.660156 357.128906 L 995.539062 357.128906 L 995.539062 308.019531 L 823.660156 308.019531 L 823.660156 258.910156 L 990.550781 258.910156 C 987.097656 241.839844 981.726562 225.4375 974.914062 209.804688 L 823.660156 209.804688 L 823.660156 160.695312 L 945.949219 160.695312 C 901.15625 101.230469 830.085938 62.480469 749.996094 62.480469 C 669.90625 62.480469 598.835938 101.230469 554.042969 160.695312 L 676.332031 160.695312 L 676.332031 209.804688 L 525.078125 209.804688 C 518.265625 225.4375 512.894531 241.839844 509.441406 258.910156 L 676.332031 258.910156 L 676.332031 308.019531 L 504.453125 308.019531 " fill-opacity="1" fill-rule="nonzero"/></g><path fill="#c4923a" d="M 725.441406 994.386719 L 725.441406 1068.046875 C 733.59375 1068.621094 741.746094 1069.199219 749.996094 1069.199219 C 758.246094 1069.199219 766.398438 1068.621094 774.550781 1068.046875 L 774.550781 994.386719 C 766.398438 994.960938 758.246094 995.535156 749.996094 995.535156 C 741.746094 995.535156 733.59375 995.054688 725.441406 994.386719 " fill-opacity="1" fill-rule="nonzero"/><path fill="#c4923a" d="M 455.347656 627.222656 L 455.347656 676.332031 C 455.347656 689.855469 466.375 700.886719 479.902344 700.886719 L 1020.089844 700.886719 C 1033.617188 700.886719 1044.644531 689.855469 1044.644531 676.332031 L 1044.644531 627.222656 C 1044.644531 613.699219 1033.617188 602.667969 1020.089844 602.667969 L 479.902344 602.667969 C 466.375 602.667969 455.347656 613.699219 455.347656 627.222656 " fill-opacity="1" fill-rule="nonzero"/><path fill="#c4923a" d="M 749.996094 897.320312 L 749.996094 848.210938 C 793.734375 848.210938 834.402344 824.710938 856.367188 786.824219 L 898.855469 811.378906 C 868.164062 864.421875 811.191406 897.320312 749.996094 897.320312 Z M 692.734375 887.535156 C 671.539062 880.054688 652.257812 868.640625 635.378906 853.582031 L 668.179688 816.941406 C 680.171875 827.683594 693.980469 835.933594 709.039062 841.210938 Z M 990.359375 749.996094 L 509.539062 749.996094 C 532.175781 863.652344 631.15625 946.425781 749.996094 946.425781 C 815.601562 946.425781 877.273438 920.914062 923.699219 874.585938 C 957.9375 840.347656 980.957031 796.800781 990.359375 749.996094 " fill-opacity="1" fill-rule="nonzero"/></svg>