<svg xmlns="http://www.w3.org/2000/svg" xmlns:xlink="http://www.w3.org/1999/xlink" width="2000" zoomAndPan="magnify" viewBox="0 0 1500 1499.999933" height="2000" preserveAspectRatio="xMidYMid meet" version="1.0"><defs><clipPath id="f694aaf80f"><path d="M 61 1228 L 1442 1228 L 1442 1454.980469 L 61 1454.980469 Z M 61 1228 " clip-rule="nonzero"/></clipPath><clipPath id="b189375ca7"><path d="M 161 1355 L 433 1355 L 433 1454.980469 L 161 1454.980469 Z M 161 1355 " clip-rule="nonzero"/></clipPath><clipPath id="49cd860995"><path d="M 322 41.230469 L 1182 41.230469 L 1182 899 L 322 899 Z M 322 41.230469 " clip-rule="nonzero"/></clipPath><clipPath id="778ce6134b"><path d="M 322 41.230469 L 1182 41.230469 L 1182 241 L 322 241 Z M 322 41.230469 " clip-rule="nonzero"/></clipPath><clipPath id="0aac3bcbef"><path d="M 774 41.230469 L 883 41.230469 L 883 232 L 774 232 Z M 774 41.230469 " clip-rule="nonzero"/></clipPath><clipPath id="e382caa0df"><path d="M 394 41.230469 L 729 41.230469 L 729 127 L 394 127 Z M 394 41.230469 " clip-rule="nonzero"/></clipPath></defs><path fill="#c4923a" d="M 1318.273438 1161.800781 L 185.273438 1161.800781 C 150.460938 1161.800781 122.28125 1133.621094 122.28125 1099.640625 L 122.28125 329.664062 C 122.28125 294.851562 150.460938 266.671875 185.273438 266.671875 L 335.289062 266.671875 C 342.75 266.671875 349.378906 273.300781 349.378906 280.761719 C 349.378906 288.222656 342.75 294.851562 335.289062 294.851562 L 185.273438 294.851562 C 165.378906 294.851562 149.632812 309.769531 149.632812 329.664062 L 149.632812 1099.640625 C 149.632812 1118.703125 165.378906 1134.449219 185.273438 1134.449219 L 1318.273438 1134.449219 C 1337.335938 1134.449219 1353.085938 1118.703125 1353.085938 1099.640625 L 1353.085938 329.664062 C 1353.085938 309.769531 1337.335938 294.851562 1318.273438 294.851562 L 1167.429688 294.851562 C 1159.96875 294.851562 1154.167969 288.222656 1154.167969 280.761719 C 1154.167969 273.300781 1159.96875 266.671875 1167.429688 266.671875 L 1318.273438 266.671875 C 1353.085938 266.671875 1381.265625 294.851562 1381.265625 329.664062 L 1381.265625 1099.640625 C 1381.265625 1133.621094 1353.085938 1161.800781 1318.273438 1161.800781 Z M 1318.273438 1161.800781 " fill-opacity="1" fill-rule="evenodd"/><path fill="#c4923a" d="M 1269.375 1064 L 791.972656 1064 C 783.683594 1064 777.882812 1058.199219 777.882812 1050.738281 C 777.882812 1043.28125 783.683594 1036.648438 791.972656 1036.648438 L 1256.113281 1036.648438 L 1256.113281 391.824219 L 1167.429688 391.824219 C 1159.96875 391.824219 1154.167969 386.023438 1154.167969 378.5625 C 1154.167969 370.273438 1159.96875 364.472656 1167.429688 364.472656 L 1269.375 364.472656 C 1277.660156 364.472656 1283.464844 370.273438 1283.464844 378.5625 L 1283.464844 1050.738281 C 1283.464844 1058.199219 1277.660156 1064 1269.375 1064 Z M 711.574219 1064 L 233.34375 1064 C 225.882812 1064 220.082031 1058.199219 220.082031 1050.738281 L 220.082031 378.5625 C 220.082031 370.273438 225.882812 364.472656 233.34375 364.472656 L 335.289062 364.472656 C 342.75 364.472656 349.378906 370.273438 349.378906 378.5625 C 349.378906 386.023438 342.75 391.824219 335.289062 391.824219 L 247.433594 391.824219 L 247.433594 1036.648438 L 711.574219 1036.648438 C 719.035156 1036.648438 725.664062 1043.28125 725.664062 1050.738281 C 725.664062 1058.199219 719.035156 1064 711.574219 1064 Z M 711.574219 1064 " fill-opacity="1" fill-rule="evenodd"/><g clip-path="url(#f694aaf80f)"><path fill="#c4923a" d="M 1328.21875 1455.203125 L 174.496094 1455.203125 C 112.335938 1455.203125 61.777344 1404.648438 61.777344 1341.65625 L 61.777344 1242.195312 C 61.777344 1234.738281 67.578125 1228.9375 75.039062 1228.9375 L 1427.679688 1228.9375 C 1435.964844 1228.9375 1441.769531 1234.738281 1441.769531 1242.195312 L 1441.769531 1341.65625 C 1441.769531 1404.648438 1391.210938 1455.203125 1328.21875 1455.203125 Z M 89.128906 1256.289062 L 89.128906 1341.65625 C 89.128906 1388.898438 127.253906 1427.855469 174.496094 1427.855469 L 1328.21875 1427.855469 C 1375.460938 1427.855469 1414.417969 1388.898438 1414.417969 1341.65625 L 1414.417969 1256.289062 Z M 89.128906 1256.289062 " fill-opacity="1" fill-rule="evenodd"/></g><path fill="#c4923a" d="M 602.171875 1256.289062 L 401.59375 1256.289062 C 367.613281 1256.289062 340.261719 1228.9375 340.261719 1194.953125 C 340.261719 1161.800781 367.613281 1134.449219 401.59375 1134.449219 L 602.171875 1134.449219 C 636.152344 1134.449219 663.503906 1161.800781 663.503906 1194.953125 C 663.503906 1228.9375 636.152344 1256.289062 602.171875 1256.289062 Z M 401.59375 1161.800781 C 382.53125 1161.800781 367.613281 1176.71875 367.613281 1194.953125 C 367.613281 1214.015625 382.53125 1228.9375 401.59375 1228.9375 L 602.171875 1228.9375 C 620.40625 1228.9375 636.152344 1214.015625 636.152344 1194.953125 C 636.152344 1176.71875 620.40625 1161.800781 602.171875 1161.800781 Z M 401.59375 1161.800781 " fill-opacity="1" fill-rule="evenodd"/><path fill="#c4923a" d="M 1101.949219 1256.289062 L 900.546875 1256.289062 C 867.394531 1256.289062 840.042969 1228.9375 840.042969 1194.953125 C 840.042969 1161.800781 867.394531 1134.449219 900.546875 1134.449219 L 1101.949219 1134.449219 C 1135.933594 1134.449219 1163.285156 1161.800781 1163.285156 1194.953125 C 1163.285156 1228.9375 1135.933594 1256.289062 1101.949219 1256.289062 Z M 900.546875 1161.800781 C 882.3125 1161.800781 867.394531 1176.71875 867.394531 1194.953125 C 867.394531 1214.015625 882.3125 1228.9375 900.546875 1228.9375 L 1101.949219 1228.9375 C 1120.183594 1228.9375 1135.105469 1214.015625 1135.105469 1194.953125 C 1135.105469 1176.71875 1120.183594 1161.800781 1101.949219 1161.800781 Z M 900.546875 1161.800781 " fill-opacity="1" fill-rule="evenodd"/><path fill="#c4923a" d="M 985.085938 1340.828125 L 517.628906 1340.828125 C 510.171875 1340.828125 504.371094 1334.195312 504.371094 1326.738281 L 504.371094 1242.195312 C 504.371094 1234.738281 510.171875 1228.9375 517.628906 1228.9375 L 985.085938 1228.9375 C 992.546875 1228.9375 999.175781 1234.738281 999.175781 1242.195312 L 999.175781 1326.738281 C 999.175781 1334.195312 992.546875 1340.828125 985.085938 1340.828125 Z M 531.71875 1312.648438 L 971.824219 1312.648438 L 971.824219 1256.289062 L 531.71875 1256.289062 Z M 531.71875 1312.648438 " fill-opacity="1" fill-rule="evenodd"/><path fill="#c4923a" d="M 1132.617188 1393.042969 C 1104.4375 1393.042969 1082.058594 1369.835938 1082.058594 1341.65625 C 1082.058594 1314.304688 1104.4375 1291.097656 1132.617188 1291.097656 C 1159.96875 1291.097656 1183.175781 1314.304688 1183.175781 1341.65625 C 1183.175781 1369.835938 1159.96875 1393.042969 1132.617188 1393.042969 Z M 1132.617188 1319.277344 C 1119.355469 1319.277344 1109.410156 1329.222656 1109.410156 1341.65625 C 1109.410156 1354.917969 1119.355469 1364.863281 1132.617188 1364.863281 C 1145.050781 1364.863281 1155.824219 1354.917969 1155.824219 1341.65625 C 1155.824219 1329.222656 1145.050781 1319.277344 1132.617188 1319.277344 Z M 1132.617188 1319.277344 " fill-opacity="1" fill-rule="evenodd"/><path fill="#c4923a" d="M 1280.976562 1393.042969 C 1252.796875 1393.042969 1230.417969 1369.835938 1230.417969 1341.65625 C 1230.417969 1314.304688 1252.796875 1291.097656 1280.976562 1291.097656 C 1309.15625 1291.097656 1331.535156 1314.304688 1331.535156 1341.65625 C 1331.535156 1369.835938 1309.15625 1393.042969 1280.976562 1393.042969 Z M 1280.976562 1319.277344 C 1268.542969 1319.277344 1257.769531 1329.222656 1257.769531 1341.65625 C 1257.769531 1354.917969 1268.542969 1364.863281 1280.976562 1364.863281 C 1293.410156 1364.863281 1304.183594 1354.917969 1304.183594 1341.65625 C 1304.183594 1329.222656 1293.410156 1319.277344 1280.976562 1319.277344 Z M 1280.976562 1319.277344 " fill-opacity="1" fill-rule="evenodd"/><g clip-path="url(#b189375ca7)"><path fill="#c4923a" d="M 419 1455.203125 L 174.496094 1455.203125 C 167.039062 1455.203125 161.238281 1449.402344 161.238281 1441.945312 L 161.238281 1390.554688 C 161.238281 1371.492188 176.984375 1355.746094 196.046875 1355.746094 L 397.449219 1355.746094 C 416.515625 1355.746094 432.261719 1371.492188 432.261719 1390.554688 L 432.261719 1441.945312 C 432.261719 1449.402344 426.460938 1455.203125 419 1455.203125 Z M 188.585938 1427.855469 L 404.910156 1427.855469 L 404.910156 1390.554688 C 404.910156 1386.414062 401.59375 1383.097656 397.449219 1383.097656 L 196.046875 1383.097656 C 191.902344 1383.097656 188.585938 1386.414062 188.585938 1390.554688 Z M 188.585938 1427.855469 " fill-opacity="1" fill-rule="evenodd"/></g><g clip-path="url(#49cd860995)"><path fill="#c4923a" d="M 1121.84375 898.234375 L 970.167969 898.234375 C 967.679688 898.234375 965.195312 897.40625 963.539062 896.578125 L 930.382812 877.515625 C 925.410156 874.199219 922.097656 867.570312 924.582031 861.765625 C 928.726562 846.019531 931.214844 829.441406 931.214844 812.867188 C 931.214844 796.289062 928.726562 779.714844 924.582031 763.964844 C 922.097656 758.164062 925.410156 751.535156 930.382812 748.21875 L 961.878906 729.984375 L 928.726562 671.964844 L 897.230469 690.199219 C 891.429688 693.515625 884.800781 692.6875 880.65625 687.714844 C 856.621094 663.679688 827.609375 647.101562 795.285156 638.8125 C 789.484375 637.15625 785.339844 632.183594 785.339844 625.550781 L 785.339844 589.085938 L 718.207031 589.085938 L 718.207031 625.550781 C 718.207031 632.183594 714.0625 637.15625 707.429688 638.8125 C 675.9375 647.101562 646.097656 663.679688 622.890625 687.714844 C 618.746094 692.6875 611.289062 693.515625 606.316406 690.199219 L 574.820312 671.964844 L 540.835938 729.984375 L 572.332031 748.21875 C 578.132812 751.535156 580.621094 758.164062 578.964844 763.964844 C 574.820312 779.714844 572.332031 796.289062 572.332031 812.867188 C 572.332031 829.441406 574.820312 846.019531 578.964844 861.765625 C 580.621094 867.570312 578.132812 874.199219 572.332031 877.515625 L 540.007812 896.578125 C 537.523438 897.40625 535.035156 898.234375 532.550781 898.234375 L 381.703125 898.234375 C 348.550781 898.234375 322.027344 871.714844 322.027344 838.558594 L 322.027344 101.734375 C 322.027344 68.582031 348.550781 41.230469 381.703125 41.230469 L 1121.84375 41.230469 C 1154.996094 41.230469 1181.519531 68.582031 1181.519531 101.734375 L 1181.519531 838.558594 C 1181.519531 871.714844 1154.996094 898.234375 1121.84375 898.234375 Z M 974.3125 870.882812 L 1121.84375 870.882812 C 1139.246094 870.882812 1154.167969 855.964844 1154.167969 838.558594 L 1154.167969 101.734375 C 1154.167969 83.503906 1139.246094 69.414062 1121.84375 69.414062 L 381.703125 69.414062 C 363.46875 69.414062 349.378906 83.503906 349.378906 101.734375 L 349.378906 838.558594 C 349.378906 855.964844 363.46875 870.882812 381.703125 870.882812 L 529.234375 870.882812 L 549.953125 858.453125 C 546.640625 843.53125 544.980469 828.613281 544.980469 812.867188 C 544.980469 797.117188 546.640625 782.199219 549.953125 766.453125 L 521.773438 750.703125 C 516.800781 747.390625 513.488281 743.246094 511.828125 737.445312 C 510.171875 732.472656 511 726.667969 513.488281 721.695312 L 554.097656 652.074219 C 559.070312 642.957031 573.160156 638.8125 582.277344 644.617188 L 611.289062 661.191406 C 633.664062 639.644531 661.015625 623.894531 690.855469 614.777344 L 690.855469 582.453125 C 690.855469 570.851562 699.972656 561.734375 711.574219 561.734375 L 791.972656 561.734375 C 803.574219 561.734375 812.691406 570.851562 812.691406 582.453125 L 812.691406 614.777344 C 842.527344 623.894531 869.878906 639.644531 892.257812 661.191406 L 920.4375 644.617188 C 930.382812 638.8125 943.644531 642.957031 949.449219 652.074219 L 989.230469 721.695312 C 995.03125 731.640625 991.71875 744.902344 981.773438 750.703125 L 953.589844 766.453125 C 956.90625 782.199219 958.5625 797.117188 958.5625 812.867188 C 958.5625 828.613281 956.90625 843.53125 953.589844 858.453125 Z M 974.3125 870.882812 " fill-opacity="1" fill-rule="evenodd"/></g><g clip-path="url(#778ce6134b)"><path fill="#c4923a" d="M 1167.429688 240.980469 L 335.289062 240.980469 C 327.828125 240.980469 322.027344 235.175781 322.027344 226.886719 L 322.027344 101.734375 C 322.027344 68.582031 348.550781 41.230469 381.703125 41.230469 L 1121.84375 41.230469 C 1154.996094 41.230469 1181.519531 68.582031 1181.519531 101.734375 L 1181.519531 226.886719 C 1181.519531 235.175781 1175.714844 240.980469 1167.429688 240.980469 Z M 349.378906 213.628906 L 1154.167969 213.628906 L 1154.167969 101.734375 C 1154.167969 83.503906 1139.246094 69.414062 1121.84375 69.414062 L 381.703125 69.414062 C 363.46875 69.414062 349.378906 83.503906 349.378906 101.734375 Z M 349.378906 213.628906 " fill-opacity="1" fill-rule="evenodd"/></g><g clip-path="url(#0aac3bcbef)"><path fill="#c4923a" d="M 787.828125 231.03125 C 780.367188 231.03125 774.566406 225.230469 774.566406 216.941406 L 774.566406 136.546875 C 774.566406 84.332031 816.835938 41.230469 869.050781 41.230469 C 876.511719 41.230469 882.3125 47.863281 882.3125 55.320312 C 882.3125 62.78125 876.511719 69.414062 869.050781 69.414062 C 831.753906 69.414062 801.917969 99.25 801.917969 136.546875 L 801.917969 216.941406 C 801.917969 225.230469 795.285156 231.03125 787.828125 231.03125 Z M 787.828125 231.03125 " fill-opacity="1" fill-rule="evenodd"/></g><path fill="#c4923a" d="M 893.917969 183.789062 L 858.277344 183.789062 C 845.015625 183.789062 834.242188 173.015625 834.242188 159.753906 L 834.242188 122.457031 C 834.242188 109.195312 845.015625 99.25 858.277344 99.25 L 893.917969 99.25 C 907.175781 99.25 917.953125 109.195312 917.953125 122.457031 L 917.953125 159.753906 C 917.953125 173.015625 907.175781 183.789062 893.917969 183.789062 Z M 861.59375 156.4375 L 890.601562 156.4375 L 890.601562 126.601562 L 861.59375 126.601562 Z M 861.59375 156.4375 " fill-opacity="1" fill-rule="evenodd"/><path fill="#c4923a" d="M 995.863281 183.789062 L 959.394531 183.789062 C 946.960938 183.789062 936.1875 173.015625 936.1875 159.753906 L 936.1875 122.457031 C 936.1875 109.195312 946.960938 99.25 959.394531 99.25 L 995.863281 99.25 C 1009.121094 99.25 1019.898438 109.195312 1019.898438 122.457031 L 1019.898438 159.753906 C 1019.898438 173.015625 1009.121094 183.789062 995.863281 183.789062 Z M 963.539062 156.4375 L 992.546875 156.4375 L 992.546875 126.601562 L 963.539062 126.601562 Z M 963.539062 156.4375 " fill-opacity="1" fill-rule="evenodd"/><path fill="#c4923a" d="M 1097.808594 183.789062 L 1061.339844 183.789062 C 1048.078125 183.789062 1038.132812 173.015625 1038.132812 159.753906 L 1038.132812 122.457031 C 1038.132812 109.195312 1048.078125 99.25 1061.339844 99.25 L 1097.808594 99.25 C 1111.066406 99.25 1121.84375 109.195312 1121.84375 122.457031 L 1121.84375 159.753906 C 1121.84375 173.015625 1111.066406 183.789062 1097.808594 183.789062 Z M 1065.484375 156.4375 L 1093.664062 156.4375 L 1093.664062 126.601562 L 1065.484375 126.601562 Z M 1065.484375 156.4375 " fill-opacity="1" fill-rule="evenodd"/><path fill="#c4923a" d="M 465.414062 183.789062 L 392.476562 183.789062 C 385.019531 183.789062 379.21875 177.160156 379.21875 169.699219 C 379.21875 162.242188 385.019531 156.4375 392.476562 156.4375 L 465.414062 156.4375 C 472.875 156.4375 479.503906 162.242188 479.503906 169.699219 C 479.503906 177.160156 472.875 183.789062 465.414062 183.789062 Z M 465.414062 183.789062 " fill-opacity="1" fill-rule="evenodd"/><path fill="#c4923a" d="M 597.199219 183.789062 L 524.261719 183.789062 C 516.800781 183.789062 510.171875 177.160156 510.171875 169.699219 C 510.171875 162.242188 516.800781 156.4375 524.261719 156.4375 L 597.199219 156.4375 C 604.65625 156.4375 610.457031 162.242188 610.457031 169.699219 C 610.457031 177.160156 604.65625 183.789062 597.199219 183.789062 Z M 597.199219 183.789062 " fill-opacity="1" fill-rule="evenodd"/><path fill="#c4923a" d="M 728.152344 183.789062 L 656.042969 183.789062 C 648.585938 183.789062 641.953125 177.160156 641.953125 169.699219 C 641.953125 162.242188 648.585938 156.4375 656.042969 156.4375 L 728.152344 156.4375 C 736.441406 156.4375 742.242188 162.242188 742.242188 169.699219 C 742.242188 177.160156 736.441406 183.789062 728.152344 183.789062 Z M 728.152344 183.789062 " fill-opacity="1" fill-rule="evenodd"/><g clip-path="url(#e382caa0df)"><path fill="#c4923a" d="M 686.710938 126.601562 L 438.0625 126.601562 C 414.027344 126.601562 394.964844 107.539062 394.964844 84.332031 L 394.964844 55.320312 C 394.964844 47.863281 401.59375 41.230469 409.054688 41.230469 L 714.890625 41.230469 C 723.179688 41.230469 728.980469 47.863281 728.980469 55.320312 L 728.980469 84.332031 C 728.980469 107.539062 709.917969 126.601562 686.710938 126.601562 Z M 423.144531 69.414062 L 423.144531 84.332031 C 423.144531 92.621094 429.773438 99.25 438.0625 99.25 L 686.710938 99.25 C 695 99.25 701.628906 92.621094 701.628906 84.332031 L 701.628906 69.414062 Z M 423.144531 69.414062 " fill-opacity="1" fill-rule="evenodd"/></g><path fill="#c4923a" d="M 791.972656 1064 L 711.574219 1064 C 699.972656 1064 690.855469 1054.882812 690.855469 1043.28125 L 690.855469 1010.957031 C 661.015625 1001.839844 633.664062 986.089844 611.289062 964.542969 L 582.277344 981.117188 C 573.160156 986.917969 559.070312 982.777344 554.097656 973.660156 L 513.488281 904.039062 C 511 899.0625 510.171875 893.261719 511.828125 888.289062 C 513.488281 882.488281 516.800781 878.34375 521.773438 875.027344 L 549.953125 858.453125 C 546.640625 843.53125 544.980469 828.613281 544.980469 812.867188 C 544.980469 797.117188 546.640625 782.199219 549.953125 766.453125 L 521.773438 750.703125 C 516.800781 747.390625 513.488281 743.246094 511.828125 737.445312 C 510.171875 732.472656 511 726.667969 513.488281 721.695312 L 554.097656 652.074219 C 559.070312 642.957031 573.160156 638.8125 582.277344 644.617188 L 611.289062 661.191406 C 633.664062 639.644531 661.015625 623.894531 690.855469 614.777344 L 690.855469 582.453125 C 690.855469 570.851562 699.972656 561.734375 711.574219 561.734375 L 791.972656 561.734375 C 803.574219 561.734375 812.691406 570.851562 812.691406 582.453125 L 812.691406 614.777344 C 842.527344 623.894531 869.878906 639.644531 892.257812 661.191406 L 920.4375 644.617188 C 930.382812 638.8125 943.644531 642.957031 949.449219 652.074219 L 989.230469 721.695312 C 992.546875 726.667969 993.375 732.472656 991.71875 737.445312 C 990.058594 743.246094 986.746094 747.390625 981.773438 750.703125 L 953.589844 766.453125 C 956.90625 782.199219 958.5625 797.117188 958.5625 812.867188 C 958.5625 828.613281 956.90625 843.53125 953.589844 858.453125 L 981.773438 875.027344 C 986.746094 878.34375 990.058594 882.488281 991.71875 888.289062 C 993.375 893.261719 992.546875 899.0625 989.230469 904.039062 L 949.449219 973.660156 C 943.644531 982.777344 930.382812 986.917969 920.4375 981.117188 L 892.257812 964.542969 C 869.878906 986.089844 842.527344 1001.839844 812.691406 1010.957031 L 812.691406 1043.28125 C 812.691406 1054.882812 803.574219 1064 791.972656 1064 Z M 718.207031 1036.648438 L 785.339844 1036.648438 L 785.339844 1000.179688 C 785.339844 993.550781 789.484375 988.578125 795.285156 986.917969 C 827.609375 978.632812 856.621094 962.054688 880.65625 938.019531 C 884.800781 933.046875 891.429688 932.21875 897.230469 935.53125 L 928.726562 953.765625 L 961.878906 895.75 L 930.382812 877.515625 C 925.410156 874.199219 922.097656 867.570312 924.582031 861.765625 C 928.726562 846.019531 931.214844 829.441406 931.214844 812.867188 C 931.214844 796.289062 928.726562 779.714844 924.582031 763.964844 C 922.097656 758.164062 925.410156 751.535156 930.382812 748.21875 L 961.878906 729.984375 L 928.726562 671.964844 L 897.230469 690.199219 C 891.429688 693.515625 884.800781 692.6875 880.65625 687.714844 C 856.621094 663.679688 827.609375 647.101562 795.285156 638.8125 C 789.484375 637.15625 785.339844 632.183594 785.339844 625.550781 L 785.339844 589.085938 L 718.207031 589.085938 L 718.207031 625.550781 C 718.207031 632.183594 714.0625 637.15625 707.429688 638.8125 C 675.9375 647.101562 646.097656 663.679688 622.890625 687.714844 C 618.746094 692.6875 611.289062 693.515625 606.316406 690.199219 L 574.820312 671.964844 L 540.835938 729.984375 L 572.332031 748.21875 C 578.132812 751.535156 580.621094 758.164062 578.964844 763.964844 C 574.820312 779.714844 572.332031 796.289062 572.332031 812.867188 C 572.332031 829.441406 574.820312 846.019531 578.964844 861.765625 C 580.621094 867.570312 578.132812 874.199219 572.332031 877.515625 L 540.835938 895.75 L 574.820312 953.765625 L 606.316406 935.53125 C 611.289062 932.21875 618.746094 933.046875 622.890625 938.019531 C 646.097656 962.054688 675.9375 978.632812 707.429688 986.917969 C 714.0625 988.578125 718.207031 993.550781 718.207031 1000.179688 Z M 718.207031 1036.648438 " fill-opacity="1" fill-rule="evenodd"/><path fill="#c4923a" d="M 798.601562 639.644531 L 782.855469 639.644531 C 775.394531 639.644531 769.59375 633.011719 769.59375 625.550781 C 769.59375 618.09375 775.394531 611.460938 782.855469 611.460938 L 798.601562 611.460938 C 806.890625 611.460938 812.691406 618.09375 812.691406 625.550781 C 812.691406 633.011719 806.890625 639.644531 798.601562 639.644531 Z M 798.601562 639.644531 " fill-opacity="1" fill-rule="evenodd"/><path fill="#c4923a" d="M 937.84375 773.910156 C 932.871094 773.910156 927.898438 771.425781 925.410156 767.28125 L 917.953125 753.191406 C 913.808594 746.5625 916.292969 738.273438 922.925781 734.128906 C 929.554688 730.8125 937.84375 733.300781 941.988281 739.929688 L 949.449219 753.191406 C 953.589844 759.820312 951.105469 768.109375 944.472656 772.253906 C 941.988281 773.082031 939.5 773.910156 937.84375 773.910156 Z M 937.84375 773.910156 " fill-opacity="1" fill-rule="evenodd"/><path fill="#c4923a" d="M 889.773438 961.226562 C 888.113281 961.226562 885.628906 960.398438 883.140625 959.570312 C 876.511719 955.425781 874.023438 947.136719 878.167969 940.503906 L 886.457031 927.246094 C 889.773438 920.613281 898.058594 918.128906 904.691406 921.441406 C 911.320312 925.585938 913.808594 933.875 909.664062 940.503906 L 902.203125 954.59375 C 899.71875 958.738281 894.746094 961.226562 889.773438 961.226562 Z M 889.773438 961.226562 " fill-opacity="1" fill-rule="evenodd"/><path fill="#c4923a" d="M 719.863281 1014.269531 L 704.117188 1014.269531 C 696.65625 1014.269531 690.855469 1007.640625 690.855469 1000.179688 C 690.855469 992.722656 696.65625 986.089844 704.117188 986.089844 L 719.863281 986.089844 C 728.152344 986.089844 733.953125 992.722656 733.953125 1000.179688 C 733.953125 1007.640625 728.152344 1014.269531 719.863281 1014.269531 Z M 719.863281 1014.269531 " fill-opacity="1" fill-rule="evenodd"/><path fill="#c4923a" d="M 573.992188 893.261719 C 569.015625 893.261719 564.042969 890.777344 561.558594 885.804688 L 554.097656 872.542969 C 549.953125 865.910156 552.441406 857.625 559.070312 853.480469 C 565.703125 850.164062 573.992188 851.820312 578.132812 858.453125 L 585.59375 872.542969 C 589.738281 879.171875 587.25 887.460938 580.621094 890.777344 C 578.132812 892.433594 575.648438 893.261719 573.992188 893.261719 Z M 573.992188 893.261719 " fill-opacity="1" fill-rule="evenodd"/><path fill="#c4923a" d="M 605.484375 705.949219 C 603 705.949219 600.511719 705.121094 598.027344 704.289062 C 591.394531 700.148438 589.738281 691.859375 593.054688 685.226562 L 601.339844 671.136719 C 604.65625 664.507812 613.773438 662.851562 620.40625 666.164062 C 626.207031 670.308594 628.691406 678.597656 625.378906 685.226562 L 617.089844 698.488281 C 614.601562 703.460938 609.628906 705.949219 605.484375 705.949219 Z M 605.484375 705.949219 " fill-opacity="1" fill-rule="evenodd"/><path fill="#c4923a" d="M 751.359375 967.027344 C 737.269531 967.027344 724.007812 965.371094 709.917969 961.226562 C 703.285156 959.570312 698.3125 951.28125 700.800781 944.648438 C 702.457031 937.191406 709.917969 933.046875 717.375 934.703125 C 728.980469 938.019531 739.753906 939.675781 751.359375 939.675781 C 759.648438 939.675781 765.449219 945.476562 765.449219 952.9375 C 765.449219 960.398438 759.648438 967.027344 751.359375 967.027344 Z M 675.9375 944.648438 C 673.449219 944.648438 670.132812 943.820312 668.476562 942.164062 C 623.71875 913.984375 597.199219 865.082031 597.199219 812.867188 C 597.199219 805.40625 603.828125 798.777344 611.289062 798.777344 C 618.746094 798.777344 625.378906 805.40625 625.378906 812.867188 C 625.378906 855.964844 646.925781 895.75 683.394531 918.957031 C 689.195312 923.101562 691.683594 932.21875 687.539062 938.019531 C 685.054688 942.164062 680.078125 944.648438 675.9375 944.648438 Z M 892.257812 826.957031 C 883.96875 826.957031 878.167969 820.324219 878.167969 812.867188 C 878.167969 768.9375 855.789062 729.15625 818.492188 705.949219 C 812.691406 701.804688 810.203125 693.515625 814.347656 686.886719 C 818.492188 680.253906 826.78125 678.597656 833.414062 682.742188 C 878.996094 710.921875 905.519531 759.820312 905.519531 812.867188 C 905.519531 820.324219 899.71875 826.957031 892.257812 826.957031 Z M 789.484375 691.859375 C 787.828125 691.859375 786.996094 691.03125 785.339844 691.03125 C 774.566406 687.714844 762.960938 686.058594 751.359375 686.058594 C 743.898438 686.058594 738.097656 680.253906 738.097656 672.796875 C 738.097656 665.335938 743.898438 658.707031 751.359375 658.707031 C 765.449219 658.707031 779.539062 660.363281 792.800781 664.507812 C 800.257812 666.164062 804.402344 674.453125 802.746094 681.082031 C 801.089844 687.714844 795.285156 691.859375 789.484375 691.859375 Z M 789.484375 691.859375 " fill-opacity="1" fill-rule="evenodd"/><path fill="#c4923a" d="M 751.359375 916.46875 C 694.167969 916.46875 647.753906 870.054688 647.753906 812.867188 C 647.753906 755.679688 694.167969 709.265625 751.359375 709.265625 C 808.546875 709.265625 855.789062 755.679688 855.789062 812.867188 C 855.789062 870.054688 808.546875 916.46875 751.359375 916.46875 Z M 751.359375 736.613281 C 709.917969 736.613281 675.105469 770.597656 675.105469 812.867188 C 675.105469 855.136719 709.917969 889.117188 751.359375 889.117188 C 793.628906 889.117188 827.609375 855.136719 827.609375 812.867188 C 827.609375 770.597656 793.628906 736.613281 751.359375 736.613281 Z M 751.359375 736.613281 " fill-opacity="1" fill-rule="evenodd"/><path fill="#c4923a" d="M 911.320312 505.375 L 755.503906 505.375 C 747.214844 505.375 741.414062 499.570312 741.414062 492.113281 C 741.414062 483.824219 747.214844 478.023438 755.503906 478.023438 L 911.320312 478.023438 C 918.78125 478.023438 925.410156 483.824219 925.410156 492.113281 C 925.410156 499.570312 918.78125 505.375 911.320312 505.375 Z M 911.320312 505.375 " fill-opacity="1" fill-rule="evenodd"/><path fill="#c4923a" d="M 1058.851562 505.375 L 957.734375 505.375 C 950.277344 505.375 943.644531 499.570312 943.644531 492.113281 C 943.644531 483.824219 950.277344 478.023438 957.734375 478.023438 L 1058.851562 478.023438 C 1066.3125 478.023438 1072.941406 483.824219 1072.941406 492.113281 C 1072.941406 499.570312 1066.3125 505.375 1058.851562 505.375 Z M 1058.851562 505.375 " fill-opacity="1" fill-rule="evenodd"/><path fill="#c4923a" d="M 836.726562 415.03125 L 755.503906 415.03125 C 747.214844 415.03125 741.414062 408.402344 741.414062 400.941406 C 741.414062 393.480469 747.214844 387.679688 755.503906 387.679688 L 836.726562 387.679688 C 845.015625 387.679688 850.816406 393.480469 850.816406 400.941406 C 850.816406 408.402344 845.015625 415.03125 836.726562 415.03125 Z M 836.726562 415.03125 " fill-opacity="1" fill-rule="evenodd"/><path fill="#c4923a" d="M 1058.851562 415.03125 L 883.96875 415.03125 C 875.683594 415.03125 869.878906 408.402344 869.878906 400.941406 C 869.878906 393.480469 875.683594 387.679688 883.96875 387.679688 L 1058.851562 387.679688 C 1066.3125 387.679688 1072.941406 393.480469 1072.941406 400.941406 C 1072.941406 408.402344 1066.3125 415.03125 1058.851562 415.03125 Z M 1058.851562 415.03125 " fill-opacity="1" fill-rule="evenodd"/><path fill="#c4923a" d="M 990.058594 324.691406 L 755.503906 324.691406 C 747.214844 324.691406 741.414062 318.058594 741.414062 310.601562 C 741.414062 303.140625 747.214844 296.511719 755.503906 296.511719 L 990.058594 296.511719 C 997.519531 296.511719 1003.320312 303.140625 1003.320312 310.601562 C 1003.320312 318.058594 997.519531 324.691406 990.058594 324.691406 Z M 990.058594 324.691406 " fill-opacity="1" fill-rule="evenodd"/><path fill="#c4923a" d="M 1058.851562 324.691406 L 1036.472656 324.691406 C 1029.015625 324.691406 1022.382812 318.058594 1022.382812 310.601562 C 1022.382812 303.140625 1029.015625 296.511719 1036.472656 296.511719 L 1058.851562 296.511719 C 1066.3125 296.511719 1072.941406 303.140625 1072.941406 310.601562 C 1072.941406 318.058594 1066.3125 324.691406 1058.851562 324.691406 Z M 1058.851562 324.691406 " fill-opacity="1" fill-rule="evenodd"/><path fill="#c4923a" d="M 540.835938 388.507812 C 540.007812 388.507812 540.007812 388.507812 539.179688 388.507812 L 450.496094 378.5625 C 446.351562 378.5625 442.207031 376.078125 439.722656 371.933594 C 438.0625 368.617188 437.234375 363.644531 439.722656 359.5 L 475.359375 277.445312 C 477.847656 273.300781 481.992188 269.988281 487.792969 269.988281 C 492.765625 269.160156 497.738281 271.644531 500.226562 276.617188 L 508.511719 290.707031 C 520.117188 286.5625 538.351562 282.417969 559.902344 282.417969 C 591.394531 282.417969 637.808594 292.367188 681.738281 341.265625 C 684.222656 343.753906 686.710938 347.066406 686.710938 352.039062 C 686.710938 359.5 680.078125 365.300781 672.621094 365.300781 C 670.960938 365.300781 669.304688 365.300781 667.648438 364.472656 C 641.953125 355.355469 617.089844 350.382812 593.054688 350.382812 C 573.160156 350.382812 557.414062 353.699219 546.640625 357.015625 L 552.441406 367.789062 C 555.757812 371.933594 554.925781 377.734375 552.441406 381.878906 C 549.953125 386.023438 545.808594 388.507812 540.835938 388.507812 Z M 472.046875 353.699219 L 515.144531 357.84375 L 514.316406 357.015625 C 512.65625 353.699219 511.828125 349.554688 513.488281 345.410156 C 514.316406 342.09375 517.628906 338.78125 520.945312 337.121094 C 532.550781 332.148438 557.414062 323.03125 593.054688 323.03125 C 601.339844 323.03125 609.628906 323.859375 617.917969 324.691406 C 599.683594 314.742188 580.621094 309.769531 559.902344 309.769531 C 535.035156 309.769531 515.144531 317.230469 508.511719 320.546875 C 501.882812 323.859375 494.421875 321.375 490.277344 315.574219 L 489.449219 313.914062 Z M 472.046875 353.699219 " fill-opacity="1" fill-rule="evenodd"/><path fill="#c4923a" d="M 632.835938 532.722656 C 627.863281 532.722656 623.71875 530.238281 621.234375 526.09375 L 612.945312 511.175781 C 600.511719 515.320312 583.109375 520.292969 561.558594 520.292969 C 529.234375 520.292969 481.992188 509.515625 438.890625 459.789062 C 433.917969 454.816406 433.917969 448.183594 437.234375 443.210938 C 441.378906 437.410156 448.007812 435.753906 453.8125 437.410156 C 479.503906 447.355469 504.371094 451.5 528.40625 451.5 C 548.296875 451.5 563.214844 449.011719 574.820312 444.871094 L 568.1875 434.921875 C 565.703125 429.949219 566.53125 424.148438 569.015625 420.003906 C 571.503906 415.859375 576.476562 413.375 582.277344 414.203125 L 670.960938 423.320312 C 675.105469 424.148438 679.25 426.636719 681.738281 429.949219 C 683.394531 434.09375 683.394531 439.066406 681.738281 443.210938 L 646.097656 524.4375 C 643.613281 529.410156 639.46875 532.722656 633.664062 532.722656 C 633.664062 532.722656 633.664062 532.722656 632.835938 532.722656 Z M 503.539062 478.023438 C 521.773438 487.140625 540.835938 492.113281 561.558594 492.113281 C 586.421875 492.113281 606.316406 484.652344 612.945312 481.335938 C 619.574219 478.851562 627.035156 481.335938 631.179688 487.140625 L 631.179688 488.796875 L 649.414062 449.011719 L 606.316406 444.039062 L 607.144531 445.699219 C 608.800781 449.011719 608.800781 453.15625 607.972656 456.472656 C 607.144531 460.617188 603.828125 463.101562 600.511719 464.761719 C 588.910156 470.5625 564.042969 479.679688 528.40625 479.679688 C 520.117188 479.679688 511.828125 478.851562 503.539062 478.023438 Z M 503.539062 478.023438 " fill-opacity="1" fill-rule="evenodd"/></svg>