<svg xmlns="http://www.w3.org/2000/svg" xmlns:xlink="http://www.w3.org/1999/xlink" width="2000" zoomAndPan="magnify" viewBox="0 0 1500 1499.999933" height="2000" preserveAspectRatio="xMidYMid meet" version="1.0"><defs><clipPath id="d8fd6a8ced"><path d="M 150 28.042969 L 1420.5 28.042969 L 1420.5 1471.792969 L 150 1471.792969 Z M 150 28.042969 " clip-rule="nonzero"/></clipPath></defs><g clip-path="url(#d8fd6a8ced)"><path fill="#c4923a" d="M 785.46875 241.394531 C 552.859375 241.394531 363.621094 430.628906 363.621094 663.242188 C 363.621094 828.511719 433.601562 916.195312 507.652344 1009.027344 C 540.785156 1050.546875 574.90625 1093.328125 602.914062 1144.460938 C 579.128906 1152.699219 561.964844 1175.257812 561.964844 1201.796875 C 561.964844 1220.070312 570.113281 1236.457031 582.964844 1247.601562 C 569.992188 1260.574219 561.964844 1278.488281 561.964844 1298.230469 C 561.964844 1331.929688 585.359375 1360.238281 616.753906 1367.878906 C 624.574219 1426.53125 674.902344 1471.945312 735.683594 1471.945312 L 835.226562 1471.945312 C 895.980469 1471.945312 946.304688 1426.53125 954.15625 1367.878906 C 985.550781 1360.269531 1008.945312 1331.929688 1008.945312 1298.230469 C 1008.945312 1278.488281 1000.917969 1260.574219 987.945312 1247.601562 C 1000.765625 1236.457031 1008.945312 1220.070312 1008.945312 1201.796875 C 1008.945312 1175.257812 991.78125 1152.671875 967.996094 1144.460938 C 996.003906 1093.328125 1030.125 1050.546875 1063.257812 1009.027344 C 1137.339844 916.195312 1207.289062 828.480469 1207.289062 663.242188 C 1207.316406 430.660156 1018.082031 241.394531 785.46875 241.394531 Z M 835.257812 1436 L 735.710938 1436 C 695.539062 1436 661.871094 1407.660156 653.601562 1369.914062 L 917.367188 1369.914062 C 909.101562 1407.660156 875.429688 1436 835.257812 1436 Z M 937.289062 1333.964844 L 633.652344 1333.964844 C 613.96875 1333.964844 597.941406 1317.941406 597.941406 1298.257812 C 597.941406 1278.578125 613.96875 1262.550781 633.652344 1262.550781 L 937.257812 1262.550781 C 956.941406 1262.550781 972.96875 1278.578125 972.96875 1298.257812 C 972.96875 1317.941406 956.972656 1333.964844 937.289062 1333.964844 Z M 948.222656 1226.574219 L 948.222656 1227.410156 C 944.660156 1226.871094 941.003906 1226.574219 937.257812 1226.574219 L 633.652344 1226.574219 C 629.9375 1226.574219 626.28125 1226.871094 622.6875 1227.410156 L 622.6875 1226.574219 C 609.027344 1226.574219 597.914062 1215.457031 597.914062 1201.796875 C 597.914062 1188.136719 609.027344 1177.023438 622.6875 1177.023438 L 948.222656 1177.023438 C 961.882812 1177.023438 972.996094 1188.136719 972.996094 1201.796875 C 972.996094 1215.457031 961.882812 1226.574219 948.222656 1226.574219 Z M 1035.1875 986.621094 C 998.160156 1033.054688 959.9375 1080.984375 929.140625 1141.105469 L 641.828125 1141.105469 C 611.035156 1080.984375 572.808594 1033.054688 535.78125 986.621094 C 465.746094 898.847656 399.601562 815.898438 399.601562 663.242188 C 399.601562 450.460938 572.71875 277.339844 785.5 277.339844 C 998.28125 277.339844 1171.398438 450.460938 1171.398438 663.242188 C 1171.371094 815.929688 1105.226562 898.847656 1035.1875 986.621094 Z M 883.667969 507.496094 L 687.09375 507.496094 C 655.519531 507.496094 629.847656 533.171875 629.847656 564.746094 L 629.847656 761.320312 C 629.847656 792.894531 655.519531 818.566406 687.09375 818.566406 L 883.667969 818.566406 C 915.242188 818.566406 940.914062 792.894531 940.914062 761.320312 L 940.914062 564.746094 C 940.914062 533.199219 915.242188 507.496094 883.667969 507.496094 Z M 904.964844 761.347656 C 904.964844 773.089844 895.410156 782.648438 883.667969 782.648438 L 687.09375 782.648438 C 675.351562 782.648438 665.792969 773.089844 665.792969 761.347656 L 665.792969 564.773438 C 665.792969 553.03125 675.351562 543.476562 687.09375 543.476562 L 883.667969 543.476562 C 895.410156 543.476562 904.964844 553.03125 904.964844 564.773438 Z M 1015.355469 511.902344 C 1015.355469 468.433594 980.007812 433.085938 936.539062 433.085938 L 903.886719 433.085938 L 903.886719 347.710938 C 903.886719 337.792969 895.828125 329.734375 885.914062 329.734375 C 876 329.734375 867.941406 337.792969 867.941406 347.710938 L 867.941406 433.085938 L 803.355469 433.085938 L 803.355469 347.710938 C 803.355469 337.792969 795.296875 329.734375 785.378906 329.734375 C 775.464844 329.734375 767.40625 337.792969 767.40625 347.710938 L 767.40625 433.085938 L 702.820312 433.085938 L 702.820312 347.710938 C 702.820312 337.792969 694.761719 329.734375 684.847656 329.734375 C 674.929688 329.734375 666.871094 337.792969 666.871094 347.710938 L 666.871094 433.085938 L 634.25 433.085938 C 590.78125 433.085938 555.433594 468.433594 555.433594 511.902344 L 555.433594 544.554688 L 470.058594 544.554688 C 460.144531 544.554688 452.085938 552.613281 452.085938 562.527344 C 452.085938 572.441406 460.144531 580.5 470.058594 580.5 L 555.433594 580.5 L 555.433594 645.085938 L 470.058594 645.085938 C 460.144531 645.085938 452.085938 653.144531 452.085938 663.0625 C 452.085938 672.976562 460.144531 681.035156 470.058594 681.035156 L 555.433594 681.035156 L 555.433594 745.621094 L 470.058594 745.621094 C 460.144531 745.621094 452.085938 753.679688 452.085938 763.59375 C 452.085938 773.511719 460.144531 781.570312 470.058594 781.570312 L 555.433594 781.570312 L 555.433594 814.191406 C 555.433594 857.660156 590.78125 893.007812 634.25 893.007812 L 666.902344 893.007812 L 666.902344 978.382812 C 666.902344 988.300781 674.960938 996.355469 684.875 996.355469 C 694.792969 996.355469 702.851562 988.300781 702.851562 978.382812 L 702.851562 893.007812 L 767.4375 893.007812 L 767.4375 978.382812 C 767.4375 988.300781 775.496094 996.355469 785.410156 996.355469 C 795.324219 996.355469 803.382812 988.300781 803.382812 978.382812 L 803.382812 893.007812 L 868 893.007812 L 868 978.382812 C 868 988.300781 876.058594 996.355469 885.972656 996.355469 C 895.890625 996.355469 903.949219 988.300781 903.949219 978.382812 L 903.949219 893.007812 L 936.570312 893.007812 C 980.039062 893.007812 1015.386719 857.660156 1015.386719 814.191406 L 1015.386719 781.539062 L 1100.761719 781.539062 C 1110.675781 781.539062 1118.734375 773.480469 1118.734375 763.566406 C 1118.734375 753.648438 1110.675781 745.589844 1100.761719 745.589844 L 1015.386719 745.589844 L 1015.386719 681.003906 L 1100.761719 681.003906 C 1110.675781 681.003906 1118.734375 672.945312 1118.734375 663.03125 C 1118.734375 653.117188 1110.675781 645.058594 1100.761719 645.058594 L 1015.386719 645.058594 L 1015.386719 580.472656 L 1100.761719 580.472656 C 1110.675781 580.472656 1118.734375 572.414062 1118.734375 562.496094 C 1118.734375 552.582031 1110.675781 544.523438 1100.761719 544.523438 L 1015.386719 544.523438 L 1015.386719 511.902344 Z M 979.410156 814.191406 C 979.410156 837.828125 960.175781 857.058594 936.539062 857.058594 L 634.21875 857.058594 C 610.585938 857.058594 591.351562 837.828125 591.351562 814.191406 L 591.351562 511.902344 C 591.351562 488.265625 610.585938 469.035156 634.21875 469.035156 L 936.539062 469.035156 C 960.175781 469.035156 979.410156 488.265625 979.410156 511.902344 Z M 776.632812 598.535156 C 773.578125 592.453125 767.375 588.589844 760.546875 588.589844 C 753.714844 588.589844 747.515625 592.425781 744.460938 598.535156 L 687.121094 713.238281 C 682.691406 722.105469 686.285156 732.921875 695.152344 737.355469 C 704.046875 741.785156 714.832031 738.191406 719.265625 729.324219 L 729.75 708.355469 L 791.3125 708.355469 L 801.796875 729.324219 C 804.941406 735.617188 811.292969 739.269531 817.882812 739.269531 C 820.578125 739.269531 823.335938 738.671875 825.910156 737.382812 C 834.777344 732.949219 838.402344 722.136719 833.941406 713.269531 Z M 747.753906 672.378906 L 760.578125 646.765625 L 773.398438 672.378906 Z M 885.523438 604.824219 L 885.523438 719.53125 C 885.523438 729.445312 877.464844 737.503906 867.550781 737.503906 C 857.636719 737.503906 849.578125 729.445312 849.578125 719.53125 L 849.578125 604.824219 C 849.578125 594.910156 857.636719 586.851562 867.550781 586.851562 C 877.464844 586.851562 885.523438 594.910156 885.523438 604.824219 Z M 767.496094 150.714844 L 767.496094 46.019531 C 767.496094 36.101562 775.554688 28.042969 785.46875 28.042969 C 795.386719 28.042969 803.445312 36.101562 803.445312 46.019531 L 803.445312 150.714844 C 803.445312 160.632812 795.386719 168.691406 785.46875 168.691406 C 775.554688 168.691406 767.496094 160.632812 767.496094 150.714844 Z M 1234.457031 214.105469 C 1241.46875 221.113281 1241.46875 232.496094 1234.457031 239.535156 L 1160.433594 313.558594 C 1156.929688 317.0625 1152.316406 318.832031 1147.734375 318.832031 C 1143.121094 318.832031 1138.539062 317.0625 1135.03125 313.558594 C 1128.023438 306.550781 1128.023438 295.164062 1135.03125 288.125 L 1209.054688 214.105469 C 1216.0625 207.0625 1227.449219 207.09375 1234.457031 214.105469 Z M 1420.398438 663.121094 C 1420.398438 673.035156 1412.339844 681.09375 1402.421875 681.09375 L 1297.726562 681.09375 C 1287.808594 681.09375 1279.753906 673.035156 1279.753906 663.121094 C 1279.753906 653.207031 1287.808594 645.148438 1297.726562 645.148438 L 1402.421875 645.148438 C 1412.339844 645.148438 1420.398438 653.207031 1420.398438 663.121094 Z M 410.503906 313.558594 L 336.480469 239.535156 C 329.472656 232.527344 329.472656 221.144531 336.480469 214.105469 C 343.492188 207.09375 354.875 207.09375 361.914062 214.105469 L 435.9375 288.125 C 442.949219 295.136719 442.949219 306.519531 435.9375 313.558594 C 432.433594 317.0625 427.820312 318.832031 423.238281 318.832031 C 418.652344 318.832031 414.007812 317.0625 410.503906 313.558594 Z M 291.1875 663.121094 C 291.1875 673.035156 283.128906 681.09375 273.214844 681.09375 L 168.515625 681.09375 C 158.601562 681.09375 150.542969 673.035156 150.542969 663.121094 C 150.542969 653.207031 158.601562 645.148438 168.515625 645.148438 L 273.214844 645.148438 C 283.160156 645.148438 291.1875 653.207031 291.1875 663.121094 Z M 291.1875 663.121094 " fill-opacity="1" fill-rule="nonzero"/></g></svg>