<svg xmlns="http://www.w3.org/2000/svg" xmlns:xlink="http://www.w3.org/1999/xlink" width="2000" zoomAndPan="magnify" viewBox="0 0 1500 1499.999933" height="2000" preserveAspectRatio="xMidYMid meet" version="1.0"><defs><clipPath id="9b5e9047e3"><path d="M 39.453125 45 L 1454 45 L 1454 1460 L 39.453125 1460 Z M 39.453125 45 " clip-rule="nonzero"/></clipPath></defs><g clip-path="url(#9b5e9047e3)"><path fill="#c4923a" d="M 1447.5 976.410156 C 1442.125 966.6875 1433.640625 959.050781 1422.679688 954.066406 C 1408.78125 947.734375 1390.644531 945.757812 1370.277344 949.609375 C 1351.679688 940.804688 1334.953125 934.015625 1320.070312 929.207031 C 1331.417969 897.773438 1340.503906 865.175781 1347.046875 831.65625 C 1355.039062 790.566406 1359.246094 748.242188 1359.246094 705.070312 C 1359.246094 673.777344 1356.984375 642.699219 1352.667969 612.078125 C 1348.746094 584.285156 1343.050781 556.988281 1335.695312 530.292969 C 1390.714844 431.75 1453.792969 311.390625 1453.792969 252.410156 C 1453.792969 195.34375 1431.023438 143.542969 1394.214844 106.027344 C 1357.335938 68.40625 1306.347656 45.140625 1250.09375 45.140625 C 1193.804688 45.140625 1142.851562 68.40625 1105.972656 106.027344 C 1091.015625 121.265625 1078.429688 138.910156 1068.707031 158.253906 C 1018.921875 124.554688 964.363281 97.472656 906.304688 78.304688 C 841.207031 56.773438 771.585938 45.140625 699.386719 45.140625 C 517.148438 45.140625 352.164062 119.003906 232.761719 238.445312 C 202.492188 268.710938 175.195312 301.878906 151.257812 337.519531 C 151.082031 337.800781 150.90625 338.050781 150.726562 338.332031 C 80.472656 443.207031 39.453125 569.328125 39.453125 705.035156 C 39.453125 705.035156 39.453125 705.035156 39.453125 705.070312 C 39.453125 705.070312 39.453125 705.070312 39.453125 705.105469 C 39.453125 766.347656 47.90625 825.855469 63.675781 882.464844 C 76.296875 927.757812 93.695312 971.109375 115.226562 1011.984375 L 62.261719 1011.984375 C 49.671875 1011.984375 39.453125 1022.203125 39.453125 1034.789062 L 39.453125 1436.707031 C 39.453125 1449.296875 49.671875 1459.515625 62.261719 1459.515625 L 467.753906 1459.515625 C 480.339844 1459.515625 490.558594 1449.296875 490.558594 1436.707031 L 490.558594 1331.128906 C 518.597656 1340.464844 547.484375 1348.03125 577.117188 1353.582031 C 616.929688 1361.042969 657.804688 1364.964844 699.351562 1364.964844 C 735.804688 1364.964844 771.835938 1361.925781 807.160156 1356.125 C 826.960938 1352.875 846.40625 1348.703125 865.535156 1343.75 L 824.945312 1426.703125 C 819.429688 1437.980469 824.09375 1451.558594 835.375 1457.074219 C 841.03125 1459.832031 847.289062 1460.046875 852.839844 1458.136719 L 967.722656 1418.144531 C 971.824219 1416.730469 975.253906 1414.222656 977.796875 1411.109375 L 1178.632812 1196.625 C 1180.683594 1194.433594 1182.171875 1191.992188 1183.195312 1189.375 C 1186.09375 1188.210938 1188.996094 1187.042969 1191.859375 1185.910156 C 1302.882812 1141.183594 1378.199219 1101.121094 1417.765625 1065.726562 C 1439.050781 1046.703125 1450.011719 1027.539062 1452.910156 1010.566406 C 1455.066406 997.980469 1453.050781 986.417969 1447.570312 976.554688 Z M 674.527344 1135.84375 L 607.136719 1156.8125 C 606.535156 1154.546875 605.933594 1152.25 605.332031 1149.953125 C 599.921875 1128.878906 594.867188 1106.285156 590.269531 1082.347656 L 681.351562 1082.347656 C 683.828125 1088.144531 688.671875 1092.917969 695.144531 1095.039062 L 837.636719 1142.242188 L 761.261719 1182.550781 L 694.753906 1139.167969 C 689.0625 1135.101562 681.671875 1133.617188 674.527344 1135.84375 Z M 203.90625 1057.558594 L 326.636719 1057.558594 L 326.636719 1174.382812 L 279.820312 1136.410156 C 271.652344 1129.585938 259.492188 1129.265625 250.933594 1136.234375 L 203.90625 1174.382812 Z M 349.621094 1011.984375 C 349.550781 1011.984375 349.511719 1011.984375 349.441406 1011.984375 C 349.371094 1011.984375 349.335938 1011.984375 349.265625 1011.984375 L 344.492188 1011.984375 C 327.378906 968.457031 314.011719 922.207031 304.785156 873.414062 C 296.050781 827.304688 290.996094 778.722656 289.828125 727.878906 L 512.515625 727.878906 C 513.542969 840.386719 522.027344 945.757812 536.171875 1036.769531 L 490.523438 1036.769531 L 490.523438 1034.789062 C 490.523438 1022.203125 480.304688 1011.984375 467.71875 1011.984375 Z M 85.527344 682.265625 C 89.664062 568.730469 124.597656 463.078125 182.234375 373.375 L 305.492188 373.375 C 268.894531 464.667969 246.9375 569.929688 244.285156 682.265625 Z M 354.640625 373.375 L 536.242188 373.375 C 522.097656 464.386719 513.578125 569.753906 512.585938 682.265625 L 289.898438 682.265625 C 292.65625 568.695312 316.027344 463.078125 354.640625 373.375 Z M 1302.671875 589.023438 C 1304.511719 598.710938 1306.242188 608.472656 1307.621094 618.300781 C 1310.558594 639.128906 1312.464844 660.484375 1313.246094 682.265625 L 1154.449219 682.265625 C 1152.46875 597.96875 1139.597656 517.636719 1117.851562 444.195312 C 1142.214844 491.257812 1168.980469 538.566406 1191.648438 578.628906 C 1207.097656 605.996094 1220.605469 629.828125 1230.011719 647.753906 C 1232.097656 651.714844 1235.351562 655.144531 1239.628906 657.371094 C 1250.730469 663.171875 1264.449219 658.859375 1270.25 647.753906 C 1278.417969 632.125 1289.695312 612.042969 1302.671875 589.023438 Z M 1057.78125 1002.222656 L 868.1875 997.910156 C 873.597656 957.566406 877.875 915.347656 880.882812 871.113281 C 883.992188 825.21875 885.796875 777.484375 886.21875 727.84375 L 1108.871094 727.84375 C 1107.671875 775.292969 1102.753906 821.648438 1094.660156 865.917969 C 1085.855469 913.96875 1073.300781 959.828125 1057.78125 1002.222656 Z M 724.949219 1036.734375 L 582.207031 1036.734375 C 567.851562 946.675781 559.1875 841.164062 558.128906 727.84375 L 840.535156 727.84375 C 840.113281 777.0625 838.414062 823.769531 835.375 868.074219 C 832.332031 912.980469 827.949219 955.867188 822.328125 996.847656 L 812.746094 996.636719 C 808.820312 996.355469 804.824219 997.0625 801.042969 998.933594 Z M 699.316406 90.753906 C 699.316406 90.753906 699.351562 90.753906 699.351562 90.753906 C 699.351562 90.753906 699.386719 90.753906 699.386719 90.753906 C 732.976562 90.789062 766.460938 155.53125 793.402344 260.15625 C 798.8125 281.230469 803.871094 303.824219 808.464844 327.761719 L 590.199219 327.761719 C 594.796875 303.824219 599.851562 281.230469 605.261719 260.15625 C 632.273438 155.53125 665.722656 90.789062 699.316406 90.753906 Z M 816.492188 373.375 C 830.847656 463.429688 839.546875 568.941406 840.570312 682.265625 L 558.164062 682.265625 C 559.1875 568.941406 567.851562 463.429688 582.242188 373.375 Z M 886.183594 682.265625 C 885.160156 569.753906 876.671875 464.386719 862.53125 373.375 L 1044.132812 373.375 C 1082.742188 463.113281 1106.078125 568.695312 1108.871094 682.265625 Z M 854.714844 327.761719 C 849.484375 299.757812 843.71875 273.378906 837.425781 248.945312 C 821.621094 187.597656 801.960938 137.671875 779.367188 102.597656 C 859.03125 126.394531 930.558594 185.019531 986.460938 267.296875 C 999.332031 286.25 1011.320312 306.476562 1022.457031 327.761719 Z M 619.371094 102.5625 C 596.777344 137.636719 577.117188 187.5625 561.3125 248.910156 C 555.015625 273.34375 549.21875 299.722656 544.019531 327.726562 L 376.28125 327.726562 C 387.382812 306.441406 399.40625 286.214844 412.273438 267.261719 C 468.140625 184.984375 539.707031 126.394531 619.371094 102.5625 Z M 561.3125 1161.160156 C 562.160156 1164.449219 563.007812 1167.667969 563.890625 1170.882812 C 560.957031 1172.546875 558.304688 1174.808594 556.289062 1177.777344 C 549.21875 1188.136719 551.871094 1202.316406 562.265625 1209.390625 L 579.273438 1221.058594 C 591.1875 1255.355469 604.554688 1284.382812 619.15625 1307.15625 C 609.222656 1304.113281 599.390625 1300.578125 589.703125 1296.476562 C 554.664062 1281.554688 521.355469 1259.632812 490.59375 1231.984375 L 490.59375 1082.347656 L 544.054688 1082.347656 C 549.253906 1110.351562 555.015625 1136.726562 561.3125 1161.160156 Z M 699.386719 1319.355469 C 681.316406 1319.355469 663.285156 1300.648438 646.3125 1267.128906 L 721.730469 1318.929688 C 714.34375 1319.210938 706.882812 1319.355469 699.386719 1319.355469 Z M 893.433594 1112.753906 L 761.898438 1069.15625 L 816.316406 1042.179688 L 1018.425781 1046.777344 Z M 1106.75 1000.136719 C 1120.222656 960.5 1131.253906 918.246094 1139.351562 874.121094 C 1147.980469 826.808594 1153.210938 777.660156 1154.449219 727.84375 L 1313.210938 727.84375 C 1312.042969 760.371094 1308.363281 792.195312 1302.355469 823.0625 C 1295.847656 856.511719 1286.546875 889.042969 1274.773438 920.441406 C 1266.289062 920.332031 1258.722656 921.394531 1252.144531 923.65625 C 1251.050781 924.046875 1249.953125 924.507812 1248.925781 925.035156 Z M 1138.398438 137.921875 C 1166.964844 108.785156 1206.460938 90.753906 1250.09375 90.753906 C 1293.726562 90.753906 1333.222656 108.785156 1361.792969 137.921875 C 1390.433594 167.128906 1408.183594 207.613281 1408.183594 252.410156 C 1408.183594 302.550781 1345.242188 420.433594 1291.886719 515.761719 C 1291.640625 516.1875 1291.394531 516.609375 1291.179688 517.035156 C 1283.4375 530.824219 1275.941406 544.15625 1268.832031 556.707031 L 1250.128906 589.945312 L 1231.140625 556.175781 C 1195.464844 493.0625 1149.074219 410.996094 1119.902344 344.660156 C 1119.304688 342.433594 1118.382812 340.3125 1117.179688 338.402344 C 1101.941406 302.867188 1092.042969 272.355469 1092.042969 252.410156 C 1092.007812 207.613281 1109.757812 167.128906 1138.398438 137.921875 Z M 1051.027344 285.296875 C 1042.46875 270.230469 1033.488281 255.699219 1024.046875 241.839844 C 996.113281 200.683594 964.46875 164.898438 929.886719 135.480469 C 973.484375 153.125 1014.570312 175.613281 1052.476562 202.273438 C 1048.550781 218.324219 1046.429688 235.121094 1046.429688 252.410156 C 1046.394531 261.921875 1048.054688 272.992188 1051.027344 285.296875 Z M 264.972656 270.65625 C 322.675781 212.953125 391.835938 166.703125 468.742188 135.550781 C 434.195312 164.933594 402.621094 200.71875 374.6875 241.804688 C 356.691406 268.324219 340.214844 297.070312 325.503906 327.761719 L 214.585938 327.761719 C 230.214844 307.710938 247.042969 288.617188 264.972656 270.65625 Z M 107.484375 870.335938 C 94.828125 824.902344 87.296875 777.167969 85.527344 727.84375 L 244.25 727.84375 C 245.453125 781.269531 250.828125 832.644531 260.09375 881.757812 C 268.71875 927.335938 280.742188 970.71875 295.839844 1011.949219 L 181.277344 1011.949219 C 181.207031 1011.949219 181.171875 1011.949219 181.101562 1011.949219 C 181.03125 1011.949219 180.996094 1011.949219 180.925781 1011.949219 L 167.097656 1011.949219 C 141.640625 967.960938 121.453125 920.476562 107.484375 870.335938 Z M 444.945312 1413.867188 L 85.066406 1413.867188 L 85.066406 1057.558594 L 158.292969 1057.558594 L 158.292969 1222.152344 C 158.292969 1234.742188 168.511719 1244.960938 181.101562 1244.960938 C 187.21875 1244.960938 192.734375 1242.554688 196.835938 1238.664062 L 265.289062 1183.152344 L 335.121094 1239.796875 C 344.847656 1247.71875 359.167969 1246.234375 367.085938 1236.507812 C 370.515625 1232.300781 372.179688 1227.210938 372.25 1222.152344 L 372.25 1057.558594 L 444.945312 1057.558594 Z M 947.53125 1377.023438 L 890.003906 1397.035156 L 950.996094 1272.503906 C 1001.242188 1255.992188 1047.703125 1240.007812 1090.273438 1224.558594 Z M 1408.003906 1002.859375 C 1406.695312 1010.460938 1400.332031 1020.328125 1387.460938 1031.855469 C 1351.960938 1063.605469 1281.105469 1100.875 1174.886719 1143.65625 C 1069.199219 1186.230469 929.109375 1233.855469 754.722656 1286.398438 L 626.617188 1198.390625 L 677.851562 1182.445312 L 747.648438 1227.988281 C 754.792969 1232.621094 763.597656 1232.726562 770.632812 1229.046875 L 1268.089844 966.441406 C 1271.980469 965.449219 1277.601562 965.664062 1284.851562 966.9375 C 1285.488281 967.078125 1286.125 967.183594 1286.761719 967.289062 C 1289.414062 967.820312 1292.3125 968.492188 1295.386719 969.304688 L 1296.273438 969.515625 C 1312.464844 973.867188 1332.867188 982.035156 1357.546875 994.054688 C 1363.027344 996.707031 1369.039062 996.992188 1374.414062 995.292969 C 1387.179688 992.074219 1397.328125 992.429688 1403.832031 995.398438 C 1405.742188 996.285156 1407.085938 997.308594 1407.722656 998.40625 C 1408.21875 999.359375 1408.359375 1000.878906 1408.003906 1002.859375 Z M 1250.09375 338.828125 C 1275.90625 338.828125 1299.277344 328.148438 1316.179688 310.894531 C 1333.011719 293.746094 1343.441406 270.089844 1343.441406 244.066406 C 1343.441406 218.042969 1333.011719 194.386719 1316.179688 177.238281 C 1299.242188 159.984375 1275.871094 149.304688 1250.09375 149.304688 C 1224.28125 149.304688 1200.910156 159.984375 1184.007812 177.238281 C 1167.179688 194.386719 1156.746094 218.042969 1156.746094 244.066406 C 1156.746094 270.089844 1167.179688 293.746094 1184.007812 310.894531 C 1200.910156 328.148438 1224.28125 338.828125 1250.09375 338.828125 Z M 1216.433594 209.132812 C 1225.023438 200.363281 1236.941406 194.917969 1250.09375 194.917969 C 1263.246094 194.917969 1275.164062 200.363281 1283.753906 209.132812 C 1292.453125 218.007812 1297.828125 230.347656 1297.828125 244.066406 C 1297.828125 257.785156 1292.453125 270.125 1283.753906 279 C 1275.164062 287.769531 1263.246094 293.214844 1250.09375 293.214844 C 1236.941406 293.214844 1225.023438 287.769531 1216.433594 279 C 1207.734375 270.125 1202.359375 257.785156 1202.359375 244.066406 C 1202.359375 230.347656 1207.734375 218.007812 1216.433594 209.132812 Z M 288.097656 1316.914062 C 288.097656 1329.5 277.878906 1339.71875 265.289062 1339.71875 L 124.773438 1339.71875 C 112.1875 1339.71875 101.96875 1329.5 101.96875 1316.914062 C 101.96875 1304.328125 112.1875 1294.109375 124.773438 1294.109375 L 265.289062 1294.109375 C 277.878906 1294.109375 288.097656 1304.328125 288.097656 1316.914062 Z M 288.097656 1370.800781 C 288.097656 1383.386719 277.878906 1393.605469 265.289062 1393.605469 L 124.773438 1393.605469 C 112.1875 1393.605469 101.96875 1383.386719 101.96875 1370.800781 C 101.96875 1358.214844 112.1875 1347.996094 124.773438 1347.996094 L 265.289062 1347.996094 C 277.878906 1347.996094 288.097656 1358.175781 288.097656 1370.800781 Z M 288.097656 1370.800781 " fill-opacity="1" fill-rule="nonzero"/></g></svg>