<svg xmlns="http://www.w3.org/2000/svg" xmlns:xlink="http://www.w3.org/1999/xlink" width="2000" zoomAndPan="magnify" viewBox="0 0 1500 1499.999933" height="2000" preserveAspectRatio="xMidYMid meet" version="1.0"><defs><clipPath id="56b941649b"><path d="M 340 671 L 1402.9375 671 L 1402.9375 1464 L 340 1464 Z M 340 671 " clip-rule="nonzero"/></clipPath><clipPath id="7cddf8952e"><path d="M 97.1875 36 L 487 36 L 487 426 L 97.1875 426 Z M 97.1875 36 " clip-rule="nonzero"/></clipPath></defs><path fill="#c4923a" d="M 1247.652344 1121.152344 L 1242.804688 1127.753906 C 1223.871094 1074.011719 1172.699219 1035.296875 1112.578125 1035.296875 C 1067.511719 1035.296875 1025.164062 1057.347656 999.308594 1094.304688 C 993.425781 1102.6875 995.476562 1114.257812 1003.855469 1120.113281 C 1012.238281 1126 1023.832031 1123.972656 1029.664062 1115.566406 C 1048.601562 1088.523438 1079.601562 1072.378906 1112.554688 1072.378906 C 1153.242188 1072.378906 1188.171875 1096.65625 1204.191406 1131.386719 L 1200.683594 1128.941406 C 1192.253906 1123.082031 1180.734375 1125.183594 1174.875 1133.5625 C 1169.039062 1141.96875 1171.089844 1153.539062 1179.496094 1159.371094 L 1221.597656 1188.691406 C 1222.3125 1189.183594 1223.105469 1189.40625 1223.84375 1189.777344 C 1224.488281 1190.097656 1225.058594 1190.445312 1225.75 1190.691406 C 1227.851562 1191.484375 1230.027344 1192.003906 1232.199219 1192.003906 C 1234.996094 1192.003906 1237.566406 1191.285156 1239.9375 1190.199219 C 1240.605469 1189.902344 1241.125 1189.359375 1241.742188 1188.988281 C 1243.425781 1187.949219 1244.933594 1186.761719 1246.191406 1185.253906 C 1246.464844 1184.933594 1246.859375 1184.808594 1247.109375 1184.488281 L 1277.488281 1143.15625 C 1283.546875 1134.898438 1281.765625 1123.304688 1273.535156 1117.222656 C 1265.300781 1111.191406 1253.660156 1112.945312 1247.601562 1121.179688 Z M 1247.652344 1121.152344 " fill-opacity="1" fill-rule="nonzero"/><path fill="#c4923a" d="M 1195.464844 1231.382812 C 1176.53125 1258.425781 1145.53125 1274.570312 1112.578125 1274.570312 C 1071.886719 1274.570312 1036.957031 1250.269531 1020.9375 1215.535156 L 1024.449219 1217.984375 C 1032.804688 1223.792969 1044.375 1221.742188 1050.257812 1213.335938 C 1056.089844 1204.933594 1054.039062 1193.386719 1045.609375 1187.527344 L 1003.511719 1158.234375 C 1002.964844 1157.863281 1002.347656 1157.789062 1001.78125 1157.46875 C 1000.714844 1156.875 999.652344 1156.40625 998.492188 1156.035156 C 997.253906 1155.640625 996.042969 1155.390625 994.757812 1155.269531 C 994.117188 1155.195312 993.574219 1154.898438 992.929688 1154.898438 C 992.433594 1154.898438 992.015625 1155.144531 991.519531 1155.195312 C 990.210938 1155.292969 988.972656 1155.589844 987.714844 1155.960938 C 986.652344 1156.28125 985.636719 1156.601562 984.648438 1157.097656 C 983.585938 1157.640625 982.644531 1158.332031 981.683594 1159.101562 C 980.71875 1159.839844 979.828125 1160.582031 979.035156 1161.523438 C 978.714844 1161.894531 978.269531 1162.089844 978 1162.488281 L 947.617188 1203.820312 C 941.558594 1212.078125 943.339844 1223.671875 951.570312 1229.75 C 954.882812 1232.175781 958.742188 1233.359375 962.546875 1233.359375 C 968.234375 1233.359375 973.871094 1230.742188 977.503906 1225.796875 L 982.347656 1219.21875 C 1001.285156 1272.964844 1052.457031 1311.675781 1112.601562 1311.675781 C 1157.667969 1311.675781 1200.015625 1289.625 1225.871094 1252.667969 C 1231.757812 1244.289062 1229.703125 1232.71875 1221.324219 1226.859375 C 1212.945312 1220.976562 1201.351562 1223.003906 1195.515625 1231.40625 Z M 1195.464844 1231.382812 " fill-opacity="1" fill-rule="nonzero"/><g clip-path="url(#56b941649b)"><path fill="#c4923a" d="M 1378.84375 1237.390625 C 1392.21875 1237.390625 1403.09375 1226.511719 1403.09375 1213.140625 L 1403.09375 1133.6875 C 1403.09375 1121.078125 1393.058594 1110.449219 1379.882812 1109.460938 L 1335.953125 1106.988281 C 1331.304688 1091.339844 1325.125 1076.433594 1317.488281 1062.464844 L 1345.992188 1030.601562 C 1355.382812 1021.207031 1355.410156 1005.878906 1345.992188 996.386719 L 1290.417969 941.136719 C 1286.066406 936.21875 1279.8125 933.300781 1273.261719 933.101562 C 1267.03125 932.832031 1260.359375 935.453125 1256.527344 939.332031 L 1223.597656 968.625 C 1209.457031 960.964844 1194.476562 954.757812 1178.828125 950.109375 L 1176.382812 907.21875 C 1176.382812 893.996094 1165.503906 883.214844 1152.128906 883.214844 L 1100.886719 883.214844 L 1100.886719 828.089844 C 1100.886719 828.089844 1100.886719 828.039062 1100.886719 828.039062 L 1100.886719 690.199219 C 1100.886719 679.964844 1092.578125 671.65625 1082.34375 671.65625 L 937.457031 671.65625 C 927.222656 671.65625 918.914062 679.964844 918.914062 690.199219 L 918.914062 827.445312 C 918.914062 827.644531 918.792969 827.84375 918.792969 828.039062 L 918.792969 956.933594 L 879.238281 996.488281 C 869.769531 1006.003906 869.695312 1021.332031 878.324219 1029.882812 L 907.570312 1062.539062 C 902.15625 1072.503906 897.382812 1083.109375 893.28125 1094.257812 C 891.820312 1098.386719 890.414062 1102.664062 889.128906 1107.039062 L 844.730469 1109.558594 C 832.097656 1110.597656 822.207031 1121.203125 822.207031 1133.761719 L 822.207031 1213.214844 C 822.207031 1224.238281 829.648438 1233.1875 839.066406 1236.105469 C 805.25 1261.492188 763.84375 1275.609375 720.828125 1275.609375 C 611.664062 1275.609375 522.839844 1186.6875 522.839844 1077.371094 L 522.839844 828.089844 C 522.839844 827.890625 522.742188 827.742188 522.742188 827.546875 L 522.742188 690.246094 C 522.742188 680.011719 514.4375 671.707031 504.203125 671.707031 L 359.3125 671.707031 C 349.078125 671.707031 340.773438 680.011719 340.773438 690.246094 L 340.773438 1077.371094 C 340.773438 1287.078125 511.273438 1457.675781 720.855469 1457.675781 C 794.472656 1457.675781 864.949219 1436.664062 925.835938 1397.234375 L 935.429688 1406.824219 C 944.871094 1416.269531 960.199219 1416.269531 968.753906 1407.617188 L 1001.707031 1378.472656 C 1015.773438 1386.058594 1030.652344 1392.167969 1046.226562 1396.789062 L 1048.722656 1441.039062 C 1049.6875 1453.867188 1060.316406 1463.929688 1072.925781 1463.929688 L 1152.128906 1463.929688 C 1165.503906 1463.929688 1176.382812 1453.054688 1176.355469 1440.71875 L 1178.828125 1396.8125 C 1194.378906 1392.191406 1209.335938 1386.058594 1223.574219 1378.472656 L 1255.734375 1406.875 C 1260.433594 1411.570312 1267.058594 1413.894531 1273.460938 1413.96875 C 1279.910156 1413.796875 1286.09375 1410.90625 1289.628906 1406.898438 L 1345.25 1351.476562 C 1349.945312 1347.296875 1352.738281 1341.488281 1353.085938 1335.183594 C 1353.457031 1328.660156 1351.183594 1322.304688 1346.707031 1317.335938 L 1317.460938 1284.679688 C 1325.078125 1270.613281 1331.257812 1255.660156 1335.929688 1239.9375 L 1378.84375 1237.488281 Z M 1377.757812 1200.332031 L 1377.804688 1200.332031 L 1376.695312 1200.40625 C 1377.039062 1200.359375 1377.410156 1200.332031 1377.757812 1200.332031 Z M 955.996094 708.738281 L 1063.804688 708.738281 L 1063.804688 809.5 L 955.996094 809.5 Z M 955.898438 846.582031 L 1063.828125 846.582031 L 1063.828125 885.070312 C 1061.382812 886.085938 1059.207031 887.617188 1057.226562 889.371094 C 1056.660156 889.867188 1056.191406 890.433594 1055.671875 891.003906 C 1054.261719 892.488281 1053.074219 894.09375 1052.0625 895.898438 C 1051.667969 896.589844 1051.269531 897.234375 1050.949219 897.976562 C 1049.8125 900.519531 1048.945312 903.242188 1048.722656 906.207031 L 1046.253906 950.136719 C 1030.578125 954.785156 1015.671875 960.964844 1001.679688 968.601562 L 969.59375 940.074219 C 967.492188 937.972656 965.042969 936.441406 962.449219 935.277344 C 961.609375 934.90625 960.71875 934.757812 959.851562 934.488281 C 958.542969 934.066406 957.28125 933.472656 955.898438 933.300781 Z M 377.855469 708.738281 L 485.660156 708.738281 L 485.660156 809.5 L 377.855469 809.5 Z M 879.265625 1350.585938 L 899.066406 1370.535156 C 845.71875 1403.316406 784.558594 1420.519531 720.855469 1420.519531 C 531.742188 1420.519531 377.855469 1266.535156 377.855469 1077.296875 L 377.855469 846.554688 L 485.785156 846.554688 L 485.785156 1077.296875 C 485.785156 1207.058594 591.242188 1312.613281 720.855469 1312.613281 C 784.632812 1312.613281 845.496094 1286.609375 889.472656 1240.898438 C 891.082031 1246.214844 893.082031 1251.332031 895.035156 1256.472656 C 895.851562 1258.625 896.496094 1260.875 897.359375 1262.976562 C 900.425781 1270.367188 903.8125 1277.5625 907.59375 1284.53125 L 878.347656 1317.1875 C 876.867188 1318.820312 876.027344 1320.796875 875.0625 1322.699219 C 874.589844 1323.617188 873.800781 1324.40625 873.453125 1325.371094 C 872.390625 1328.363281 871.921875 1331.527344 872.09375 1334.765625 C 872.441406 1341.167969 875.285156 1347.050781 879.265625 1350.5625 Z M 1303.421875 1217.8125 C 1298.355469 1239.242188 1290.097656 1259.167969 1278.921875 1277.066406 C 1274.546875 1284.0625 1275.3125 1293.109375 1280.828125 1299.265625 L 1311.109375 1333.082031 L 1272.175781 1371.871094 L 1238.160156 1341.785156 C 1232.050781 1336.394531 1223.128906 1335.605469 1216.207031 1339.855469 C 1197.914062 1351.054688 1177.9375 1359.238281 1156.851562 1364.183594 C 1148.84375 1366.0625 1143.035156 1372.984375 1142.5625 1381.191406 L 1140.019531 1426.75 L 1085.0625 1426.75 L 1082.492188 1381.164062 C 1082.023438 1372.957031 1076.214844 1366.035156 1068.203125 1364.15625 C 1047.019531 1359.1875 1027.144531 1351.007812 1009.195312 1339.882812 C 1002.25 1335.582031 993.277344 1336.320312 987.144531 1341.734375 L 952.980469 1371.96875 L 913.996094 1332.984375 L 944.207031 1299.214844 C 949.71875 1293.0625 950.484375 1284.039062 946.132812 1277.042969 C 934.933594 1259.121094 926.679688 1239.167969 921.636719 1217.8125 C 919.757812 1209.851562 912.859375 1204.042969 904.675781 1203.570312 L 883.8125 1202.335938 C 883.8125 1202.335938 883.640625 1202.386719 883.539062 1202.386719 L 859.289062 1201 L 859.289062 1145.800781 L 904.601562 1143.253906 C 912.808594 1142.785156 919.730469 1136.972656 921.609375 1128.964844 C 923.441406 1121.203125 925.738281 1113.664062 928.160156 1106.816406 C 933.03125 1093.613281 939.0625 1081.230469 946.082031 1070.03125 C 950.484375 1063.035156 949.691406 1053.988281 944.179688 1047.832031 L 913.996094 1014.136719 L 950.433594 977.699219 L 953.105469 975.03125 L 987.070312 1005.261719 C 988.726562 1006.746094 990.628906 1007.808594 992.609375 1008.601562 C 993.203125 1008.824219 993.792969 1008.871094 994.414062 1009.046875 C 995.847656 1009.464844 997.28125 1009.785156 998.789062 1009.835938 C 999.011719 1009.835938 999.207031 1009.960938 999.40625 1009.960938 C 1000.296875 1009.960938 1001.160156 1009.710938 1002.027344 1009.589844 C 1002.742188 1009.488281 1003.460938 1009.488281 1004.152344 1009.292969 C 1005.957031 1008.824219 1007.6875 1008.105469 1009.320312 1007.09375 C 1027.019531 995.867188 1046.820312 987.660156 1068.179688 982.644531 C 1076.1875 980.765625 1082 973.867188 1082.46875 965.636719 L 1085.015625 920.324219 L 1139.96875 920.324219 L 1142.515625 965.636719 C 1142.984375 973.84375 1148.792969 980.765625 1156.804688 982.644531 C 1178.0625 987.613281 1197.988281 995.867188 1216.007812 1007.117188 C 1222.980469 1011.492188 1232.003906 1010.726562 1238.160156 1005.238281 L 1272 975.078125 L 1311.085938 1013.988281 L 1280.800781 1047.808594 C 1275.265625 1053.988281 1274.523438 1063.085938 1278.949219 1070.105469 C 1290.171875 1087.804688 1298.378906 1107.605469 1303.371094 1128.964844 C 1305.25 1136.976562 1312.171875 1142.785156 1320.378906 1143.253906 L 1365.941406 1145.824219 L 1365.941406 1201 L 1320.378906 1203.570312 C 1312.171875 1204.042969 1305.273438 1209.828125 1303.371094 1217.8125 Z M 1303.421875 1217.8125 " fill-opacity="1" fill-rule="nonzero"/></g><path fill="#c4923a" d="M 915.429688 482.890625 C 915.429688 375.601562 828.140625 288.289062 720.828125 288.289062 C 613.515625 288.289062 526.226562 375.578125 526.226562 482.890625 C 526.226562 541.429688 552.257812 596.359375 597.621094 633.5625 C 632.132812 661.890625 675.886719 677.492188 720.804688 677.492188 C 732.027344 677.492188 743.203125 676.527344 754.152344 674.625 C 787.03125 668.914062 818.105469 654.824219 843.988281 633.585938 C 889.375 596.382812 915.40625 541.453125 915.40625 482.914062 Z M 803.273438 616.679688 C 799.960938 618.707031 796.597656 620.683594 793.136719 622.4375 C 789.921875 624.09375 786.5625 625.503906 783.25 626.9375 C 778.058594 629.113281 772.867188 631.3125 767.453125 632.894531 C 767.15625 632.992188 766.859375 633.042969 766.5625 633.140625 C 736.945312 641.71875 704.734375 641.71875 675.121094 633.140625 C 674.824219 633.042969 674.503906 632.992188 674.207031 632.894531 C 668.816406 631.289062 663.625 629.113281 658.433594 626.9375 C 655.097656 625.503906 651.734375 624.09375 648.496094 622.414062 C 645.035156 620.660156 641.722656 618.679688 638.410156 616.679688 C 636.382812 615.417969 634.480469 613.984375 632.503906 612.648438 C 649.460938 580.214844 683.304688 559.203125 720.605469 559.128906 C 720.679688 559.128906 720.753906 559.128906 720.828125 559.128906 C 720.902344 559.128906 720.976562 559.128906 721.050781 559.128906 C 758.355469 559.203125 792.199219 580.238281 809.179688 612.648438 C 807.203125 613.984375 805.324219 615.417969 803.296875 616.679688 Z M 681.648438 482.890625 C 681.648438 461.285156 699.222656 443.707031 720.828125 443.707031 C 742.433594 443.707031 759.988281 461.285156 759.988281 482.890625 C 759.988281 504.496094 742.507812 521.925781 721.027344 522.046875 C 720.953125 522.046875 720.902344 522.046875 720.828125 522.046875 C 720.753906 522.046875 720.707031 522.046875 720.632812 522.046875 C 699.125 521.925781 681.648438 504.421875 681.648438 482.890625 Z M 776.722656 534.359375 C 789.230469 520.761719 797.066406 502.789062 797.066406 482.890625 C 797.066406 440.839844 762.855469 406.625 720.828125 406.625 C 678.804688 406.625 644.566406 440.839844 644.566406 482.890625 C 644.566406 502.789062 652.402344 520.761719 664.910156 534.359375 C 639.792969 545.679688 618.484375 564.371094 604.023438 588.273438 C 578.042969 559.476562 563.308594 522.269531 563.308594 482.890625 C 563.308594 396.046875 633.960938 325.371094 720.828125 325.371094 C 807.699219 325.371094 878.347656 396.023438 878.347656 482.890625 C 878.347656 522.246094 863.617188 559.476562 837.632812 588.273438 C 823.148438 564.371094 801.863281 545.679688 776.746094 534.359375 Z M 776.722656 534.359375 " fill-opacity="1" fill-rule="nonzero"/><path fill="#c4923a" d="M 1150.152344 425.339844 C 1167.011719 425.339844 1183.699219 423.140625 1199.792969 418.914062 C 1226.613281 411.867188 1251.804688 399.136719 1273.359375 381.4375 C 1318.722656 344.230469 1344.753906 289.300781 1344.753906 230.738281 C 1344.753906 123.453125 1257.464844 36.136719 1150.152344 36.136719 C 1042.839844 36.136719 955.550781 123.425781 955.550781 230.738281 C 955.550781 289.300781 981.582031 344.207031 1026.945312 381.410156 C 1061.457031 409.742188 1105.1875 425.316406 1150.128906 425.316406 Z M 1232.746094 364.453125 C 1229.332031 366.53125 1225.898438 368.582031 1222.335938 370.363281 C 1219.199219 371.96875 1215.960938 373.328125 1212.722656 374.738281 C 1207.457031 376.960938 1202.164062 379.164062 1196.675781 380.792969 C 1196.480469 380.867188 1196.257812 380.890625 1196.058594 380.964844 C 1166.34375 389.617188 1133.984375 389.617188 1104.273438 380.964844 C 1104.050781 380.890625 1103.800781 380.84375 1103.554688 380.769531 C 1098.117188 379.164062 1092.875 376.960938 1087.632812 374.761719 C 1084.347656 373.328125 1081.035156 371.945312 1077.84375 370.289062 C 1074.359375 368.53125 1070.996094 366.53125 1067.660156 364.503906 C 1065.632812 363.265625 1063.753906 361.832031 1061.800781 360.472656 C 1078.785156 328.039062 1112.601562 307.027344 1149.90625 306.953125 C 1149.980469 306.953125 1150.054688 306.953125 1150.128906 306.953125 C 1150.203125 306.953125 1150.277344 306.953125 1150.351562 306.953125 C 1187.679688 307.027344 1221.523438 328.066406 1238.480469 360.472656 C 1236.550781 361.785156 1234.699219 363.191406 1232.71875 364.402344 Z M 1110.996094 230.738281 C 1110.996094 209.132812 1128.570312 191.582031 1150.152344 191.582031 C 1171.734375 191.582031 1189.335938 209.15625 1189.335938 230.738281 C 1189.335938 252.320312 1171.859375 269.796875 1150.351562 269.898438 C 1150.277344 269.898438 1150.226562 269.898438 1150.152344 269.898438 C 1150.078125 269.898438 1150.03125 269.898438 1149.957031 269.898438 C 1128.449219 269.773438 1110.996094 252.269531 1110.996094 230.738281 Z M 992.632812 230.738281 C 992.632812 143.894531 1063.285156 73.21875 1150.152344 73.21875 C 1237.023438 73.21875 1307.671875 143.871094 1307.671875 230.738281 C 1307.671875 270.121094 1292.964844 307.324219 1266.957031 336.125 C 1252.472656 312.21875 1231.1875 293.53125 1206.070312 282.207031 C 1218.605469 268.609375 1226.417969 250.640625 1226.417969 230.738281 C 1226.417969 188.6875 1192.203125 154.5 1150.152344 154.5 C 1108.101562 154.5 1073.914062 188.714844 1073.914062 230.738281 C 1073.914062 250.640625 1081.75 268.609375 1094.261719 282.207031 C 1069.144531 293.53125 1047.835938 312.21875 1033.371094 336.125 C 1007.367188 307.324219 992.65625 270.121094 992.65625 230.738281 Z M 992.632812 230.738281 " fill-opacity="1" fill-rule="nonzero"/><g clip-path="url(#7cddf8952e)"><path fill="#c4923a" d="M 414.714844 381.4375 C 460.074219 344.230469 486.105469 289.300781 486.105469 230.738281 C 486.105469 123.453125 398.816406 36.136719 291.503906 36.136719 C 184.191406 36.136719 96.902344 123.425781 96.902344 230.738281 C 96.902344 289.300781 122.933594 344.207031 168.296875 381.410156 C 202.808594 409.742188 246.539062 425.316406 291.480469 425.316406 C 308.339844 425.316406 325.027344 423.117188 341.121094 418.886719 C 367.941406 411.84375 393.132812 399.113281 414.6875 381.410156 Z M 174.722656 336.125 C 148.71875 307.324219 134.007812 270.121094 134.007812 230.738281 C 134.007812 143.894531 204.660156 73.21875 291.53125 73.21875 C 378.398438 73.21875 449.050781 143.871094 449.050781 230.738281 C 449.050781 270.121094 434.339844 307.324219 408.335938 336.125 C 393.847656 312.21875 372.5625 293.53125 347.449219 282.207031 C 359.980469 268.609375 367.792969 250.640625 367.792969 230.738281 C 367.792969 188.6875 333.578125 154.5 291.53125 154.5 C 249.480469 154.5 215.292969 188.714844 215.292969 230.738281 C 215.292969 250.640625 223.128906 268.609375 235.636719 282.207031 C 210.519531 293.53125 189.210938 312.21875 174.75 336.125 Z M 330.6875 230.738281 C 330.6875 252.269531 313.210938 269.796875 291.703125 269.898438 C 291.628906 269.898438 291.578125 269.898438 291.503906 269.898438 C 291.429688 269.898438 291.382812 269.898438 291.308594 269.898438 C 269.800781 269.773438 252.347656 252.269531 252.347656 230.738281 C 252.347656 209.207031 269.925781 191.582031 291.503906 191.582031 C 313.085938 191.582031 330.6875 209.15625 330.6875 230.738281 Z M 337.4375 380.964844 C 307.722656 389.617188 275.363281 389.617188 245.648438 380.964844 C 245.425781 380.890625 245.179688 380.84375 244.929688 380.769531 C 239.492188 379.164062 234.25 376.960938 229.011719 374.761719 C 225.722656 373.328125 222.410156 371.945312 219.222656 370.289062 C 215.734375 368.53125 212.375 366.53125 209.035156 364.503906 C 207.011719 363.265625 205.132812 361.832031 203.179688 360.472656 C 220.160156 328.039062 253.980469 307.027344 291.28125 306.953125 C 291.355469 306.953125 291.429688 306.953125 291.503906 306.953125 C 291.578125 306.953125 291.652344 306.953125 291.726562 306.953125 C 329.054688 307.027344 362.898438 328.066406 379.855469 360.472656 C 377.929688 361.785156 376.074219 363.191406 374.097656 364.402344 C 370.683594 366.480469 367.25 368.53125 363.6875 370.3125 C 360.550781 371.917969 357.3125 373.277344 354.074219 374.6875 C 348.808594 376.914062 343.515625 379.113281 338.03125 380.746094 C 337.832031 380.820312 337.609375 380.84375 337.410156 380.917969 Z M 337.4375 380.964844 " fill-opacity="1" fill-rule="nonzero"/></g><path fill="#c4923a" d="M 682.265625 1179.246094 C 683.675781 1179.566406 685.082031 1179.742188 686.46875 1179.742188 C 693.414062 1179.742188 699.941406 1175.8125 703.105469 1169.382812 L 808.191406 955.402344 C 811.011719 949.664062 810.664062 942.867188 807.277344 937.429688 C 803.890625 931.992188 797.933594 928.679688 791.53125 928.679688 L 773.707031 928.679688 L 773.707031 771.109375 C 773.707031 762.480469 767.75 754.992188 759.367188 753.0625 C 750.863281 751.085938 742.335938 755.214844 738.527344 762.949219 L 633.441406 976.933594 C 630.625 982.667969 630.96875 989.464844 634.355469 994.90625 C 637.742188 1000.34375 643.699219 1003.65625 650.101562 1003.65625 L 667.925781 1003.65625 L 667.925781 1161.226562 C 667.925781 1169.851562 673.882812 1177.34375 682.265625 1179.273438 Z M 736.648438 850.929688 L 736.648438 947.21875 C 736.648438 957.453125 744.957031 965.757812 755.191406 965.757812 L 761.792969 965.757812 L 705.007812 1081.378906 L 705.007812 985.089844 C 705.007812 974.855469 696.703125 966.550781 686.46875 966.550781 L 679.867188 966.550781 Z M 736.648438 850.929688 " fill-opacity="1" fill-rule="nonzero"/></svg>