<svg xmlns="http://www.w3.org/2000/svg" xmlns:xlink="http://www.w3.org/1999/xlink" width="2000" zoomAndPan="magnify" viewBox="0 0 1500 1499.999933" height="2000" preserveAspectRatio="xMidYMid meet" version="1.0"><defs><clipPath id="b658f7edb0"><path d="M 51.726562 63.984375 L 1438.476562 63.984375 L 1438.476562 1450.734375 L 51.726562 1450.734375 Z M 51.726562 63.984375 " clip-rule="nonzero"/></clipPath></defs><g clip-path="url(#b658f7edb0)"><path fill="#c4923a" d="M 1020.085938 1393.902344 C 914.210938 1439.761719 795.410156 1459.773438 672.480469 1446.832031 C 546.125 1433.527344 431.214844 1387.019531 335.628906 1316.921875 L 350.050781 1367.445312 C 353.4375 1379.316406 346.550781 1391.703125 334.679688 1395.09375 C 322.8125 1398.480469 310.425781 1391.59375 307.035156 1379.722656 L 273.058594 1260.695312 C 271.171875 1254.082031 272.429688 1246.96875 276.472656 1241.40625 C 280.515625 1235.84375 286.890625 1232.449219 293.761719 1232.203125 L 417.472656 1227.753906 C 429.808594 1227.308594 440.183594 1236.964844 440.625 1249.300781 C 441.070312 1261.636719 431.417969 1272.015625 419.078125 1272.457031 L 353.964844 1274.796875 C 444.953125 1343.734375 555.378906 1389.519531 677.164062 1402.34375 C 791.179688 1414.347656 901.398438 1396.046875 999.800781 1353.925781 C 1001.363281 1357.996094 1008.738281 1377.152344 1008.738281 1377.152344 C 1011.246094 1383.671875 1015.175781 1389.355469 1020.085938 1393.902344 Z M 772.054688 1066.808594 L 343.695312 1066.808594 C 337.339844 1066.808594 331.21875 1065.773438 325.488281 1063.859375 L 654.453125 802.375 L 730.292969 869.179688 C 738.746094 876.621094 751.410156 876.621094 759.863281 869.179688 L 835.699219 802.378906 L 888.289062 844.191406 L 838.464844 894.015625 C 825.375 907.105469 821.699219 926.902344 829.21875 943.816406 L 839.675781 967.335938 C 833.855469 978.972656 828.863281 991.003906 824.734375 1003.359375 C 824.738281 1003.355469 800.71875 1012.601562 800.71875 1012.601562 C 783.449219 1019.246094 772.054688 1035.84375 772.054688 1054.347656 Z M 954.132812 839.386719 L 869.792969 772.34375 L 1199.269531 482.121094 C 1202.523438 489.34375 1204.335938 497.339844 1204.335938 505.738281 L 1204.335938 840.535156 C 1194.660156 835.996094 1184.730469 832.027344 1174.589844 828.644531 L 1165.355469 804.609375 C 1158.710938 787.324219 1142.109375 775.917969 1123.597656 775.917969 L 1050.484375 775.917969 C 1031.992188 775.917969 1015.410156 787.296875 1008.753906 804.546875 L 999.460938 828.632812 C 987.128906 832.742188 975.105469 837.722656 963.472656 843.542969 C 963.472656 843.542969 959.105469 841.597656 954.132812 839.386719 Z M 1347.496094 998.0625 C 1369.082031 943.964844 1383.679688 886.03125 1390.082031 825.25 C 1405.054688 682.910156 1372.816406 546.425781 1305.875 431.519531 C 1299.660156 420.855469 1303.273438 407.148438 1313.9375 400.933594 C 1324.609375 394.71875 1338.308594 398.335938 1344.523438 409.003906 C 1416.09375 531.851562 1450.578125 677.757812 1434.570312 829.933594 C 1427.488281 897.148438 1411.03125 961.105469 1386.628906 1020.640625 C 1382.761719 1017.261719 1378.265625 1014.515625 1373.289062 1012.601562 L 1349.324219 1003.378906 C 1348.734375 1001.601562 1348.125 999.828125 1347.496094 998.0625 Z M 323.722656 451.433594 C 329.957031 449.128906 336.683594 447.863281 343.695312 447.863281 L 1146.460938 447.863281 C 1153.472656 447.863281 1160.199219 449.128906 1166.429688 451.433594 L 745.078125 822.585938 Z M 291.445312 1033.777344 C 287.839844 1026.253906 285.820312 1017.84375 285.820312 1008.988281 L 285.820312 505.738281 C 285.820312 497.339844 287.632812 489.34375 290.886719 482.121094 L 620.351562 772.335938 Z M 1154.523438 197.761719 L 1140.101562 147.230469 C 1136.710938 135.359375 1143.597656 122.972656 1155.46875 119.582031 C 1167.339844 116.195312 1179.726562 123.078125 1183.113281 134.949219 L 1217.089844 253.980469 C 1218.976562 260.59375 1217.71875 267.707031 1213.675781 273.269531 C 1209.632812 278.832031 1203.261719 282.226562 1196.386719 282.472656 L 1072.679688 286.921875 C 1060.34375 287.363281 1049.964844 277.707031 1049.523438 265.375 C 1049.078125 253.035156 1058.734375 242.660156 1071.070312 242.21875 L 1136.171875 239.875 C 1045.167969 170.921875 934.808594 125.136719 812.988281 112.332031 C 456.753906 74.816406 137.585938 333.191406 100.066406 689.425781 C 85.09375 831.839844 117.414062 968.253906 184.28125 1083.164062 C 190.492188 1093.832031 186.871094 1107.535156 176.199219 1113.746094 C 165.53125 1119.953125 151.828125 1116.332031 145.621094 1105.664062 C 74.132812 982.820312 39.574219 836.992188 55.582031 684.742188 C 95.683594 303.9375 436.863281 27.746094 817.667969 67.84375 C 944.066406 81.132812 1058.921875 127.636719 1154.523438 197.761719 Z M 1140.828125 865.492188 C 1164.679688 871.160156 1187.433594 880.585938 1208.347656 893.46875 L 1252.226562 873.957031 L 1303.914062 925.644531 L 1284.476562 969.527344 C 1297.359375 990.4375 1306.785156 1013.191406 1312.453125 1037.117188 L 1357.222656 1054.347656 L 1357.222656 1127.460938 L 1312.453125 1144.691406 C 1306.785156 1168.546875 1297.289062 1191.296875 1284.476562 1212.210938 L 1303.914062 1256.09375 L 1252.226562 1307.777344 L 1208.347656 1288.339844 C 1187.507812 1301.222656 1164.679688 1310.648438 1140.828125 1316.316406 L 1123.597656 1361.085938 L 1050.484375 1361.085938 L 1033.253906 1316.316406 C 1009.324219 1310.648438 986.574219 1301.152344 965.664062 1288.339844 L 921.78125 1307.777344 L 870.09375 1256.09375 L 889.605469 1212.210938 C 876.722656 1191.371094 867.296875 1168.546875 861.550781 1144.691406 L 816.785156 1127.460938 L 816.785156 1054.347656 L 861.550781 1037.117188 C 867.296875 1013.191406 876.722656 990.4375 889.605469 969.527344 L 870.09375 925.644531 L 921.78125 873.957031 L 965.664062 893.46875 C 986.574219 880.585938 1009.324219 871.160156 1033.183594 865.492188 L 1050.484375 820.648438 L 1123.597656 820.648438 Z M 1087.003906 963.34375 C 1016.542969 963.34375 959.480469 1020.40625 959.480469 1090.867188 C 959.480469 1161.332031 1016.542969 1218.464844 1087.003906 1218.464844 C 1157.46875 1218.464844 1214.601562 1161.332031 1214.601562 1090.867188 C 1214.601562 1020.40625 1157.46875 963.34375 1087.003906 963.34375 Z M 1087.003906 963.34375 " fill-opacity="1" fill-rule="evenodd"/></g></svg>